<?xml version="1.0" standalone="no"?>
<!DOCTYPE svg PUBLIC "-//W3C//DTD SVG 1.1//EN" "http://www.w3.org/Graphics/SVG/1.1/DTD/svg11.dtd" >
<svg xmlns="http://www.w3.org/2000/svg" xmlns:xlink="http://www.w3.org/1999/xlink" version="1.1">
<metadata>
Created by FontForge 20190801 at Thu May  3 07:42:52 2018
 By Unknown
Copyright (c) 2017 by Martin Va'cha. All rights reserved.
</metadata>
<defs>
<font id="Reckless-Bold" horiz-adv-x="0" >
  <font-face 
    font-family="Reckless"
    font-weight="700"
    font-stretch="normal"
    units-per-em="1000"
    panose-1="0 0 8 0 0 0 0 0 0 0"
    ascent="788"
    descent="-212"
    x-height="510"
    cap-height="668"
    bbox="-456 -288 1158 1072"
    underline-thickness="50"
    underline-position="-150"
    unicode-range="U+000D-F8FF"
  />
<missing-glyph horiz-adv-x="650" 
d="M325 570q118 0 201.5 -83t83.5 -201t-83.5 -202t-201.5 -84t-201.5 84t-83.5 202t83.5 201t201.5 83zM237 250q17 0 29.5 28t12.5 67t-12.5 67t-29.5 28q-18 0 -31 -27.5t-13 -67.5q0 -39 13 -67t31 -28zM414 250q18 0 30.5 28t12.5 67q0 40 -12.5 67.5t-30.5 27.5
q-17 0 -29.5 -27.5t-12.5 -67.5q0 -39 12.5 -67t29.5 -28zM325 84q25 0 42 17t17 41q0 25 -17 41.5t-42 16.5t-41.5 -16.5t-16.5 -41.5q0 -24 17 -41t41 -17z" />
    <glyph glyph-name="f_f" unicode="ff" horiz-adv-x="844" 
d="M684 732q-72 0 -72 -144v-78h142v-55h-142v-338q0 -29 17 -42t64 -20v-55h-304v55q37 8 49 20.5t12 41.5v338h-189v-338q0 -29 17 -42t64 -20v-55h-304v55q37 8 49 20.5t12 41.5v338h-83v55h83v43q0 48 16 88t43 67t62 45.5t72.5 26.5t75.5 8q104 0 165 -51q67 51 166 51
q67 0 123.5 -27t77.5 -74l-127 -83q-11 53 -36 90.5t-53 37.5zM450 510v43q0 22 3 43q-12 67 -35.5 101.5t-64.5 34.5t-66.5 -39t-25.5 -105v-78h189z" />
    <glyph glyph-name="f_f_i" unicode="ffi" horiz-adv-x="1056" 
d="M963 117q0 -29 12 -41.5t49 -20.5v-55h-284v55q37 8 49 20.5t12 41.5v338h-189v-338q0 -29 17 -42t64 -20v-55h-304v55q37 8 49 20.5t12 41.5v338h-189v-338q0 -29 17 -42t64 -20v-55h-304v55q37 8 49 20.5t12 41.5v338h-83v55h83v43q0 48 16 88t43 67t62 45.5t72.5 26.5
t75.5 8q109 0 170 -56q75 56 197 56q91 0 157.5 -36.5t88.5 -91.5l-162 -74q-7 65 -35 105.5t-66 40.5q-50 0 -78 -41.5t-28 -102.5v-78h254l62 14h35v-407zM450 510v43q0 21 3 41q-12 68 -35.5 103t-64.5 35t-66.5 -39t-25.5 -105v-78h189z" />
    <glyph glyph-name="f_f_l" unicode="ffl" horiz-adv-x="1040" 
d="M963 117q0 -29 12 -41.5t49 -20.5v-55h-284v55q37 8 49 20.5t12 41.5v433q0 88 -22.5 135t-76.5 47q-40 0 -65 -38.5t-25 -105.5v-78h146v-55h-146v-338q0 -29 17 -42t64 -20v-55h-304v55q37 8 49 20.5t12 41.5v338h-189v-338q0 -29 17 -42t64 -20v-55h-304v55
q37 8 49 20.5t12 41.5v338h-83v55h83v43q0 48 16 88t43 67t62 45.5t72.5 26.5t75.5 8q107 0 169 -55q74 55 180 55q135 0 187 -91l24 13h35v-593zM450 510v43q0 23 3 42q-12 67 -35.5 102t-64.5 35t-66.5 -39t-25.5 -105v-78h189z" />
    <glyph glyph-name="f_i" unicode="fi" horiz-adv-x="705" 
d="M612 117q0 -29 12 -41.5t49 -20.5v-55h-284v55q37 8 49 20.5t12 41.5v338h-189v-338q0 -29 17 -42t64 -20v-55h-304v55q37 8 49 20.5t12 41.5v338h-83v55h83v43q0 107 76.5 171t208.5 64q91 0 157.5 -36.5t88.5 -91.5l-162 -74q-7 65 -35 105.5t-66 40.5q-50 0 -78 -41.5
t-28 -102.5v-78h254l62 14h35v-407z" />
    <glyph glyph-name="f_l" unicode="fl" horiz-adv-x="689" 
d="M612 117q0 -29 12 -41.5t49 -20.5v-55h-284v55q37 8 49 20.5t12 41.5v433q0 88 -22.5 135t-76.5 47q-40 0 -65 -38.5t-25 -105.5v-78h146v-55h-146v-338q0 -29 17 -42t64 -20v-55h-304v55q37 8 49 20.5t12 41.5v338h-83v55h83v43q0 60 24 107t63.5 74t85 40.5t94.5 13.5
q134 0 187 -91l24 13h35v-593z" />
    <glyph glyph-name=".notdef" horiz-adv-x="650" 
d="M325 570q118 0 201.5 -83t83.5 -201t-83.5 -202t-201.5 -84t-201.5 84t-83.5 202t83.5 201t201.5 83zM237 250q17 0 29.5 28t12.5 67t-12.5 67t-29.5 28q-18 0 -31 -27.5t-13 -67.5q0 -39 13 -67t31 -28zM414 250q18 0 30.5 28t12.5 67q0 40 -12.5 67.5t-30.5 27.5
q-17 0 -29.5 -27.5t-12.5 -67.5q0 -39 12.5 -67t29.5 -28zM325 84q25 0 42 17t17 41q0 25 -17 41.5t-42 16.5t-41.5 -16.5t-16.5 -41.5q0 -24 17 -41t41 -17z" />
    <glyph glyph-name=".null" 
 />
    <glyph glyph-name="nonmarkingreturn" horiz-adv-x="333" 
 />
    <glyph glyph-name="CR" unicode="&#xd;" horiz-adv-x="600" 
 />
    <glyph glyph-name="space" unicode=" " horiz-adv-x="200" 
 />
    <glyph glyph-name="exclam" unicode="!" horiz-adv-x="224" 
d="M200 668l-62 -455h-55l-59 455h176zM112 -14q-35 0 -59.5 24t-24.5 60q0 35 24.5 59t59.5 24q37 0 60.5 -24t23.5 -59q0 -36 -24.5 -60t-59.5 -24z" />
    <glyph glyph-name="quotedbl" unicode="&#x22;" horiz-adv-x="428" 
d="M74 408l-32 260h158l-34 -260h-92zM260 408l-32 260h158l-34 -260h-92z" />
    <glyph glyph-name="numbersign" unicode="#" horiz-adv-x="603" 
d="M579 439h-122l-44 -157h126v-59h-143l-73 -260h-62l73 260h-145l-73 -260h-62l73 260h-103v59h120l44 157h-124v59h140l65 230h62l-65 -230h145l65 230h62l-65 -230h106v-59zM351 282l44 157h-145l-44 -157h145z" />
    <glyph glyph-name="dollar" unicode="$" horiz-adv-x="592" 
d="M568 190q0 -91 -65 -145t-176 -59v-135h-55v136q-148 12 -248 108l133 143q44 -159 115 -186v214q-102 41 -139 66q-82 58 -82 158q0 80 58.5 132t162.5 59v132h55v-132q88 -6 148.5 -41t75.5 -74l-129 -112q-36 130 -95 160v-190q106 -42 141 -63q100 -62 100 -171z
M199 537q0 -52 73 -89v174q-31 -5 -52 -27t-21 -58zM327 46q37 5 61 29.5t24 67.5q0 60 -85 100v-197z" />
    <glyph glyph-name="percent" unicode="%" horiz-adv-x="732" 
d="M183 357q-64 0 -106.5 46.5t-42.5 116.5q0 69 42.5 115.5t106.5 46.5t106 -46.5t42 -115.5q0 -70 -42 -116.5t-106 -46.5zM209 0h-53l368 668h53zM183 412q21 0 33 29.5t12 78.5q0 48 -12 77.5t-33 29.5t-33 -29.5t-12 -77.5q0 -49 12 -78.5t33 -29.5zM550 -14
q-64 0 -106.5 46.5t-42.5 116.5q0 69 42.5 115.5t106.5 46.5t106 -46.5t42 -115.5q0 -70 -42 -116.5t-106 -46.5zM550 41q21 0 33 29.5t12 78.5q0 48 -12 77.5t-33 29.5t-33 -29.5t-12 -77.5q0 -49 12 -78.5t33 -29.5z" />
    <glyph glyph-name="ampersand" unicode="&#x26;" horiz-adv-x="757" 
d="M652 91q38 -39 82 -43v-48h-220l-41 43q-93 -57 -202 -57q-113 0 -185 51.5t-72 140.5q0 131 169 169q-73 90 -73 175q0 73 60 115t166 42q94 0 142 -40t48 -100t-47.5 -98t-121.5 -56l160 -159q11 63 -4 139l170 -27q-27 -105 -91 -188zM322 626q-28 0 -45 -21.5
t-17 -60.5q0 -55 72 -133q53 44 53 116q0 45 -16 72t-47 27zM317 44q70 0 119 38l-227 236q-28 -51 -28 -119q0 -67 37.5 -111t98.5 -44z" />
    <glyph glyph-name="quotesingle" unicode="'" horiz-adv-x="242" 
d="M74 408l-32 260h158l-34 -260h-92z" />
    <glyph glyph-name="parenleft" unicode="(" horiz-adv-x="389" 
d="M353 761l26 -30q-82 -56 -131.5 -180.5t-49.5 -275.5t49.5 -276t131.5 -181l-26 -30q-142 58 -227.5 190.5t-85.5 296.5q0 163 85.5 296t227.5 190z" />
    <glyph glyph-name="parenright" unicode=")" horiz-adv-x="389" 
d="M36 761q142 -57 227.5 -190t85.5 -296q0 -164 -85.5 -296.5t-227.5 -190.5l-26 30q82 56 131.5 181t49.5 276t-49.5 275.5t-131.5 180.5z" />
    <glyph glyph-name="asterisk" unicode="*" horiz-adv-x="424" 
d="M20 552l34 100l132 -74l-29 147h110l-29 -147l132 74l34 -100l-149 -20l112 -106l-81 -62l-74 138l-74 -138l-81 62l112 106z" />
    <glyph glyph-name="plus" unicode="+" horiz-adv-x="490" 
d="M466 367v-55h-194v-193h-55v193h-193v55h193v194h55v-194h194z" />
    <glyph glyph-name="comma" unicode="," horiz-adv-x="222" 
d="M108 153q40 0 65 -28.5t25 -75.5q0 -84 -48 -138.5t-126 -62.5v38q38 9 65 37.5t26 64.5q-39 -4 -65 19.5t-26 62.5q0 35 24.5 59t59.5 24z" />
    <glyph glyph-name="hyphen" unicode="-" horiz-adv-x="314" 
d="M282 329v-75h-250v75h250z" />
    <glyph glyph-name="period" unicode="." horiz-adv-x="216" 
d="M108 -14q-35 0 -59.5 24t-24.5 60q0 35 24.5 59t59.5 24q37 0 60.5 -24t23.5 -59q0 -36 -24.5 -60t-59.5 -24z" />
    <glyph glyph-name="slash" unicode="/" horiz-adv-x="364" 
d="M10 -45l276 731h68l-276 -731h-68z" />
    <glyph glyph-name="zero" unicode="0" horiz-adv-x="639" 
d="M321 682q96 0 164 -49t99 -126t31 -173t-31 -173t-99 -126t-164 -49q-98 0 -166.5 49t-99.5 126t-31 173t31 172.5t99.5 126t166.5 49.5zM304 623q-47 0 -76 -65.5t-29 -172.5q0 -154 37.5 -247t98.5 -93q47 0 76 65.5t29 172.5q0 153 -37.5 246.5t-98.5 93.5z" />
    <glyph glyph-name="one" unicode="1" horiz-adv-x="408" 
d="M298 119q0 -28 19.5 -42.5t66.5 -21.5v-55h-358v55q58 8 81.5 22.5t23.5 41.5v443h-105v45q153 19 217 75h55v-563z" />
    <glyph glyph-name="two" unicode="2" horiz-adv-x="537" 
d="M255 682q109 0 174 -56.5t65 -147.5q0 -48 -18.5 -88t-56 -74t-72.5 -58t-90.5 -59t-87.5 -59h184q45 0 66 19t39 76h55l-22 -235h-475v58l149 144q81 78 113 140t32 128q0 54 -29 87.5t-75 33.5q-95 0 -132 -96l-50 16q8 59 72 115t159 56z" />
    <glyph glyph-name="three" unicode="3" horiz-adv-x="543" 
d="M257 682q93 0 151 -43t60 -114q2 -63 -35 -107t-100 -53q81 -7 133.5 -52t52.5 -125q0 -89 -74.5 -145.5t-201.5 -56.5q-71 0 -134 30t-93 88l114 71q11 -57 45 -93.5t75 -36.5t71.5 35.5t30.5 91.5q0 68 -35.5 108t-99.5 40h-41l-7 48l39 11q113 32 108 127
q-2 44 -27.5 68t-68.5 24q-88 0 -132 -84l-42 13q15 66 69 110.5t142 44.5z" />
    <glyph glyph-name="four" unicode="4" horiz-adv-x="610" 
d="M476 681v-438h110v-56h-110v-65q0 -51 85 -64v-58h-346v58q101 16 101 64v65h-306v56l324 438h142zM316 554l-228 -311h228v311z" />
    <glyph glyph-name="five" unicode="5" horiz-adv-x="552" 
d="M485 668v-141h-344l-26 -188q29 42 80 66.5t102 24.5q104 0 167.5 -56t63.5 -149q0 -118 -71.5 -178.5t-205.5 -60.5q-71 0 -134 30t-93 88l114 71q11 -57 45 -93.5t75 -36.5q44 -1 76 31.5t32 111.5q0 71 -35 114t-93 43q-66 0 -132 -59l-54 24l49 358h384z" />
    <glyph glyph-name="six" unicode="6" horiz-adv-x="574" 
d="M339 440q92 0 148.5 -61t56.5 -160q0 -103 -64 -168t-177 -65q-67 0 -119 24t-81 59t-48 81.5t-25 85.5t-6 77q0 69 19 133t55 117.5t96.5 86t136.5 32.5q70 0 128.5 -27.5t90.5 -83.5l-110 -73q-37 125 -116 125q-59 0 -95.5 -71t-41.5 -185q63 73 152 73zM304 45
q36 0 61.5 35t25.5 100q0 77 -33 125t-91 48q-47 0 -81 -22q0 -44 5 -87.5t16.5 -91.5t36.5 -77.5t60 -29.5z" />
    <glyph glyph-name="seven" unicode="7" horiz-adv-x="554" 
d="M530 668v-53q-142 -212 -189 -336t-47 -279h-163q0 84 19.5 153.5t68.5 138t84 107t113 114.5l14 14h-241q-41 0 -66 -25.5t-44 -88.5h-55l12 255h494z" />
    <glyph glyph-name="eight" unicode="8" horiz-adv-x="570" 
d="M285 681q108 0 172 -47t64 -119q0 -46 -41.5 -86t-108.5 -66q80 -34 127.5 -82.5t47.5 -102.5q0 -79 -66 -135.5t-195 -56.5q-116 0 -188.5 53t-72.5 132q0 55 38 93t117 73q-129 65 -129 164q0 75 61 127.5t174 52.5zM285 622q-36 0 -56.5 -26t-20.5 -71
q0 -51 22.5 -76.5t96.5 -61.5q39 46 39 128q0 50 -21.5 78.5t-59.5 28.5zM227 315q-41 -46 -41 -144q0 -59 26.5 -92.5t72.5 -33.5q48 0 75.5 30.5t27.5 83.5q0 52 -29.5 79t-131.5 77z" />
    <glyph glyph-name="nine" unicode="9" horiz-adv-x="574" 
d="M271 682q67 0 119 -24t81 -59t48 -81.5t25 -85.5t6 -77q0 -69 -19 -133t-55 -117.5t-96.5 -86t-136.5 -32.5q-70 0 -128.5 27.5t-90.5 83.5l110 73q37 -125 116 -125q59 0 95.5 71t41.5 185q-63 -73 -152 -73q-92 0 -148.5 61t-56.5 160q0 103 64 168t177 65zM307 315
q47 0 81 22q0 44 -5 87.5t-16.5 91.5t-36.5 77.5t-60 29.5q-36 0 -61.5 -35t-25.5 -100q0 -77 33 -125t91 -48z" />
    <glyph glyph-name="colon" unicode=":" horiz-adv-x="216" 
d="M108 357q-35 0 -59.5 24t-24.5 60q0 35 24.5 59t59.5 24q37 0 60.5 -24t23.5 -59q0 -36 -24.5 -60t-59.5 -24zM108 -14q-35 0 -59.5 24t-24.5 60q0 35 24.5 59t59.5 24q37 0 60.5 -24t23.5 -59q0 -36 -24.5 -60t-59.5 -24z" />
    <glyph glyph-name="semicolon" unicode=";" horiz-adv-x="222" 
d="M108 281q-35 0 -59.5 24t-24.5 60q0 35 24.5 59t59.5 24q37 0 60.5 -24t23.5 -59q0 -36 -24.5 -60t-59.5 -24zM108 153q40 0 65 -28.5t25 -75.5q0 -84 -48 -138.5t-126 -62.5v38q38 9 65 37.5t26 64.5q-39 -4 -65 19.5t-26 62.5q0 35 24.5 59t59.5 24z" />
    <glyph glyph-name="less" unicode="&#x3c;" horiz-adv-x="485" 
d="M96 330l365 -188l-22 -51l-415 211v56l415 211l22 -51z" />
    <glyph glyph-name="equal" unicode="=" horiz-adv-x="490" 
d="M24 397v55h442v-55h-442zM24 234v55h442v-55h-442z" />
    <glyph glyph-name="greater" unicode="&#x3e;" horiz-adv-x="485" 
d="M389 330l-365 188l22 51l415 -211v-56l-415 -211l-22 51z" />
    <glyph glyph-name="question" unicode="?" horiz-adv-x="507" 
d="M212 213q0 47 13 84t31.5 61t37 47t31.5 55.5t13 72.5q0 37 -24.5 62.5t-62.5 25.5q-43 0 -71 -35t-33 -93l-127 50q18 60 80 99.5t155 39.5q106 0 167 -49t61 -133q0 -46 -21.5 -82.5t-52 -60t-62 -44.5t-54.5 -46t-26 -54h-55zM242 -14q-35 0 -59.5 24t-24.5 60
q0 35 24.5 59t59.5 24q37 0 60.5 -24t23.5 -59q0 -36 -24.5 -60t-59.5 -24z" />
    <glyph glyph-name="at" unicode="@" horiz-adv-x="828" 
d="M529 497h57v-287q0 -29 17.5 -50t40.5 -21q45 0 73.5 51.5t28.5 135.5q0 132 -93.5 221.5t-234.5 89.5q-143 0 -239.5 -100.5t-96.5 -250.5q0 -158 94 -256.5t247 -98.5q68 0 126 18.5t131 59.5l25 -55q-148 -77 -281 -77q-179 0 -289.5 112.5t-110.5 296.5
q0 174 112.5 289.5t281.5 115.5q166 0 276 -104t110 -261q0 -111 -43.5 -178t-116.5 -67q-34 0 -61 18.5t-41 49.5q-19 -36 -57.5 -56.5t-87.5 -20.5q-88 0 -140.5 59t-52.5 157q0 91 54.5 152.5t138.5 62.5q37 1 73 -17t59 -48v59zM399 125q62 1 99 45t37 118t-37 118
t-99 44t-99 -44t-37 -118q0 -75 37.5 -119.5t98.5 -43.5z" />
    <glyph glyph-name="A" unicode="A" horiz-adv-x="765" 
d="M673 103q11 -27 23 -34.5t59 -13.5v-55h-342v55q60 2 76.5 20t-0.5 52l-31 74h-260l-26 -62q-22 -42 -9 -61.5t87 -22.5v-55h-240v55q40 4 51.5 14.5t30.5 56.5l226 542h121zM221 256h214l-108 256z" />
    <glyph glyph-name="B" unicode="B" horiz-adv-x="683" 
d="M339 668q126 0 193 -41.5t67 -122.5q0 -57 -45.5 -99.5t-106.5 -47.5q92 -7 144 -49t52 -121q0 -82 -70 -134.5t-199 -52.5h-350v55q49 7 67.5 23t18.5 41v422q0 38 -17.5 53t-68.5 19v55h315zM312 612h-35v-238h46q47 0 74 34.5t27 95.5q0 48 -28.5 78t-83.5 30z
M343 319h-66v-217q0 -47 57 -47h24q48 0 78.5 34.5t30.5 97.5q0 58 -33.5 95t-90.5 37z" />
    <glyph glyph-name="C" unicode="C" horiz-adv-x="680" 
d="M412 91q75 0 129 35t74 75l42 -20q-10 -30 -29.5 -60.5t-52 -62.5t-84 -52t-112.5 -20q-160 0 -256 94.5t-98 238.5q-2 157 91.5 259.5t257.5 102.5q113 0 189 -44t94 -101l-158 -86q-17 83 -53 127.5t-81 44.5q-77 0 -121.5 -72t-43.5 -204q1 -121 64 -188t148 -67z" />
    <glyph glyph-name="D" unicode="D" horiz-adv-x="746" 
d="M340 668q100 0 176.5 -26t121 -71t67 -99.5t22.5 -115.5q0 -160 -111 -258t-262 -98h-330v55q49 7 67.5 23t18.5 41v422q0 38 -17.5 53t-68.5 19v55h316zM354 55q90 0 143.5 71t53.5 208q0 116 -63 197.5t-165 81.5h-46v-513q0 -24 16.5 -34.5t60.5 -10.5z" />
    <glyph glyph-name="E" unicode="E" horiz-adv-x="617" 
d="M538 172h55l-10 -172h-559v55q49 7 67.5 23t18.5 41v422q0 38 -17.5 53t-68.5 19v55h550l12 -171h-55q-23 71 -50 93.5t-68 22.5h-135v-243h72q21 0 37.5 22.5t19.5 65.5h55v-231h-55q-3 44 -19.5 66t-37.5 22h-72v-215q0 -24 16.5 -34.5t60.5 -10.5h67q38 0 65.5 25
t50.5 92z" />
    <glyph glyph-name="F" unicode="F" horiz-adv-x="600" 
d="M574 668l12 -171h-55q-23 71 -50 93.5t-68 22.5h-135v-243h72q21 0 37.5 22.5t19.5 65.5h55v-231h-55q-3 44 -19.5 66t-37.5 22h-72v-192q0 -33 23 -47.5t100 -20.5v-55h-377v55q49 7 67.5 23t18.5 41v422q0 38 -17.5 53t-68.5 19v55h550z" />
    <glyph glyph-name="G" unicode="G" horiz-adv-x="769" 
d="M761 357v-55q-52 -4 -72 -20t-20 -53v-107q-43 -61 -123.5 -98.5t-168.5 -37.5q-159 0 -254.5 95t-97.5 238q-2 157 91 259.5t256 102.5q123 0 201.5 -37.5t99.5 -107.5l-158 -86q-18 90 -55 131t-98 41q-76 0 -119 -71.5t-42 -204.5q1 -123 65 -203t155 -80q40 0 80 14
v152q0 37 -19.5 53t-73.5 20v55h353z" />
    <glyph glyph-name="H" unicode="H" horiz-adv-x="831" 
d="M807 613q-50 -4 -68.5 -19.5t-18.5 -52.5v-422q0 -25 19.5 -41t67.5 -23v-55h-343v55q49 7 68.5 23t19.5 41v195h-274v-195q0 -25 19 -41t68 -23v-55h-341v55q49 7 67.5 23t18.5 41v422q0 38 -17.5 53t-68.5 19v55h341v-55q-51 -4 -69 -19.5t-18 -52.5v-172h274v172
q0 37 -18.5 52.5t-69.5 19.5v55h343v-55z" />
    <glyph glyph-name="I" unicode="I" horiz-adv-x="388" 
d="M364 668v-55q-51 -4 -68.5 -19t-17.5 -53v-422q0 -25 18.5 -41t67.5 -23v-55h-340v55q49 7 67.5 23t18.5 41v422q0 38 -17.5 53t-68.5 19v55h340z" />
    <glyph glyph-name="J" unicode="J" horiz-adv-x="613" 
d="M589 668v-55q-51 -4 -68.5 -19t-17.5 -53v-351q0 -97 -65.5 -150.5t-184.5 -53.5q-101 0 -167.5 43t-75.5 110l173 44q0 -66 23 -106t54 -40q75 0 75 129v375q0 38 -17.5 53t-68.5 19v55h340z" />
    <glyph glyph-name="K" unicode="K" horiz-adv-x="795" 
d="M685 100q16 -25 35.5 -33.5t64.5 -11.5v-55h-238l-205 320l-60 -54v-147q0 -25 19.5 -41t70.5 -23v-55h-348v55q50 7 70 23t20 41v422q0 37 -19 52.5t-71 19.5v55h348v-55q-53 -4 -71.5 -19.5t-18.5 -52.5v-201l235 212q67 61 -45 61v55h255v-55q-43 -3 -62.5 -11.5
t-43.5 -29.5l-153 -138z" />
    <glyph glyph-name="L" unicode="L" horiz-adv-x="608" 
d="M593 172l-10 -172h-559v55q49 7 67.5 23t18.5 41v422q0 38 -17.5 53t-68.5 19v55h340v-55q-51 -4 -68.5 -19t-17.5 -53v-441q0 -24 16 -34.5t60 -10.5h68q38 0 65.5 25t50.5 92h55z" />
    <glyph glyph-name="M" unicode="M" horiz-adv-x="975" 
d="M951 668v-55q-52 -4 -71 -19.5t-19 -52.5v-422q0 -51 90 -64v-55h-347v55q50 7 69.5 23t19.5 41v387l-226 -505h-78l-220 505v-387q0 -51 91 -64v-55h-235v55q50 7 69.5 23t19.5 41v422q0 37 -19 52.5t-71 19.5v55h258l208 -480l215 480h246z" />
    <glyph glyph-name="N" unicode="N" horiz-adv-x="724" 
d="M700 668v-55q-50 -4 -68 -19.5t-18 -52.5v-541h-75l-359 459v-340q0 -25 19 -41t68 -23v-55h-243v55q49 7 67.5 23t18.5 41v422q0 38 -17.5 53t-68.5 19v55h223l297 -397v270q0 38 -17.5 53t-68.5 19v55h242z" />
    <glyph glyph-name="O" unicode="O" horiz-adv-x="780" 
d="M393 682q168 0 265 -98t97 -235q0 -160 -105 -261.5t-262 -101.5q-169 0 -266 98t-97 236q0 160 105.5 261t262.5 101zM370 622q-79 0 -124.5 -72t-45.5 -188q0 -81 24 -151.5t73 -117.5t113 -47q79 0 124 72t45 187q0 81 -23 152t-72 118t-114 47z" />
    <glyph glyph-name="P" unicode="P" horiz-adv-x="640" 
d="M347 285h-65v-162q0 -33 23.5 -47.5t101.5 -20.5v-55h-383v55q50 7 70 23t20 41v422q0 37 -19 52.5t-71 19.5v55h323q135 0 207.5 -49.5t72.5 -142.5q0 -92 -73 -141.5t-207 -49.5zM324 613h-42v-273h42q62 0 95 35.5t33 100.5q0 137 -128 137z" />
    <glyph glyph-name="Q" unicode="Q" horiz-adv-x="788" 
d="M759 349q0 -160 -105 -261.5t-262 -101.5q-69 0 -131 19q84 -55 173 -83t161 -17l-31 -135q-66 2 -114 16.5t-90 48.5t-75.5 77t-81.5 117q-84 43 -129 121t-45 170q0 160 105.5 261t262.5 101q168 0 265 -98t97 -235zM204 362q0 -81 24 -151.5t73 -117.5t113 -47
q79 0 124 72t45 187q0 81 -23 152t-72 118t-114 47q-79 0 -124.5 -72t-45.5 -188z" />
    <glyph glyph-name="R" unicode="R" horiz-adv-x="771" 
d="M649 100q22 -37 99 -45v-55h-236l-175 285h-55v-166q0 -25 19.5 -41t70.5 -23v-55h-348v55q50 7 70 23t20 41v422q0 37 -19 52.5t-71 19.5v55h322q135 0 208 -49.5t73 -142.5q0 -115 -113 -163zM282 340h41q62 0 95 35.5t33 100.5q0 137 -128 137h-41v-273z" />
    <glyph glyph-name="S" unicode="S" horiz-adv-x="592" 
d="M157 238q28 -100 64 -146.5t90 -46.5q42 0 71.5 25t29.5 73q0 31 -20 55t-51.5 39t-70 29.5t-77.5 32.5t-70.5 41t-51.5 61.5t-20 88.5q0 85 66.5 138.5t182.5 53.5q99 0 167 -37t84 -79l-129 -112q-47 169 -135 169q-35 0 -61.5 -22.5t-26.5 -63.5q0 -39 38 -67
t92 -47.5t108.5 -44t92.5 -72t38 -116.5q0 -95 -71 -149.5t-190 -54.5q-168 0 -283 109z" />
    <glyph glyph-name="T" unicode="T" horiz-adv-x="655" 
d="M629 668l12 -171h-58q-21 72 -47 94t-66 22h-58v-494q0 -25 18.5 -41t67.5 -23v-55h-340v55q49 7 67.5 23t18.5 41v494h-57q-41 0 -67.5 -22t-47.5 -94h-58l12 171h603z" />
    <glyph glyph-name="U" unicode="U" horiz-adv-x="759" 
d="M739 668v-55q-50 -4 -68 -19.5t-18 -52.5v-300q0 -122 -66 -188.5t-187 -66.5q-149 0 -221.5 64.5t-72.5 184.5v306q0 38 -17.5 53t-68.5 19v55h341v-55q-51 -4 -69 -19.5t-18 -52.5v-292q0 -201 148 -201q77 0 119 54t42 152v287q0 38 -17.5 53t-68.5 19v55h242z" />
    <glyph glyph-name="V" unicode="V" horiz-adv-x="765" 
d="M755 668v-55q-40 -4 -51.5 -14.5t-30.5 -56.5l-226 -542h-121l-234 565q-11 27 -23 34.5t-59 13.5v55h342v-55q-60 -2 -76.5 -20t0.5 -52l162 -385l155 373q22 42 9 61.5t-87 22.5v55h240z" />
    <glyph glyph-name="W" unicode="W" horiz-adv-x="1042" 
d="M812 668h220v-55q-39 -4 -48.5 -13t-23.5 -53l-172 -547h-124l-136 432l-139 -432h-125l-179 568q-9 28 -18.5 34.5t-56.5 10.5v55h320v-55q-53 -2 -65.5 -16.5t-2.5 -50.5l112 -382l117 384l-6 20q-5 17 -7 21.5t-10 11t-19.5 8.5t-37.5 4v55h320v-55
q-53 -2 -65.5 -16.5t-2.5 -50.5l112 -382l106 367q18 43 8 61t-77 21v55z" />
    <glyph glyph-name="X" unicode="X" horiz-adv-x="719" 
d="M627 99q16 -23 32 -31.5t50 -12.5v-55h-335v55q45 4 53 15t-14 43l-104 153l-96 -128q-34 -45 -27.5 -62.5t58.5 -20.5v-55h-234v55q35 1 54 11t38 36l167 222l-167 244q-16 23 -32.5 32t-49.5 13v55h335v-55q-45 -4 -52.5 -14.5t13.5 -42.5l85 -125l75 100
q35 47 28.5 63t-59.5 19v55h234v-55q-37 -2 -54.5 -10.5t-38.5 -36.5l-145 -193z" />
    <glyph glyph-name="Y" unicode="Y" horiz-adv-x="679" 
d="M669 668v-55q-27 -2 -37.5 -9.5t-26.5 -37.5l-179 -325v-122q0 -25 19 -41t68 -23v-55h-341v55q48 7 67 23t19 41v125l-185 324q-15 28 -25 35.5t-38 9.5v55h298v-55q-46 -2 -59.5 -14t1.5 -43l135 -244l137 244q17 28 7 41t-59 16v55h199z" />
    <glyph glyph-name="Z" unicode="Z" horiz-adv-x="634" 
d="M614 172l-10 -172h-579v55l395 558h-201q-38 0 -65 -25t-49 -91h-55l10 171h554v-55l-395 -558h228q38 0 66 25t49 92h52z" />
    <glyph glyph-name="bracketleft" unicode="[" horiz-adv-x="275" 
d="M24 -190v950h237v-30h-101v-890h101v-30h-237z" />
    <glyph glyph-name="backslash" unicode="\" horiz-adv-x="379" 
d="M369 -45h-68l-276 731h68z" />
    <glyph glyph-name="bracketright" unicode="]" horiz-adv-x="275" 
d="M251 -190h-237v30h101v890h-101v30h237v-950z" />
    <glyph glyph-name="asciicircum" unicode="^" horiz-adv-x="458" 
d="M24 429l183 271h45l182 -271h-68l-137 213l-137 -213h-68z" />
    <glyph glyph-name="underscore" unicode="_" horiz-adv-x="414" 
d="M382 3v-55h-350v55h350z" />
    <glyph glyph-name="grave" unicode="`" horiz-adv-x="286" 
d="M167 565l-147 161h182l64 -161h-99z" />
    <glyph glyph-name="a" unicode="a" horiz-adv-x="566" 
d="M545 91h11v-55l-196 -50h-35v89q-29 -48 -64 -68.5t-92 -20.5q-66 0 -105.5 40t-39.5 103q0 19 5.5 36t13 30t23.5 25.5t27 20.5t34 17.5t35 14t39.5 11.5t37 9.5t38.5 8.5l48 11v33q0 56 -22.5 89t-61.5 33q-31 0 -49 -20t-18 -50q0 -28 17 -56l-137 -44q-18 36 -18 69
q0 67 65 112t167 45q106 0 162.5 -51.5t56.5 -139.5v-173q0 -41 11.5 -55t46.5 -14zM251 73q53 0 74 59v126l-32 -8q-101 -26 -101 -107q0 -28 17 -49t42 -21z" />
    <glyph glyph-name="b" unicode="b" horiz-adv-x="628" 
d="M375 524q108 0 166 -72.5t58 -179.5q0 -130 -71.5 -208t-184.5 -78q-98 0 -139 58l-49 -58h-70v574q0 23 -10 36t-36 22l-15 5v45l188 42h35v-256q20 32 54 51t74 19zM333 51q43 0 70.5 48.5t27.5 135.5q0 86 -27.5 144t-81.5 58q-27 0 -41.5 -4.5t-33.5 -19.5v-207
q0 -82 20 -118.5t66 -36.5z" />
    <glyph glyph-name="c" unicode="c" horiz-adv-x="530" 
d="M290 524q95 0 150.5 -45t61.5 -106l-139 -61q-8 71 -30.5 112.5t-58.5 41.5q-39 0 -64.5 -49.5t-25.5 -131.5q0 -94 39 -145t106 -51q49 0 85.5 26t49.5 59l42 -19q-25 -83 -84.5 -126t-145.5 -43q-119 0 -183 75.5t-64 187.5q0 116 68.5 195.5t192.5 79.5z" />
    <glyph glyph-name="d" unicode="d" horiz-adv-x="631" 
d="M576 91h31v-55l-196 -50h-35v92q-20 -46 -53.5 -69t-74.5 -23q-108 0 -166 72.5t-58 179.5q0 130 71.5 208t184.5 78q57 0 96 -21v57q0 23 -10 36t-36 22l-15 5v45l188 42h35v-560q0 -32 8.5 -45.5t29.5 -13.5zM301 73q25 0 46 18t29 45v168q0 82 -20 118.5t-66 36.5
q-43 0 -70.5 -48.5t-27.5 -135.5q0 -86 27.5 -144t81.5 -58z" />
    <glyph glyph-name="e" unicode="e" horiz-adv-x="543" 
d="M292 524q112 0 166.5 -69.5t55.5 -190.5h-329q7 -79 45.5 -122.5t99.5 -43.5q44 0 83.5 22.5t57.5 59.5l42 -19q-22 -75 -83.5 -125t-152.5 -50q-120 0 -184 75.5t-64 181.5q0 128 72 204.5t191 76.5zM275 466q-37 0 -60.5 -36.5t-28.5 -103.5h169q-5 140 -80 140z" />
    <glyph glyph-name="f" unicode="f" horiz-adv-x="493" 
d="M333 732q-72 0 -72 -144v-78h142v-55h-142v-338q0 -29 17 -42t64 -20v-55h-304v55q37 8 49 20.5t12 41.5v338h-83v55h83v43q0 117 73 176t176 59q67 0 123.5 -27t77.5 -74l-127 -83q-11 53 -36 90.5t-53 37.5z" />
    <glyph glyph-name="g" unicode="g" horiz-adv-x="608" 
d="M472 524h71v-512q0 -103 -68 -163.5t-202 -60.5q-92 0 -153 26t-80 60l154 76q14 -43 39.5 -72.5t61.5 -29.5q39 0 62.5 34.5t23.5 105.5v68q-20 -32 -54 -51t-74 -19q-108 0 -166 72.5t-58 179.5q0 130 71.5 208t184.5 78q98 0 140 -59zM381 304q0 82 -20 118.5
t-66 36.5q-43 0 -70.5 -48.5t-27.5 -135.5q0 -86 27.5 -144t81.5 -58q27 0 41.5 4.5t33.5 19.5v207z" />
    <glyph glyph-name="h" unicode="h" horiz-adv-x="647" 
d="M566 117q0 -29 12 -41.5t49 -20.5v-55h-272v54q29 8 39 21t10 42v219q0 86 -68 86q-43 0 -89 -52v-253q0 -29 12 -41.5t49 -20.5v-55h-284v55q37 8 49 20.5t12 41.5v443q0 23 -10 36.5t-35 21.5l-16 5v45l188 42h35v-288q66 102 159 102q80 0 120 -45.5t40 -127.5v-234z
" />
    <glyph glyph-name="i" unicode="i" horiz-adv-x="340" 
d="M167 573q-43 0 -71.5 27.5t-28.5 68.5q0 40 28.5 67t71.5 27t71.5 -27t28.5 -67q0 -41 -28.5 -68.5t-71.5 -27.5zM247 117q0 -29 12 -41.5t49 -20.5v-55h-284v55q37 8 49 20.5t12 41.5v257q0 23 -10 36t-36 22l-15 5v45l188 42h35v-407z" />
    <glyph glyph-name="j" unicode="j" horiz-adv-x="302" 
d="M145 573q-43 0 -71.5 27.5t-28.5 68.5q0 40 28.5 67t71.5 27t71.5 -27t28.5 -67q0 -41 -28.5 -68.5t-71.5 -27.5zM9 482l188 42h35v-450q0 -47 -10 -85t-36.5 -76.5t-78 -69.5t-128.5 -53l-22 53q27 15 39 22.5t29.5 25t25 37t13.5 53t6 78.5v315q0 23 -10 36t-36 22
l-15 5v45z" />
    <glyph glyph-name="k" unicode="k" horiz-adv-x="646" 
d="M552 109q11 -18 17 -25t23.5 -16.5t43.5 -12.5v-55h-215l-130 233l-47 -40v-76q0 -19 2.5 -28t15.5 -18.5t40 -15.5v-55h-278v55q35 8 46.5 21t11.5 41v443q0 14 -1.5 22.5t-11.5 18.5t-30 17l-15 5v45l185 42h35v-444l153 130q14 12 20.5 18t12 15.5t1.5 14t-18.5 8
t-41.5 3.5v55h226v-55q-30 0 -45.5 -6t-37.5 -25l-100 -86z" />
    <glyph glyph-name="l" unicode="l" horiz-adv-x="324" 
d="M247 710v-593q0 -29 12 -41.5t49 -20.5v-55h-284v55q37 8 49 20.5t12 41.5v443q0 23 -10 36t-36 22l-15 5v45l188 42h35z" />
    <glyph glyph-name="m" unicode="m" horiz-adv-x="970" 
d="M885 117q0 -29 12 -41.5t49 -20.5v-55h-272v54q29 8 39 21t10 42v219q0 86 -68 86q-43 0 -90 -53q1 -6 1 -18v-234q0 -29 12 -41.5t49 -20.5v-55h-272v54q29 8 39 21t10 42v219q0 86 -68 86q-43 0 -89 -52v-253q0 -29 12 -41.5t49 -20.5v-55h-284v55q37 8 49 20.5
t12 41.5v257q0 23 -10 36t-36 22l-15 5v45l188 42h35v-102q66 102 159 102q126 0 153 -112q69 112 166 112q80 0 120 -45.5t40 -127.5v-234z" />
    <glyph glyph-name="n" unicode="n" horiz-adv-x="651" 
d="M566 117q0 -29 12 -41.5t49 -20.5v-55h-272v54q29 8 39 21t10 42v219q0 86 -68 86q-43 0 -89 -52v-253q0 -29 12 -41.5t49 -20.5v-55h-284v55q37 8 49 20.5t12 41.5v257q0 23 -10 36t-36 22l-15 5v45l188 42h35v-102q66 102 159 102q80 0 120 -45.5t40 -127.5v-234z" />
    <glyph glyph-name="o" unicode="o" horiz-adv-x="596" 
d="M295 -14q-123 0 -194.5 73t-71.5 185q0 122 77 201t195 79q122 0 194 -74t72 -186q0 -121 -77.5 -199.5t-194.5 -78.5zM315 45q42 0 64.5 45t22.5 122q0 109 -34.5 181t-85.5 72q-42 0 -64.5 -45t-22.5 -121q0 -110 34.5 -182t85.5 -72z" />
    <glyph glyph-name="p" unicode="p" horiz-adv-x="628" 
d="M375 524q108 0 166 -72.5t58 -179.5q0 -130 -71.5 -208t-184.5 -78q-57 0 -96 21v-88q0 -29 17 -42t64 -20v-55h-304v55q37 8 49 20.5t12 41.5v455q0 23 -10 36t-36 22l-15 5v45l188 42h35v-70q20 32 54 51t74 19zM333 51q43 0 70.5 48.5t27.5 135.5q0 86 -27.5 144
t-81.5 58q-27 0 -41.5 -4.5t-33.5 -19.5v-207q0 -82 20 -118.5t66 -36.5z" />
    <glyph glyph-name="q" unicode="q" horiz-adv-x="628" 
d="M543 -81q0 -29 12 -41.5t49 -20.5v-55h-304v55q47 7 64 20t17 42v137q-20 -32 -54 -51t-74 -19q-108 0 -166 72.5t-58 179.5q0 130 71.5 208t184.5 78q98 0 139 -58l49 58h70v-605zM306 73q27 0 41.5 4.5t33.5 19.5v207q0 82 -20 118.5t-66 36.5q-43 0 -70.5 -48.5
t-27.5 -135.5q0 -86 27.5 -144t81.5 -58z" />
    <glyph glyph-name="r" unicode="r" horiz-adv-x="474" 
d="M406 528q30 3 54 -4l-21 -171q-36 40 -96 37q-33 -3 -59 -21.5t-37 -47.5v-204q0 -29 17 -42t64 -20v-55h-304v55q37 8 49 20.5t12 41.5v257q0 23 -10 36t-36 22l-15 5v45l188 42h35v-149q43 144 159 153z" />
    <glyph glyph-name="s" unicode="s" horiz-adv-x="503" 
d="M266 524q75 0 127.5 -20.5t73.5 -42.5l-88 -111q-56 120 -132 120q-30 0 -53 -15.5t-23 -40.5t23 -42.5t57 -26t73.5 -23t73.5 -32t56 -54.5t21 -89q-2 -66 -60.5 -113.5t-154.5 -47.5q-76 0 -143.5 29t-93.5 57l101 100q76 -132 150 -132q30 0 54 16.5t24 50.5
q0 32 -31.5 50.5t-76 29t-89 25t-76 51.5t-31.5 96q0 76 58.5 120.5t159.5 44.5z" />
    <glyph glyph-name="t" unicode="t" horiz-adv-x="424" 
d="M403 87l14 -30q-86 -71 -161 -71q-77 0 -119.5 41t-42.5 116v312h-82v55h82v93l163 59v-152h145v-55h-145v-302q0 -40 21 -62.5t58 -22.5q29 0 67 19z" />
    <glyph glyph-name="u" unicode="u" horiz-adv-x="655" 
d="M600 91h31v-55l-196 -50h-35v101q-66 -102 -159 -102q-80 0 -120 45.5t-40 127.5v216q0 23 -10 36t-36 22l-15 5v45l188 42h35v-351q0 -86 68 -86q43 0 89 52v235q0 23 -10 36t-36 22l-15 5v45l188 42h35v-374q0 -32 8.5 -45.5t29.5 -13.5z" />
    <glyph glyph-name="v" unicode="v" horiz-adv-x="618" 
d="M613 510v-55q-46 -8 -70 -56l-202 -413h-55l-208 413q-25 50 -73 57v54h306v-55q-40 -4 -52 -17t1 -39l112 -226l110 226q14 26 0 39t-60 17v55h191z" />
    <glyph glyph-name="w" unicode="w" horiz-adv-x="895" 
d="M720 510h170v-55q-40 -9 -61 -56l-179 -413h-58l-143 321l-139 -321h-56l-184 413q-23 50 -65 57v54h285v-55q-33 -4 -41.5 -17t2.5 -39l88 -222l80 197l-11 25q-23 50 -64 57v54h285v-55q-32 -5 -41 -17.5t1 -38.5l90 -221l90 221q11 26 -0.5 39t-48.5 17v55z" />
    <glyph glyph-name="x" unicode="x" horiz-adv-x="622" 
d="M531 93q17 -20 32.5 -28t43.5 -10v-55h-300v55q37 5 45 13.5t-6 25.5l-77 93l-72 -84q-18 -19 -10 -29.5t54 -18.5v-55h-227v55q40 8 70 38l139 149l-143 172q-18 21 -33 29.5t-43 11.5v55h302v-55q-72 -6 -41 -42l70 -85l67 79q18 19 10 29.5t-54 18.5v55h227v-55
q-40 -8 -70 -38l-134 -143z" />
    <glyph glyph-name="y" unicode="y" horiz-adv-x="618" 
d="M83 -170l185 182l-201 410q-7 15 -19.5 21.5t-42.5 11.5v55h300v-55q-51 -4 -65 -14.5t-3 -34.5l124 -265l125 265q9 20 -4.5 31t-62.5 18v55h194v-55q-28 -5 -40 -12t-19 -22l-294 -619h-177v28z" />
    <glyph glyph-name="z" unicode="z" horiz-adv-x="544" 
d="M510 510v-55l-292 -400h133q29 0 52 27t42 102h55l-12 -184h-458v55l292 400h-114q-31 0 -54.5 -22t-45.5 -91h-55l12 168h445z" />
    <glyph glyph-name="braceleft" unicode="{" horiz-adv-x="351" 
d="M14 276v18q46 8 59 31t13 80v222q0 65 72.5 104t184.5 39v-30q-111 -13 -111 -109v-221q0 -53 -34.5 -80t-108.5 -45q74 -18 108.5 -45t34.5 -80v-221q0 -96 111 -109v-30q-112 0 -184.5 39t-72.5 104v222q0 57 -13 80t-59 31z" />
    <glyph glyph-name="bar" unicode="|" horiz-adv-x="103" 
d="M24 -212v1000h55v-1000h-55z" />
    <glyph glyph-name="braceright" unicode="}" horiz-adv-x="351" 
d="M337 276q-46 -8 -59 -31t-13 -80v-222q0 -65 -72.5 -104t-184.5 -39v30q111 13 111 109v221q0 53 34.5 80t108.5 45q-74 18 -108.5 45t-34.5 80v221q0 96 -111 109v30q112 0 184.5 -39t72.5 -104v-222q0 -57 13 -80t59 -31v-18z" />
    <glyph glyph-name="asciitilde" unicode="~" horiz-adv-x="431" 
d="M24 261q2 63 36 107.5t81 44.5q30 0 93 -25t86 -25q14 0 22.5 12t17.5 45l47 -9q-5 -67 -37.5 -111t-76.5 -44t-99.5 24t-83.5 24q-17 0 -25 -10.5t-15 -41.5z" />
    <glyph glyph-name="uni00A0" unicode="&#xa0;" horiz-adv-x="200" 
 />
    <glyph glyph-name="exclamdown" unicode="&#xa1;" horiz-adv-x="242" 
d="M112 510q35 0 59.5 -24t24.5 -60q0 -35 -23.5 -59t-60.5 -24q-35 0 -59.5 24t-24.5 59q0 36 24.5 60t59.5 24zM200 -172h-176l59 455h55z" />
    <glyph glyph-name="cent" unicode="&#xa2;" horiz-adv-x="530" 
d="M506 155q-48 -157 -208 -168v-136h-55v137q-104 11 -159 84t-55 177t55.5 180t158.5 92v147h55v-144q92 -2 145 -46.5t59 -104.5l-139 -61q-8 71 -30.5 112.5t-58.5 41.5q-39 0 -64.5 -49.5t-25.5 -131.5q0 -94 39 -145t106 -51q49 0 85.5 26t49.5 59z" />
    <glyph glyph-name="sterling" unicode="&#xa3;" horiz-adv-x="592" 
d="M532 170l34 -11q-9 -77 -51.5 -125t-121.5 -48q-47 0 -86.5 13t-62.5 26.5t-48 21.5t-56.5 -3t-74.5 -45l-26 32q48 50 74.5 92t32 78t1.5 61t-17 60h-115v55h94q-18 54 -18 101q0 91 63 147.5t161 56.5q84 0 148 -32t90 -87l-127 -85q1 67 -28.5 112t-82.5 45
q-50 0 -77 -30t-18 -84q4 -23 29.5 -71.5t33.5 -72.5h170v-55h-159q3 -97 -120 -199q48 28 90.5 31t67.5 -9t55 -25.5t50 -13.5q74 0 95 64z" />
    <glyph glyph-name="currency" unicode="&#xa4;" horiz-adv-x="581" 
d="M525 250q0 -82 -48 -149l89 -89l-40 -40l-88 89q-65 -57 -153 -57q-87 0 -153 56l-88 -88l-40 40l89 89q-49 65 -49 149t49 149l-89 89l40 40l88 -88q67 56 153 56q87 0 153 -57l88 89l40 -40l-90 -90q49 -65 49 -148zM285 65q75 0 127.5 54t52.5 131q0 76 -53 130.5
t-127 54.5q-75 0 -128 -54t-53 -131t53 -131t128 -54z" />
    <glyph glyph-name="yen" unicode="&#xa5;" horiz-adv-x="679" 
d="M470 668h199v-55q-27 -2 -37.5 -9.5t-26.5 -37.5l-147 -266h95v-55h-125l-2 -4v-122q0 -25 19 -41t68 -23v-55h-341v55q48 7 67 23t19 41v125l-1 1h-162v55h131l-153 268q-15 28 -25 35.5t-38 9.5v55h298v-55q-46 -2 -59.5 -14t1.5 -43l135 -244l137 244q17 28 7 41
t-59 16v55z" />
    <glyph glyph-name="brokenbar" unicode="&#xa6;" horiz-adv-x="103" 
d="M24 398v390h55v-390h-55zM79 178v-390h-55v390h55z" />
    <glyph glyph-name="section" unicode="&#xa7;" horiz-adv-x="516" 
d="M422 92q70 -46 70 -131q0 -78 -62 -125.5t-164 -47.5q-91 0 -157.5 52.5t-84.5 138.5l56 21q13 -71 64 -113.5t122 -42.5q74 0 118.5 32t44.5 85q0 48 -39 77t-94.5 44.5t-110.5 33t-94 56t-39 99.5q0 71 79 116q-79 46 -79 131q0 71 59.5 117.5t151.5 46.5q86 0 146 -42
t71 -112l-53 -20q-10 55 -53.5 86.5t-110.5 31.5t-108 -29.5t-41 -78.5q0 -47 39 -74.5t94.5 -42t111 -31.5t94.5 -57t39 -105q0 -68 -70 -116zM114 271q0 -30 15.5 -52t45 -36t59.5 -23t72 -21t69 -23q54 32 54 92q0 25 -11.5 45.5t-28 33t-44 24t-51.5 18.5t-57.5 17
t-55.5 18q-67 -27 -67 -93z" />
    <glyph glyph-name="dieresis" unicode="&#xa8;" horiz-adv-x="457" 
d="M110 572q-39 0 -64.5 24.5t-25.5 61.5q0 36 25.5 60.5t64.5 24.5t64.5 -24.5t25.5 -60.5q0 -37 -25.5 -61.5t-64.5 -24.5zM336 572q-39 0 -64.5 24.5t-25.5 61.5q0 36 25.5 60.5t64.5 24.5t64.5 -24.5t25.5 -60.5q0 -37 -25.5 -61.5t-64.5 -24.5z" />
    <glyph glyph-name="copyright" unicode="&#xa9;" horiz-adv-x="744" 
d="M371 -14q-143 0 -245 102.5t-102 245.5t102 245.5t245 102.5q144 0 246.5 -102.5t102.5 -245.5t-102.5 -245.5t-246.5 -102.5zM372 41q121 -1 207 85t86 208t-86 208t-207 85q-121 1 -207 -85t-86 -208t86 -208t207 -85zM378 136q-87 0 -141 57t-54 149t54 149.5
t141 57.5q65 0 111 -36t59 -98l-54 -12q-8 46 -38 71t-78 25q-65 0 -102.5 -42t-37.5 -115t37.5 -114.5t102.5 -41.5q96 0 116 94l53 -11q-15 -62 -60 -97.5t-109 -35.5z" />
    <glyph glyph-name="ordfeminine" unicode="&#xaa;" horiz-adv-x="356" 
d="M330 489h23v-41l-132 -32h-25v46q-29 -44 -93 -44q-42 0 -66 22t-24 61q0 22 12 39.5t26.5 28t40.5 19.5t39 12.5t37 8.5l28 6v21q0 31 -10.5 49.5t-24.5 18.5t-23.5 -9.5t-9.5 -24.5q0 -20 10 -40l-88 -29q-29 22 -29 57q0 34 46.5 59t107.5 25q137 0 137 -125v-93
q0 -35 18 -35zM161 476q21 0 35 16v84l-16 -3q-15 -3 -31 -17.5t-16 -37.5q0 -18 8.5 -30t19.5 -12z" />
    <glyph glyph-name="guillemotleft" unicode="&#xab;" horiz-adv-x="593" 
d="M24 229v60l230 184l46 -40l-123 -174l123 -175l-46 -40zM293 229v60l230 184l46 -40l-123 -174l123 -175l-46 -40z" />
    <glyph glyph-name="logicalnot" unicode="&#xac;" horiz-adv-x="490" 
d="M466 317v-317h-55v262h-387v55h442z" />
    <glyph glyph-name="registered" unicode="&#xae;" horiz-adv-x="466" 
d="M232 353q-86 0 -147 61.5t-61 146.5q0 86 61 147.5t147 61.5t148 -61.5t62 -147.5q0 -85 -62 -146.5t-148 -61.5zM233 398q67 0 115.5 48t48.5 116q0 67 -48 114t-116 48q-67 1 -115 -46.5t-48 -115.5q0 -67 48 -115.5t115 -48.5zM328 463h-49l-46 89h-34v-89h-41v214h77
q31 0 51 -17.5t20 -44.5q0 -39 -33 -56zM199 636v-43h35q30 0 30 22q0 21 -30 21h-35z" />
    <glyph glyph-name="macron" unicode="&#xaf;" horiz-adv-x="361" 
d="M20 583v85h321v-85h-321z" />
    <glyph glyph-name="degree" unicode="&#xb0;" horiz-adv-x="319" 
d="M158 410q-56 2 -95 42t-39 95q0 57 38.5 95t95.5 40q56 2 96.5 -38t40.5 -97q0 -56 -40.5 -97t-96.5 -40zM158 471q32 0 54 22t22 54t-22 53.5t-54 21.5q-31 0 -52 -21.5t-21 -53.5t21 -54t52 -22z" />
    <glyph glyph-name="plusminus" unicode="&#xb1;" horiz-adv-x="490" 
d="M272 367h194v-55h-194v-193h-55v193h-193v55h193v194h55v-194zM24 -19v55h442v-55h-442z" />
    <glyph glyph-name="uni00B2" unicode="&#xb2;" horiz-adv-x="330" 
d="M155 776q68 0 105.5 -34.5t37.5 -90.5q0 -44 -26.5 -74.5t-59 -43t-69 -30t-49.5 -36.5h122q24 0 36.5 11.5t21.5 42.5h43l-14 -154h-295v39l45 57q14 18 42.5 51.5t43 51.5t27 41.5t12.5 40.5q0 31 -16 50t-42 19q-52 0 -71 -58l-37 11q2 34 42 70t101 36z" />
    <glyph glyph-name="uni00B3" unicode="&#xb3;" horiz-adv-x="331" 
d="M156 776q60 0 95.5 -26.5t37.5 -69.5q1 -40 -21.5 -66t-60.5 -28q47 -3 79 -30t32 -76q0 -55 -47 -88t-126 -33q-40 0 -78 15.5t-59 48.5l78 51q5 -34 22 -55t39 -21q24 0 39 20t15 53q0 40 -20.5 62.5t-56.5 22.5h-18l-5 33l24 9q28 10 43.5 25.5t13.5 45.5
q-2 23 -17 37.5t-38 14.5q-46 0 -73 -49l-30 9q7 40 41 67.5t91 27.5z" />
    <glyph glyph-name="acute" unicode="&#xb4;" horiz-adv-x="286" 
d="M119 565h-99l64 161h182z" />
    <glyph glyph-name="uni00B5" unicode="&#xb5;" horiz-adv-x="466" 
d="M387 510h55v-510h-55v88q-32 -57 -71.5 -79.5t-98.5 -22.5q-39 0 -78 17t-60 40v-241h-55v708h55v-335q0 -57 42.5 -95.5t102.5 -38.5q79 0 121 68.5t42 183.5v217z" />
    <glyph glyph-name="paragraph" unicode="&#xb6;" horiz-adv-x="590" 
d="M203 -212v546q-74 0 -126.5 48.5t-52.5 118.5t52.5 118.5t126.5 48.5h363v-55h-67v-825h-60v825h-175v-825h-61z" />
    <glyph glyph-name="periodcentered" unicode="&#xb7;" horiz-adv-x="216" 
d="M108 285q-35 0 -59.5 24t-24.5 60q0 35 24.5 59t59.5 24q37 0 60.5 -24t23.5 -59q0 -36 -24.5 -60t-59.5 -24z" />
    <glyph glyph-name="cedilla" unicode="&#xb8;" horiz-adv-x="224" 
d="M20 -218v15q93 -2 93 51q0 37 -73 51l58 101h48l-27 -51q85 -20 85 -80q0 -54 -51.5 -75.5t-132.5 -11.5z" />
    <glyph glyph-name="uni00B9" unicode="&#xb9;" horiz-adv-x="261" 
d="M190 441q0 -13 10.5 -20.5t37.5 -12.5v-41h-230v41q63 10 63 33v255h-63v33q100 11 141 47h41v-335z" />
    <glyph glyph-name="ordmasculine" unicode="&#xba;" horiz-adv-x="366" 
d="M181 418q-78 0 -123 44t-45 111q0 73 48.5 121t123.5 48q78 0 123 -44.5t45 -112.5q0 -72 -49 -119.5t-123 -47.5zM189 457q44 0 44 112q0 63 -16.5 98.5t-39.5 35.5q-44 0 -44 -111q0 -63 17 -99t39 -36z" />
    <glyph glyph-name="guillemotright" unicode="&#xbb;" horiz-adv-x="573" 
d="M290 229l-230 -185l-46 40l123 175l-123 174l46 40l230 -184v-60zM559 229l-230 -185l-46 40l123 175l-123 174l46 40l230 -184v-60z" />
    <glyph glyph-name="onequarter" unicode="&#xbc;" horiz-adv-x="757" 
d="M190 341q0 -13 10.5 -20.5t37.5 -12.5v-41h-230v41q63 10 63 33v255h-63v33q100 11 141 47h41v-335zM214 0h-53l368 668h53zM679 408v-264h65v-38h-65v-27q0 -26 50 -36v-43h-220v43q57 12 57 36v27h-181v40l187 262h107zM566 329l-128 -185h128v185z" />
    <glyph glyph-name="onehalf" unicode="&#xbd;" horiz-adv-x="732" 
d="M190 341q0 -13 10.5 -20.5t37.5 -12.5v-41h-230v41q63 10 63 33v255h-63v33q100 11 141 47h41v-335zM174 0h-53l368 668h53zM557 409q68 0 105.5 -34.5t37.5 -90.5q0 -44 -26.5 -74.5t-59 -43t-69 -30t-49.5 -36.5h122q24 0 36.5 11.5t21.5 42.5h43l-14 -154h-295v39
l45 57q14 18 42.5 51.5t43 51.5t27 41.5t12.5 40.5q0 31 -16 50t-42 19q-52 0 -71 -58l-37 11q2 34 42 70t101 36z" />
    <glyph glyph-name="threequarters" unicode="&#xbe;" horiz-adv-x="787" 
d="M156 676q60 0 95.5 -26.5t37.5 -69.5q1 -40 -21.5 -66t-60.5 -28q47 -3 79 -30t32 -76q0 -55 -47 -88t-126 -33q-40 0 -78 15.5t-59 48.5l78 51q5 -34 22 -55t39 -21q24 0 39 20t15 53q0 40 -20.5 62.5t-56.5 22.5h-18l-5 33l24 9q28 10 43.5 25.5t13.5 45.5
q-2 23 -17 37.5t-38 14.5q-46 0 -73 -49l-30 9q7 40 41 67.5t91 27.5zM244 0h-53l368 668h53zM709 408v-264h65v-38h-65v-27q0 -26 50 -36v-43h-220v43q57 12 57 36v27h-181v40l187 262h107zM596 329l-128 -185h128v185z" />
    <glyph glyph-name="questiondown" unicode="&#xbf;" horiz-adv-x="493" 
d="M251 510q35 0 59.5 -24t24.5 -60q0 -35 -24.5 -59t-59.5 -24q-37 0 -60.5 24t-23.5 59q0 36 24.5 60t59.5 24zM281 283q0 -47 -13 -84t-31.5 -61t-37 -47t-31.5 -55.5t-13 -72.5q0 -37 24.5 -62.5t62.5 -25.5q43 0 71 35t33 93l127 -50q-18 -60 -80 -99.5t-155 -39.5
q-106 0 -167 49t-61 133q0 46 21.5 82.5t52 60t62 44.5t54.5 46t26 54h55z" />
    <glyph glyph-name="Agrave" unicode="&#xc0;" horiz-adv-x="765" 
d="M458 723h-99l-147 161h182zM673 103q11 -27 23 -34.5t59 -13.5v-55h-342v55q60 2 76.5 20t-0.5 52l-31 74h-260l-26 -62q-22 -42 -9 -61.5t87 -22.5v-55h-240v55q40 4 51.5 14.5t30.5 56.5l226 542h121zM221 256h214l-108 256z" />
    <glyph glyph-name="Aacute" unicode="&#xc1;" horiz-adv-x="765" 
d="M545 884l-147 -161h-99l64 161h182zM673 103q11 -27 23 -34.5t59 -13.5v-55h-342v55q60 2 76.5 20t-0.5 52l-31 74h-260l-26 -62q-22 -42 -9 -61.5t87 -22.5v-55h-240v55q40 4 51.5 14.5t30.5 56.5l226 542h121zM221 256h214l-108 256z" />
    <glyph glyph-name="Acircumflex" unicode="&#xc2;" horiz-adv-x="765" 
d="M377 810l-94 -87h-80l94 161h159l106 -161h-92zM673 103q11 -27 23 -34.5t59 -13.5v-55h-342v55q60 2 76.5 20t-0.5 52l-31 74h-260l-26 -62q-22 -42 -9 -61.5t87 -22.5v-55h-240v55q40 4 51.5 14.5t30.5 56.5l226 542h121zM221 256h214l-108 256z" />
    <glyph glyph-name="Atilde" unicode="&#xc3;" horiz-adv-x="765" 
d="M278 762q-17 0 -25 -10.5t-15 -41.5l-46 9q2 63 36 107.5t81 44.5q30 0 93 -25t86 -25q14 0 22.5 12t17.5 45l47 -9q-5 -67 -37.5 -111t-76.5 -44t-99.5 24t-83.5 24zM673 103q11 -27 23 -34.5t59 -13.5v-55h-342v55q60 2 76.5 20t-0.5 52l-31 74h-260l-26 -62
q-22 -42 -9 -61.5t87 -22.5v-55h-240v55q40 4 51.5 14.5t30.5 56.5l226 542h121zM221 256h214l-108 256z" />
    <glyph glyph-name="Adieresis" unicode="&#xc4;" horiz-adv-x="765" 
d="M267 730q-39 0 -64.5 24.5t-25.5 61.5q0 36 25.5 60.5t64.5 24.5t64.5 -24.5t25.5 -60.5q0 -37 -25.5 -61.5t-64.5 -24.5zM493 730q-39 0 -64.5 24.5t-25.5 61.5q0 36 25.5 60.5t64.5 24.5t64.5 -24.5t25.5 -60.5q0 -37 -25.5 -61.5t-64.5 -24.5zM673 103
q11 -27 23 -34.5t59 -13.5v-55h-342v55q60 2 76.5 20t-0.5 52l-31 74h-260l-26 -62q-22 -42 -9 -61.5t87 -22.5v-55h-240v55q40 4 51.5 14.5t30.5 56.5l226 542h121zM221 256h214l-108 256z" />
    <glyph glyph-name="Aring" unicode="&#xc5;" horiz-adv-x="765" 
d="M383 711q-50 0 -83.5 30.5t-33.5 76.5t33.5 77t83.5 31t83.5 -31t33.5 -77t-33.5 -76.5t-83.5 -30.5zM383 885q-27 0 -45.5 -19t-18.5 -47q0 -30 18.5 -49t45.5 -19q28 0 46.5 19t18.5 49q0 28 -18.5 47t-46.5 19zM673 103q11 -27 23 -34.5t59 -13.5v-55h-342v55
q60 2 76.5 20t-0.5 52l-31 74h-260l-26 -62q-22 -42 -9 -61.5t87 -22.5v-55h-240v55q40 4 51.5 14.5t30.5 56.5l226 542h121zM221 256h214l-108 256z" />
    <glyph glyph-name="AE" unicode="&#xc6;" horiz-adv-x="993" 
d="M914 172h55l-10 -172h-546v55q59 2 73 18.5t3 53.5l-22 74h-261l-34 -62q-11 -21 -14 -34.5t3.5 -25t28 -17.5t60.5 -7v-55h-240v55q46 4 82 71l227 411q42 76 -65 76h-19v55h695l12 -171h-55q-23 71 -50 93.5t-68 22.5h-262l79 -243h120q21 0 37.5 22.5t19.5 65.5h55
v-231h-55q-3 44 -19.5 66t-37.5 22h-102l56 -171q19 -57 40 -73t75 -16h23q38 0 65.5 25t50.5 92zM236 256h215l-74 256z" />
    <glyph glyph-name="Ccedilla" unicode="&#xc7;" horiz-adv-x="680" 
d="M412 91q75 0 129 35t74 75l42 -20q-10 -30 -29.5 -60.5t-52 -62.5t-84 -52t-112.5 -20h-12l-20 -37q85 -20 85 -80q0 -54 -51.5 -75.5t-132.5 -11.5v15q93 -2 93 51q0 37 -73 51l52 91q-135 18 -214 109t-81 220q-2 157 91.5 259.5t257.5 102.5q113 0 189 -44t94 -101
l-158 -86q-17 83 -53 127.5t-81 44.5q-77 0 -121.5 -72t-43.5 -204q1 -121 64 -188t148 -67z" />
    <glyph glyph-name="Egrave" unicode="&#xc8;" horiz-adv-x="617" 
d="M403 723h-99l-147 161h182zM538 172h55l-10 -172h-559v55q49 7 67.5 23t18.5 41v422q0 38 -17.5 53t-68.5 19v55h550l12 -171h-55q-23 71 -50 93.5t-68 22.5h-135v-243h72q21 0 37.5 22.5t19.5 65.5h55v-231h-55q-3 44 -19.5 66t-37.5 22h-72v-215q0 -24 16.5 -34.5
t60.5 -10.5h67q38 0 65.5 25t50.5 92z" />
    <glyph glyph-name="Eacute" unicode="&#xc9;" horiz-adv-x="617" 
d="M490 884l-147 -161h-99l64 161h182zM538 172h55l-10 -172h-559v55q49 7 67.5 23t18.5 41v422q0 38 -17.5 53t-68.5 19v55h550l12 -171h-55q-23 71 -50 93.5t-68 22.5h-135v-243h72q21 0 37.5 22.5t19.5 65.5h55v-231h-55q-3 44 -19.5 66t-37.5 22h-72v-215
q0 -24 16.5 -34.5t60.5 -10.5h67q38 0 65.5 25t50.5 92z" />
    <glyph glyph-name="Ecircumflex" unicode="&#xca;" horiz-adv-x="617" 
d="M322 810l-94 -87h-80l94 161h159l106 -161h-92zM538 172h55l-10 -172h-559v55q49 7 67.5 23t18.5 41v422q0 38 -17.5 53t-68.5 19v55h550l12 -171h-55q-23 71 -50 93.5t-68 22.5h-135v-243h72q21 0 37.5 22.5t19.5 65.5h55v-231h-55q-3 44 -19.5 66t-37.5 22h-72v-215
q0 -24 16.5 -34.5t60.5 -10.5h67q38 0 65.5 25t50.5 92z" />
    <glyph glyph-name="Edieresis" unicode="&#xcb;" horiz-adv-x="617" 
d="M212 730q-39 0 -64.5 24.5t-25.5 61.5q0 36 25.5 60.5t64.5 24.5t64.5 -24.5t25.5 -60.5q0 -37 -25.5 -61.5t-64.5 -24.5zM438 730q-39 0 -64.5 24.5t-25.5 61.5q0 36 25.5 60.5t64.5 24.5t64.5 -24.5t25.5 -60.5q0 -37 -25.5 -61.5t-64.5 -24.5zM538 172h55l-10 -172
h-559v55q49 7 67.5 23t18.5 41v422q0 38 -17.5 53t-68.5 19v55h550l12 -171h-55q-23 71 -50 93.5t-68 22.5h-135v-243h72q21 0 37.5 22.5t19.5 65.5h55v-231h-55q-3 44 -19.5 66t-37.5 22h-72v-215q0 -24 16.5 -34.5t60.5 -10.5h67q38 0 65.5 25t50.5 92z" />
    <glyph glyph-name="Igrave" unicode="&#xcc;" horiz-adv-x="388" 
d="M170 723l-147 161h182l64 -161h-99zM364 668v-55q-51 -4 -68.5 -19t-17.5 -53v-422q0 -25 18.5 -41t67.5 -23v-55h-340v55q49 7 67.5 23t18.5 41v422q0 38 -17.5 53t-68.5 19v55h340z" />
    <glyph glyph-name="Iacute" unicode="&#xcd;" horiz-adv-x="388" 
d="M209 723h-99l64 161h182zM364 668v-55q-51 -4 -68.5 -19t-17.5 -53v-422q0 -25 18.5 -41t67.5 -23v-55h-340v55q49 7 67.5 23t18.5 41v422q0 38 -17.5 53t-68.5 19v55h340z" />
    <glyph glyph-name="Icircumflex" unicode="&#xce;" horiz-adv-x="388" 
d="M188 810l-94 -87h-80l94 161h159l106 -161h-92zM24 613v55h340v-55q-51 -4 -68.5 -19t-17.5 -53v-422q0 -25 18.5 -41t67.5 -23v-55h-340v55q49 7 67.5 23t18.5 41v422q0 38 -17.5 53t-68.5 19z" />
    <glyph glyph-name="Idieresis" unicode="&#xcf;" horiz-adv-x="388" 
d="M78 730q-39 0 -64.5 24.5t-25.5 61.5q0 36 25.5 60.5t64.5 24.5t64.5 -24.5t25.5 -60.5q0 -37 -25.5 -61.5t-64.5 -24.5zM304 730q-39 0 -64.5 24.5t-25.5 61.5q0 36 25.5 60.5t64.5 24.5t64.5 -24.5t25.5 -60.5q0 -37 -25.5 -61.5t-64.5 -24.5zM364 668v-55
q-51 -4 -68.5 -19t-17.5 -53v-422q0 -25 18.5 -41t67.5 -23v-55h-340v55q49 7 67.5 23t18.5 41v422q0 38 -17.5 53t-68.5 19v55h340z" />
    <glyph glyph-name="Eth" unicode="&#xd0;" horiz-adv-x="746" 
d="M340 668q100 0 176.5 -26t121 -71t67 -99.5t22.5 -115.5q0 -160 -111 -258t-262 -98h-330v55q49 7 67.5 23t18.5 41v187h-91v55h91v180q0 38 -17.5 53t-68.5 19v55h316zM354 55q90 0 143.5 71t53.5 208q0 116 -63 197.5t-165 81.5h-46v-252h122v-55h-122v-206
q0 -24 16.5 -34.5t60.5 -10.5z" />
    <glyph glyph-name="Ntilde" unicode="&#xd1;" horiz-adv-x="724" 
d="M171 719q2 63 36 107.5t81 44.5q30 0 93 -25t86 -25q14 0 22.5 12t17.5 45l47 -9q-5 -67 -37.5 -111t-76.5 -44t-99.5 24t-83.5 24q-17 0 -25 -10.5t-15 -41.5zM700 668v-55q-50 -4 -68 -19.5t-18 -52.5v-541h-75l-359 459v-340q0 -25 19 -41t68 -23v-55h-243v55
q49 7 67.5 23t18.5 41v422q0 38 -17.5 53t-68.5 19v55h223l297 -397v270q0 38 -17.5 53t-68.5 19v55h242z" />
    <glyph glyph-name="Ograve" unicode="&#xd2;" horiz-adv-x="780" 
d="M366 723l-147 161h182l64 -161h-99zM393 682q168 0 265 -98t97 -235q0 -160 -105 -261.5t-262 -101.5q-169 0 -266 98t-97 236q0 160 105.5 261t262.5 101zM370 622q-79 0 -124.5 -72t-45.5 -188q0 -81 24 -151.5t73 -117.5t113 -47q79 0 124 72t45 187q0 81 -23 152
t-72 118t-114 47z" />
    <glyph glyph-name="Oacute" unicode="&#xd3;" horiz-adv-x="780" 
d="M405 723h-99l64 161h182zM393 682q168 0 265 -98t97 -235q0 -160 -105 -261.5t-262 -101.5q-169 0 -266 98t-97 236q0 160 105.5 261t262.5 101zM370 622q-79 0 -124.5 -72t-45.5 -188q0 -81 24 -151.5t73 -117.5t113 -47q79 0 124 72t45 187q0 81 -23 152t-72 118
t-114 47z" />
    <glyph glyph-name="Ocircumflex" unicode="&#xd4;" horiz-adv-x="780" 
d="M384 810l-94 -87h-80l94 161h159l106 -161h-92zM393 682q168 0 265 -98t97 -235q0 -160 -105 -261.5t-262 -101.5q-169 0 -266 98t-97 236q0 160 105.5 261t262.5 101zM410 46q79 0 124 72t45 187q0 81 -23 152t-72 118t-114 47q-79 0 -124.5 -72t-45.5 -188
q0 -81 24 -151.5t73 -117.5t113 -47z" />
    <glyph glyph-name="Otilde" unicode="&#xd5;" horiz-adv-x="780" 
d="M199 719q2 63 36 107.5t81 44.5q30 0 93 -25t86 -25q14 0 22.5 12t17.5 45l47 -9q-5 -67 -37.5 -111t-76.5 -44t-99.5 24t-83.5 24q-17 0 -25 -10.5t-15 -41.5zM393 682q168 0 265 -98t97 -235q0 -160 -105 -261.5t-262 -101.5q-169 0 -266 98t-97 236q0 160 105.5 261
t262.5 101zM370 622q-79 0 -124.5 -72t-45.5 -188q0 -81 24 -151.5t73 -117.5t113 -47q79 0 124 72t45 187q0 81 -23 152t-72 118t-114 47z" />
    <glyph glyph-name="Odieresis" unicode="&#xd6;" horiz-adv-x="780" 
d="M274 730q-39 0 -64.5 24.5t-25.5 61.5q0 36 25.5 60.5t64.5 24.5t64.5 -24.5t25.5 -60.5q0 -37 -25.5 -61.5t-64.5 -24.5zM500 730q-39 0 -64.5 24.5t-25.5 61.5q0 36 25.5 60.5t64.5 24.5t64.5 -24.5t25.5 -60.5q0 -37 -25.5 -61.5t-64.5 -24.5zM393 682q168 0 265 -98
t97 -235q0 -160 -105 -261.5t-262 -101.5q-169 0 -266 98t-97 236q0 160 105.5 261t262.5 101zM370 622q-79 0 -124.5 -72t-45.5 -188q0 -81 24 -151.5t73 -117.5t113 -47q79 0 124 72t45 187q0 81 -23 152t-72 118t-114 47z" />
    <glyph glyph-name="multiply" unicode="&#xd7;" horiz-adv-x="430" 
d="M406 138l-40 -40l-151 152l-151 -151l-40 40l151 151l-150 150l39 39l150 -150l152 151l39 -39l-151 -151z" />
    <glyph glyph-name="Oslash" unicode="&#xd8;" horiz-adv-x="780" 
d="M393 682q168 0 265 -98t97 -235q0 -160 -105 -261.5t-262 -101.5q-169 0 -266 98t-97 236q0 160 105.5 261t262.5 101zM370 622q-79 0 -124.5 -72t-45.5 -188q0 -127 55 -217l201 452q-39 25 -86 25zM410 46q79 0 124 72t45 187q0 136 -60 228l-202 -457q43 -30 93 -30z
" />
    <glyph glyph-name="Ugrave" unicode="&#xd9;" horiz-adv-x="759" 
d="M405 723l-147 161h182l64 -161h-99zM739 668v-55q-50 -4 -68 -19.5t-18 -52.5v-300q0 -122 -66 -188.5t-187 -66.5q-149 0 -221.5 64.5t-72.5 184.5v306q0 38 -17.5 53t-68.5 19v55h341v-55q-51 -4 -69 -19.5t-18 -52.5v-292q0 -201 148 -201q77 0 119 54t42 152v287
q0 38 -17.5 53t-68.5 19v55h242z" />
    <glyph glyph-name="Uacute" unicode="&#xda;" horiz-adv-x="759" 
d="M444 723h-99l64 161h182zM739 668v-55q-50 -4 -68 -19.5t-18 -52.5v-300q0 -122 -66 -188.5t-187 -66.5q-149 0 -221.5 64.5t-72.5 184.5v306q0 38 -17.5 53t-68.5 19v55h341v-55q-51 -4 -69 -19.5t-18 -52.5v-292q0 -201 148 -201q77 0 119 54t42 152v287q0 38 -17.5 53
t-68.5 19v55h242z" />
    <glyph glyph-name="Ucircumflex" unicode="&#xdb;" horiz-adv-x="759" 
d="M423 810l-94 -87h-80l94 161h159l106 -161h-92zM497 668h242v-55q-50 -4 -68 -19.5t-18 -52.5v-300q0 -122 -66 -188.5t-187 -66.5q-149 0 -221.5 64.5t-72.5 184.5v306q0 38 -17.5 53t-68.5 19v55h341v-55q-51 -4 -69 -19.5t-18 -52.5v-292q0 -201 148 -201q77 0 119 54
t42 152v287q0 38 -17.5 53t-68.5 19v55z" />
    <glyph glyph-name="Udieresis" unicode="&#xdc;" horiz-adv-x="759" 
d="M313 730q-39 0 -64.5 24.5t-25.5 61.5q0 36 25.5 60.5t64.5 24.5t64.5 -24.5t25.5 -60.5q0 -37 -25.5 -61.5t-64.5 -24.5zM539 730q-39 0 -64.5 24.5t-25.5 61.5q0 36 25.5 60.5t64.5 24.5t64.5 -24.5t25.5 -60.5q0 -37 -25.5 -61.5t-64.5 -24.5zM739 668v-55
q-50 -4 -68 -19.5t-18 -52.5v-300q0 -122 -66 -188.5t-187 -66.5q-149 0 -221.5 64.5t-72.5 184.5v306q0 38 -17.5 53t-68.5 19v55h341v-55q-51 -4 -69 -19.5t-18 -52.5v-292q0 -201 148 -201q77 0 119 54t42 152v287q0 38 -17.5 53t-68.5 19v55h242z" />
    <glyph glyph-name="Yacute" unicode="&#xdd;" horiz-adv-x="679" 
d="M398 723h-99l64 161h182zM669 668v-55q-27 -2 -37.5 -9.5t-26.5 -37.5l-179 -325v-122q0 -25 19 -41t68 -23v-55h-341v55q48 7 67 23t19 41v125l-185 324q-15 28 -25 35.5t-38 9.5v55h298v-55q-46 -2 -59.5 -14t1.5 -43l135 -244l137 244q17 28 7 41t-59 16v55h199z" />
    <glyph glyph-name="Thorn" unicode="&#xde;" horiz-adv-x="629" 
d="M338 147h-60v-28q0 -25 18.5 -41t67.5 -23v-55h-340v55q49 7 67.5 23t18.5 41v422q0 38 -17.5 53t-68.5 19v55h340v-55q-51 -4 -68.5 -19t-17.5 -53v-11h60q131 0 201.5 -49.5t70.5 -142.5q0 -92 -70.5 -141.5t-201.5 -49.5zM316 474h-38v-270h38q58 0 88.5 34.5
t30.5 99.5q0 136 -119 136z" />
    <glyph glyph-name="germandbls" unicode="&#xdf;" horiz-adv-x="712" 
d="M508 -14q-68 0 -130 30t-78 57l102 100q19 -62 51 -97.5t68 -35.5q25 0 39.5 16t14.5 41q0 24 -14 42t-37 29.5t-50.5 21.5t-54.5 23t-50 30.5t-37 47t-14 68.5q0 33 13.5 58t33 39t43 30t43 31t33 42t13.5 63q0 53 -31.5 82t-94.5 29q-56 0 -91 -36.5t-35 -118.5v-578
h-207v55q30 8 37 19.5t7 42.5v338h-66v55h66v33q0 70 31 121t80 76t96.5 36.5t94.5 11.5q128 0 199 -38t71 -104q0 -45 -20 -77t-49 -50t-57.5 -32t-48.5 -32t-20 -41q0 -30 24.5 -51t59.5 -36t69.5 -34t58 -56t21.5 -90q-2 -72 -51 -116.5t-133 -44.5z" />
    <glyph glyph-name="agrave" unicode="&#xe0;" horiz-adv-x="566" 
d="M342 565h-99l-147 161h182zM545 91h11v-55l-196 -50h-35v89q-29 -48 -64 -68.5t-92 -20.5q-66 0 -105.5 40t-39.5 103q0 19 5.5 36t13 30t23.5 25.5t27 20.5t34 17.5t35 14t39.5 11.5t37 9.5t38.5 8.5l48 11v33q0 56 -22.5 89t-61.5 33q-31 0 -49 -20t-18 -50
q0 -28 17 -56l-137 -44q-18 36 -18 69q0 67 65 112t167 45q106 0 162.5 -51.5t56.5 -139.5v-173q0 -41 11.5 -55t46.5 -14zM251 73q53 0 74 59v126l-32 -8q-101 -26 -101 -107q0 -28 17 -49t42 -21z" />
    <glyph glyph-name="aacute" unicode="&#xe1;" horiz-adv-x="566" 
d="M429 726l-147 -161h-99l64 161h182zM545 91h11v-55l-196 -50h-35v89q-29 -48 -64 -68.5t-92 -20.5q-66 0 -105.5 40t-39.5 103q0 19 5.5 36t13 30t23.5 25.5t27 20.5t34 17.5t35 14t39.5 11.5t37 9.5t38.5 8.5l48 11v33q0 56 -22.5 89t-61.5 33q-31 0 -49 -20t-18 -50
q0 -28 17 -56l-137 -44q-18 36 -18 69q0 67 65 112t167 45q106 0 162.5 -51.5t56.5 -139.5v-173q0 -41 11.5 -55t46.5 -14zM251 73q53 0 74 59v126l-32 -8q-101 -26 -101 -107q0 -28 17 -49t42 -21z" />
    <glyph glyph-name="acircumflex" unicode="&#xe2;" horiz-adv-x="566" 
d="M261 652l-94 -87h-80l94 161h159l106 -161h-92zM545 91h11v-55l-196 -50h-35v89q-29 -48 -64 -68.5t-92 -20.5q-66 0 -105.5 40t-39.5 103q0 19 5.5 36t13 30t23.5 25.5t27 20.5t34 17.5t35 14t39.5 11.5t37 9.5t38.5 8.5l48 11v33q0 56 -22.5 89t-61.5 33q-31 0 -49 -20
t-18 -50q0 -28 17 -56l-137 -44q-18 36 -18 69q0 67 65 112t167 45q106 0 162.5 -51.5t56.5 -139.5v-173q0 -41 11.5 -55t46.5 -14zM251 73q53 0 74 59v126l-32 -8q-101 -26 -101 -107q0 -28 17 -49t42 -21z" />
    <glyph glyph-name="atilde" unicode="&#xe3;" horiz-adv-x="566" 
d="M162 604q-17 0 -25 -10.5t-15 -41.5l-46 9q2 63 36 107.5t81 44.5q30 0 93 -25t86 -25q14 0 22.5 12t17.5 45l47 -9q-5 -67 -37.5 -111t-76.5 -44t-99.5 24t-83.5 24zM545 91h11v-55l-196 -50h-35v89q-29 -48 -64 -68.5t-92 -20.5q-66 0 -105.5 40t-39.5 103q0 19 5.5 36
t13 30t23.5 25.5t27 20.5t34 17.5t35 14t39.5 11.5t37 9.5t38.5 8.5l48 11v33q0 56 -22.5 89t-61.5 33q-31 0 -49 -20t-18 -50q0 -28 17 -56l-137 -44q-18 36 -18 69q0 67 65 112t167 45q106 0 162.5 -51.5t56.5 -139.5v-173q0 -41 11.5 -55t46.5 -14zM251 73q53 0 74 59
v126l-32 -8q-101 -26 -101 -107q0 -28 17 -49t42 -21z" />
    <glyph glyph-name="adieresis" unicode="&#xe4;" horiz-adv-x="566" 
d="M151 572q-39 0 -64.5 24.5t-25.5 61.5q0 36 25.5 60.5t64.5 24.5t64.5 -24.5t25.5 -60.5q0 -37 -25.5 -61.5t-64.5 -24.5zM377 572q-39 0 -64.5 24.5t-25.5 61.5q0 36 25.5 60.5t64.5 24.5t64.5 -24.5t25.5 -60.5q0 -37 -25.5 -61.5t-64.5 -24.5zM545 91h11v-55l-196 -50
h-35v89q-29 -48 -64 -68.5t-92 -20.5q-66 0 -105.5 40t-39.5 103q0 19 5.5 36t13 30t23.5 25.5t27 20.5t34 17.5t35 14t39.5 11.5t37 9.5t38.5 8.5l48 11v33q0 56 -22.5 89t-61.5 33q-31 0 -49 -20t-18 -50q0 -28 17 -56l-137 -44q-18 36 -18 69q0 67 65 112t167 45
q106 0 162.5 -51.5t56.5 -139.5v-173q0 -41 11.5 -55t46.5 -14zM251 73q53 0 74 59v126l-32 -8q-101 -26 -101 -107q0 -28 17 -49t42 -21z" />
    <glyph glyph-name="aring" unicode="&#xe5;" horiz-adv-x="566" 
d="M267 553q-50 0 -83.5 30.5t-33.5 76.5t33.5 77t83.5 31t83.5 -31t33.5 -77t-33.5 -76.5t-83.5 -30.5zM267 727q-27 0 -45.5 -19t-18.5 -47q0 -30 18.5 -49t45.5 -19q28 0 46.5 19t18.5 49q0 28 -18.5 47t-46.5 19zM545 91h11v-55l-196 -50h-35v89q-29 -48 -64 -68.5
t-92 -20.5q-66 0 -105.5 40t-39.5 103q0 19 5.5 36t13 30t23.5 25.5t27 20.5t34 17.5t35 14t39.5 11.5t37 9.5t38.5 8.5l48 11v33q0 56 -22.5 89t-61.5 33q-31 0 -49 -20t-18 -50q0 -28 17 -56l-137 -44q-18 36 -18 69q0 67 65 112t167 45q106 0 162.5 -51.5t56.5 -139.5
v-173q0 -41 11.5 -55t46.5 -14zM251 73q53 0 74 59v126l-32 -8q-101 -26 -101 -107q0 -28 17 -49t42 -21z" />
    <glyph glyph-name="ae" unicode="&#xe6;" horiz-adv-x="839" 
d="M626 98q44 0 83.5 22.5t57.5 59.5l42 -19q-22 -75 -83.5 -125t-152.5 -50q-146 0 -212 114q-57 -114 -194 -114q-67 0 -105 36.5t-38 98.5q0 33 17 60.5t40.5 45t61 33t66 23.5t68.5 17l48 12v32q0 57 -20.5 90.5t-51.5 33.5q-29 0 -47 -17t-18 -47q0 -14 4 -29.5
t8 -24.5l5 -8l-126 -43q-41 34 -41 86q0 58 70.5 98.5t167.5 40.5q102 0 148 -52q66 52 164 52q112 0 166.5 -69.5t55.5 -190.5h-329q7 -79 45.5 -122.5t99.5 -43.5zM571 466q-37 0 -60.5 -36.5t-28.5 -103.5h169q-5 140 -80 140zM250 73q53 0 94 62q-19 50 -19 108v2v14
l-32 -10q-45 -13 -73 -44.5t-28 -69.5q0 -27 16 -44.5t42 -17.5z" />
    <glyph glyph-name="ccedilla" unicode="&#xe7;" horiz-adv-x="530" 
d="M506 155q-47 -156 -204 -168l-20 -38q85 -20 85 -80q0 -54 -51.5 -75.5t-132.5 -11.5v15q93 -2 93 51q0 37 -73 51l50 88q-108 7 -166 81t-58 181q0 116 68.5 195.5t192.5 79.5q95 0 150.5 -45t61.5 -106l-139 -61q-8 71 -30.5 112.5t-58.5 41.5q-39 0 -64.5 -49.5
t-25.5 -131.5q0 -94 39 -145t106 -51q49 0 85.5 26t49.5 59z" />
    <glyph glyph-name="egrave" unicode="&#xe8;" horiz-adv-x="543" 
d="M254 565l-147 161h182l64 -161h-99zM292 524q112 0 166.5 -69.5t55.5 -190.5h-329q7 -79 45.5 -122.5t99.5 -43.5q44 0 83.5 22.5t57.5 59.5l42 -19q-22 -75 -83.5 -125t-152.5 -50q-120 0 -184 75.5t-64 181.5q0 128 72 204.5t191 76.5zM275 466q-37 0 -60.5 -36.5
t-28.5 -103.5h169q-5 140 -80 140z" />
    <glyph glyph-name="eacute" unicode="&#xe9;" horiz-adv-x="543" 
d="M293 565h-99l64 161h182zM292 524q112 0 166.5 -69.5t55.5 -190.5h-329q7 -79 45.5 -122.5t99.5 -43.5q44 0 83.5 22.5t57.5 59.5l42 -19q-22 -75 -83.5 -125t-152.5 -50q-120 0 -184 75.5t-64 181.5q0 128 72 204.5t191 76.5zM275 466q-37 0 -60.5 -36.5t-28.5 -103.5
h169q-5 140 -80 140z" />
    <glyph glyph-name="ecircumflex" unicode="&#xea;" horiz-adv-x="543" 
d="M272 652l-94 -87h-80l94 161h159l106 -161h-92zM330 98q44 0 83.5 22.5t57.5 59.5l42 -19q-22 -75 -83.5 -125t-152.5 -50q-120 0 -184 75.5t-64 181.5q0 128 72 204.5t191 76.5q112 0 166.5 -69.5t55.5 -190.5h-329q7 -79 45.5 -122.5t99.5 -43.5zM275 466
q-37 0 -60.5 -36.5t-28.5 -103.5h169q-5 140 -80 140z" />
    <glyph glyph-name="edieresis" unicode="&#xeb;" horiz-adv-x="543" 
d="M162 572q-39 0 -64.5 24.5t-25.5 61.5q0 36 25.5 60.5t64.5 24.5t64.5 -24.5t25.5 -60.5q0 -37 -25.5 -61.5t-64.5 -24.5zM388 572q-39 0 -64.5 24.5t-25.5 61.5q0 36 25.5 60.5t64.5 24.5t64.5 -24.5t25.5 -60.5q0 -37 -25.5 -61.5t-64.5 -24.5zM292 524
q112 0 166.5 -69.5t55.5 -190.5h-329q7 -79 45.5 -122.5t99.5 -43.5q44 0 83.5 22.5t57.5 59.5l42 -19q-22 -75 -83.5 -125t-152.5 -50q-120 0 -184 75.5t-64 181.5q0 128 72 204.5t191 76.5zM275 466q-37 0 -60.5 -36.5t-28.5 -103.5h169q-5 140 -80 140z" />
    <glyph glyph-name="igrave" unicode="&#xec;" horiz-adv-x="340" 
d="M241 565h-99l-147 161h182zM247 117q0 -29 12 -41.5t49 -20.5v-55h-284v55q37 8 49 20.5t12 41.5v257q0 23 -10 36t-36 22l-15 5v45l188 42h35v-407z" />
    <glyph glyph-name="iacute" unicode="&#xed;" horiz-adv-x="340" 
d="M328 726l-147 -161h-99l64 161h182zM247 117q0 -29 12 -41.5t49 -20.5v-55h-284v55q37 8 49 20.5t12 41.5v257q0 23 -10 36t-36 22l-15 5v45l188 42h35v-407z" />
    <glyph glyph-name="icircumflex" unicode="&#xee;" horiz-adv-x="340" 
d="M160 652l-94 -87h-80l94 161h159l106 -161h-92zM247 117q0 -29 12 -41.5t49 -20.5v-55h-284v55q37 8 49 20.5t12 41.5v257q0 23 -10 36t-36 22l-15 5v45l188 42h35v-407z" />
    <glyph glyph-name="idieresis" unicode="&#xef;" horiz-adv-x="340" 
d="M140 658q0 -37 -25.5 -61.5t-64.5 -24.5t-64.5 24.5t-25.5 61.5q0 36 25.5 60.5t64.5 24.5t64.5 -24.5t25.5 -60.5zM276 743q39 0 64.5 -24.5t25.5 -60.5q0 -37 -25.5 -61.5t-64.5 -24.5t-64.5 24.5t-25.5 61.5q0 36 25.5 60.5t64.5 24.5zM247 117q0 -29 12 -41.5
t49 -20.5v-55h-284v55q37 8 49 20.5t12 41.5v257q0 23 -10 36t-36 22l-15 5v45l188 42h35v-407z" />
    <glyph glyph-name="eth" unicode="&#xf0;" horiz-adv-x="596" 
d="M363 673q204 -153 204 -409q0 -121 -77.5 -199.5t-194.5 -78.5q-123 0 -194.5 73t-71.5 185q0 122 77 201t195 79q33 0 62 -6q-27 60 -85 115l-145 -68l-23 51l121 57q-46 35 -102 65l15 43q92 -28 165 -72l143 67l23 -51zM308 44q44 0 68 53t24 139q0 101 -31 165.5
t-80 64.5q-44 0 -68 -52t-24 -138q0 -102 31 -167t80 -65z" />
    <glyph glyph-name="ntilde" unicode="&#xf1;" horiz-adv-x="651" 
d="M219 604q-17 0 -25 -10.5t-15 -41.5l-46 9q2 63 36 107.5t81 44.5q30 0 93 -25t86 -25q14 0 22.5 12t17.5 45l47 -9q-5 -67 -37.5 -111t-76.5 -44t-99.5 24t-83.5 24zM566 117q0 -29 12 -41.5t49 -20.5v-55h-272v54q29 8 39 21t10 42v219q0 86 -68 86q-43 0 -89 -52v-253
q0 -29 12 -41.5t49 -20.5v-55h-284v55q37 8 49 20.5t12 41.5v257q0 23 -10 36t-36 22l-15 5v45l188 42h35v-102q66 102 159 102q80 0 120 -45.5t40 -127.5v-234z" />
    <glyph glyph-name="ograve" unicode="&#xf2;" horiz-adv-x="596" 
d="M274 565l-147 161h182l64 -161h-99zM295 -14q-123 0 -194.5 73t-71.5 185q0 122 77 201t195 79q122 0 194 -74t72 -186q0 -121 -77.5 -199.5t-194.5 -78.5zM315 45q42 0 64.5 45t22.5 122q0 109 -34.5 181t-85.5 72q-42 0 -64.5 -45t-22.5 -121q0 -110 34.5 -182
t85.5 -72z" />
    <glyph glyph-name="oacute" unicode="&#xf3;" horiz-adv-x="596" 
d="M313 565h-99l64 161h182zM295 -14q-123 0 -194.5 73t-71.5 185q0 122 77 201t195 79q122 0 194 -74t72 -186q0 -121 -77.5 -199.5t-194.5 -78.5zM315 45q42 0 64.5 45t22.5 122q0 109 -34.5 181t-85.5 72q-42 0 -64.5 -45t-22.5 -121q0 -110 34.5 -182t85.5 -72z" />
    <glyph glyph-name="ocircumflex" unicode="&#xf4;" horiz-adv-x="596" 
d="M292 652l-94 -87h-80l94 161h159l106 -161h-92zM301 524q122 0 194 -74t72 -186q0 -121 -77.5 -199.5t-194.5 -78.5q-123 0 -194.5 73t-71.5 185q0 122 77 201t195 79zM315 45q42 0 64.5 45t22.5 122q0 109 -34.5 181t-85.5 72q-42 0 -64.5 -45t-22.5 -121
q0 -110 34.5 -182t85.5 -72z" />
    <glyph glyph-name="otilde" unicode="&#xf5;" horiz-adv-x="596" 
d="M107 561q2 63 36 107.5t81 44.5q30 0 93 -25t86 -25q14 0 22.5 12t17.5 45l47 -9q-5 -67 -37.5 -111t-76.5 -44t-99.5 24t-83.5 24q-17 0 -25 -10.5t-15 -41.5zM295 -14q-123 0 -194.5 73t-71.5 185q0 122 77 201t195 79q122 0 194 -74t72 -186q0 -121 -77.5 -199.5
t-194.5 -78.5zM315 45q42 0 64.5 45t22.5 122q0 109 -34.5 181t-85.5 72q-42 0 -64.5 -45t-22.5 -121q0 -110 34.5 -182t85.5 -72z" />
    <glyph glyph-name="odieresis" unicode="&#xf6;" horiz-adv-x="596" 
d="M182 572q-39 0 -64.5 24.5t-25.5 61.5q0 36 25.5 60.5t64.5 24.5t64.5 -24.5t25.5 -60.5q0 -37 -25.5 -61.5t-64.5 -24.5zM408 572q-39 0 -64.5 24.5t-25.5 61.5q0 36 25.5 60.5t64.5 24.5t64.5 -24.5t25.5 -60.5q0 -37 -25.5 -61.5t-64.5 -24.5zM295 -14
q-123 0 -194.5 73t-71.5 185q0 122 77 201t195 79q122 0 194 -74t72 -186q0 -121 -77.5 -199.5t-194.5 -78.5zM315 45q42 0 64.5 45t22.5 122q0 109 -34.5 181t-85.5 72q-42 0 -64.5 -45t-22.5 -121q0 -110 34.5 -182t85.5 -72z" />
    <glyph glyph-name="divide" unicode="&#xf7;" horiz-adv-x="490" 
d="M245 444q-29 0 -49.5 20t-20.5 50q0 29 20.5 49.5t49.5 20.5q32 0 51 -20t19 -50t-20.5 -50t-49.5 -20zM24 312v55h442v-55h-442zM245 93q-29 0 -49.5 20t-20.5 50q0 29 20.5 49.5t49.5 20.5q32 0 51 -20t19 -50t-20.5 -50t-49.5 -20z" />
    <glyph glyph-name="oslash" unicode="&#xf8;" horiz-adv-x="596" 
d="M301 524q122 0 194 -74t72 -186q0 -121 -77.5 -199.5t-194.5 -78.5q-123 0 -194.5 73t-71.5 185q0 122 77 201t195 79zM282 465q-42 0 -64.5 -45t-22.5 -121q0 -57 11 -109l141 237q-29 38 -65 38zM315 45q42 0 64.5 45t22.5 122q0 67 -14 121l-144 -241q31 -47 71 -47z
" />
    <glyph glyph-name="ugrave" unicode="&#xf9;" horiz-adv-x="655" 
d="M401 565h-99l-147 161h182zM600 91h31v-55l-196 -50h-35v101q-66 -102 -159 -102q-80 0 -120 45.5t-40 127.5v216q0 23 -10 36t-36 22l-15 5v45l188 42h35v-351q0 -86 68 -86q43 0 89 52v235q0 23 -10 36t-36 22l-15 5v45l188 42h35v-374q0 -32 8.5 -45.5t29.5 -13.5z
" />
    <glyph glyph-name="uacute" unicode="&#xfa;" horiz-adv-x="655" 
d="M488 726l-147 -161h-99l64 161h182zM600 91h31v-55l-196 -50h-35v101q-66 -102 -159 -102q-80 0 -120 45.5t-40 127.5v216q0 23 -10 36t-36 22l-15 5v45l188 42h35v-351q0 -86 68 -86q43 0 89 52v235q0 23 -10 36t-36 22l-15 5v45l188 42h35v-374q0 -32 8.5 -45.5
t29.5 -13.5z" />
    <glyph glyph-name="ucircumflex" unicode="&#xfb;" horiz-adv-x="655" 
d="M320 652l-94 -87h-80l94 161h159l106 -161h-92zM600 91h31v-55l-196 -50h-35v101q-66 -102 -159 -102q-80 0 -120 45.5t-40 127.5v216q0 23 -10 36t-36 22l-15 5v45l188 42h35v-351q0 -86 68 -86q43 0 89 52v235q0 23 -10 36t-36 22l-15 5v45l188 42h35v-374
q0 -32 8.5 -45.5t29.5 -13.5z" />
    <glyph glyph-name="udieresis" unicode="&#xfc;" horiz-adv-x="655" 
d="M210 572q-39 0 -64.5 24.5t-25.5 61.5q0 36 25.5 60.5t64.5 24.5t64.5 -24.5t25.5 -60.5q0 -37 -25.5 -61.5t-64.5 -24.5zM436 572q-39 0 -64.5 24.5t-25.5 61.5q0 36 25.5 60.5t64.5 24.5t64.5 -24.5t25.5 -60.5q0 -37 -25.5 -61.5t-64.5 -24.5zM600 91h31v-55l-196 -50
h-35v101q-66 -102 -159 -102q-80 0 -120 45.5t-40 127.5v216q0 23 -10 36t-36 22l-15 5v45l188 42h35v-351q0 -86 68 -86q43 0 89 52v235q0 23 -10 36t-36 22l-15 5v45l188 42h35v-374q0 -32 8.5 -45.5t29.5 -13.5z" />
    <glyph glyph-name="yacute" unicode="&#xfd;" horiz-adv-x="618" 
d="M334 565h-99l64 161h182zM83 -170l185 182l-201 410q-7 15 -19.5 21.5t-42.5 11.5v55h300v-55q-51 -4 -65 -14.5t-3 -34.5l124 -265l125 265q9 20 -4.5 31t-62.5 18v55h194v-55q-28 -5 -40 -12t-19 -22l-294 -619h-177v28z" />
    <glyph glyph-name="thorn" unicode="&#xfe;" horiz-adv-x="628" 
d="M375 524q108 0 166 -72.5t58 -179.5q0 -130 -71.5 -208t-184.5 -78q-57 0 -96 21v-88q0 -29 17 -42t64 -20v-55h-304v55q37 8 49 20.5t12 41.5v641q0 23 -10 36t-36 22l-15 5v45l188 42h35v-256q20 32 54 51t74 19zM333 51q43 0 70.5 48.5t27.5 135.5q0 86 -27.5 144
t-81.5 58q-27 0 -41.5 -4.5t-33.5 -19.5v-207q0 -82 20 -118.5t66 -36.5z" />
    <glyph glyph-name="ydieresis" unicode="&#xff;" horiz-adv-x="618" 
d="M203 572q-39 0 -64.5 24.5t-25.5 61.5q0 36 25.5 60.5t64.5 24.5t64.5 -24.5t25.5 -60.5q0 -37 -25.5 -61.5t-64.5 -24.5zM429 572q-39 0 -64.5 24.5t-25.5 61.5q0 36 25.5 60.5t64.5 24.5t64.5 -24.5t25.5 -60.5q0 -37 -25.5 -61.5t-64.5 -24.5zM83 -170l185 182
l-201 410q-7 15 -19.5 21.5t-42.5 11.5v55h300v-55q-51 -4 -65 -14.5t-3 -34.5l124 -265l125 265q9 20 -4.5 31t-62.5 18v55h194v-55q-28 -5 -40 -12t-19 -22l-294 -619h-177v28z" />
    <glyph glyph-name="Amacron" unicode="&#x100;" horiz-adv-x="765" 
d="M543 826v-85h-321v85h321zM673 103q11 -27 23 -34.5t59 -13.5v-55h-342v55q60 2 76.5 20t-0.5 52l-31 74h-260l-26 -62q-22 -42 -9 -61.5t87 -22.5v-55h-240v55q40 4 51.5 14.5t30.5 56.5l226 542h121zM221 256h214l-108 256z" />
    <glyph glyph-name="amacron" unicode="&#x101;" horiz-adv-x="566" 
d="M427 668v-85h-321v85h321zM545 91h11v-55l-196 -50h-35v89q-29 -48 -64 -68.5t-92 -20.5q-66 0 -105.5 40t-39.5 103q0 19 5.5 36t13 30t23.5 25.5t27 20.5t34 17.5t35 14t39.5 11.5t37 9.5t38.5 8.5l48 11v33q0 56 -22.5 89t-61.5 33q-31 0 -49 -20t-18 -50
q0 -28 17 -56l-137 -44q-18 36 -18 69q0 67 65 112t167 45q106 0 162.5 -51.5t56.5 -139.5v-173q0 -41 11.5 -55t46.5 -14zM251 73q53 0 74 59v126l-32 -8q-101 -26 -101 -107q0 -28 17 -49t42 -21z" />
    <glyph glyph-name="Abreve" unicode="&#x102;" horiz-adv-x="765" 
d="M383 710q-71 0 -110.5 47.5t-37.5 126.5h47q16 -67 101 -67t101 67h47q2 -79 -37.5 -126.5t-110.5 -47.5zM673 103q11 -27 23 -34.5t59 -13.5v-55h-342v55q60 2 76.5 20t-0.5 52l-31 74h-260l-26 -62q-22 -42 -9 -61.5t87 -22.5v-55h-240v55q40 4 51.5 14.5t30.5 56.5
l226 542h121zM221 256h214l-108 256z" />
    <glyph glyph-name="abreve" unicode="&#x103;" horiz-adv-x="566" 
d="M267 552q-71 0 -110.5 47.5t-37.5 126.5h47q16 -67 101 -67t101 67h47q2 -79 -37.5 -126.5t-110.5 -47.5zM545 91h11v-55l-196 -50h-35v89q-29 -48 -64 -68.5t-92 -20.5q-66 0 -105.5 40t-39.5 103q0 19 5.5 36t13 30t23.5 25.5t27 20.5t34 17.5t35 14t39.5 11.5t37 9.5
t38.5 8.5l48 11v33q0 56 -22.5 89t-61.5 33q-31 0 -49 -20t-18 -50q0 -28 17 -56l-137 -44q-18 36 -18 69q0 67 65 112t167 45q106 0 162.5 -51.5t56.5 -139.5v-173q0 -41 11.5 -55t46.5 -14zM251 73q53 0 74 59v126l-32 -8q-101 -26 -101 -107q0 -28 17 -49t42 -21z" />
    <glyph glyph-name="Aogonek" unicode="&#x104;" horiz-adv-x="765" 
d="M755 0h-139q-58 -68 -58 -112q0 -36 31 -49t77 12l10 -20q-17 -18 -52.5 -30.5t-66.5 -12.5q-51 0 -83.5 19t-32.5 53q0 67 118 140h-146v55q60 2 76.5 20t-0.5 52l-31 74h-260l-26 -62q-22 -42 -9 -61.5t87 -22.5v-55h-240v55q40 4 51.5 14.5t30.5 56.5l226 542h121
l234 -565q11 -27 23 -34.5t59 -13.5v-55zM221 256h214l-108 256z" />
    <glyph glyph-name="aogonek" unicode="&#x105;" horiz-adv-x="566" 
d="M574 -149l10 -20q-17 -18 -52.5 -30.5t-66.5 -12.5q-51 0 -83.5 19t-32.5 53q0 77 159 164l-148 -38h-35v89q-29 -48 -64 -68.5t-92 -20.5q-66 0 -105.5 40t-39.5 103q0 19 5.5 36t13 30t23.5 25.5t27 20.5t34 17.5t35 14t39.5 11.5t37 9.5t38.5 8.5l48 11v33
q0 56 -22.5 89t-61.5 33q-31 0 -49 -20t-18 -50q0 -28 17 -56l-137 -44q-18 36 -18 69q0 67 65 112t167 45q106 0 162.5 -51.5t56.5 -139.5v-173q0 -41 11.5 -55t46.5 -14h11v-55q-90 -95 -90 -148q0 -36 31 -49t77 12zM251 73q53 0 74 59v126l-32 -8q-101 -26 -101 -107
q0 -28 17 -49t42 -21z" />
    <glyph glyph-name="Cacute" unicode="&#x106;" horiz-adv-x="680" 
d="M388 723h-99l64 161h182zM412 91q75 0 129 35t74 75l42 -20q-10 -30 -29.5 -60.5t-52 -62.5t-84 -52t-112.5 -20q-160 0 -256 94.5t-98 238.5q-2 157 91.5 259.5t257.5 102.5q113 0 189 -44t94 -101l-158 -86q-17 83 -53 127.5t-81 44.5q-77 0 -121.5 -72t-43.5 -204
q1 -121 64 -188t148 -67z" />
    <glyph glyph-name="cacute" unicode="&#x107;" horiz-adv-x="530" 
d="M303 565h-99l64 161h182zM290 524q95 0 150.5 -45t61.5 -106l-139 -61q-8 71 -30.5 112.5t-58.5 41.5q-39 0 -64.5 -49.5t-25.5 -131.5q0 -94 39 -145t106 -51q49 0 85.5 26t49.5 59l42 -19q-25 -83 -84.5 -126t-145.5 -43q-119 0 -183 75.5t-64 187.5q0 116 68.5 195.5
t192.5 79.5z" />
    <glyph glyph-name="Ccircumflex" unicode="&#x108;" horiz-adv-x="680" 
d="M367 810l-94 -87h-80l94 161h159l106 -161h-92zM412 91q75 0 129 35t74 75l42 -20q-10 -30 -29.5 -60.5t-52 -62.5t-84 -52t-112.5 -20q-160 0 -256 94.5t-98 238.5q-2 157 91.5 259.5t257.5 102.5q113 0 189 -44t94 -101l-158 -86q-17 83 -53 127.5t-81 44.5
q-77 0 -121.5 -72t-43.5 -204q1 -121 64 -188t148 -67z" />
    <glyph glyph-name="ccircumflex" unicode="&#x109;" horiz-adv-x="530" 
d="M282 652l-94 -87h-80l94 161h159l106 -161h-92zM464 174l42 -19q-25 -83 -84.5 -126t-145.5 -43q-119 0 -183 75.5t-64 187.5q0 116 68.5 195.5t192.5 79.5q95 0 150.5 -45t61.5 -106l-139 -61q-8 71 -30.5 112.5t-58.5 41.5q-39 0 -64.5 -49.5t-25.5 -131.5
q0 -94 39 -145t106 -51q49 0 85.5 26t49.5 59z" />
    <glyph glyph-name="Cdotaccent" unicode="&#x10a;" horiz-adv-x="680" 
d="M374 731q-43 0 -71.5 27.5t-28.5 68.5q0 40 28.5 67t71.5 27t71.5 -27t28.5 -67q0 -41 -28.5 -68.5t-71.5 -27.5zM412 91q75 0 129 35t74 75l42 -20q-10 -30 -29.5 -60.5t-52 -62.5t-84 -52t-112.5 -20q-160 0 -256 94.5t-98 238.5q-2 157 91.5 259.5t257.5 102.5
q113 0 189 -44t94 -101l-158 -86q-17 83 -53 127.5t-81 44.5q-77 0 -121.5 -72t-43.5 -204q1 -121 64 -188t148 -67z" />
    <glyph glyph-name="cdotaccent" unicode="&#x10b;" horiz-adv-x="530" 
d="M289 573q-43 0 -71.5 27.5t-28.5 68.5q0 40 28.5 67t71.5 27t71.5 -27t28.5 -67q0 -41 -28.5 -68.5t-71.5 -27.5zM290 524q95 0 150.5 -45t61.5 -106l-139 -61q-8 71 -30.5 112.5t-58.5 41.5q-39 0 -64.5 -49.5t-25.5 -131.5q0 -94 39 -145t106 -51q49 0 85.5 26t49.5 59
l42 -19q-25 -83 -84.5 -126t-145.5 -43q-119 0 -183 75.5t-64 187.5q0 116 68.5 195.5t192.5 79.5z" />
    <glyph glyph-name="Ccaron" unicode="&#x10c;" horiz-adv-x="680" 
d="M446 723h-159l-94 161h80l94 -87l93 87h92zM412 91q75 0 129 35t74 75l42 -20q-10 -30 -29.5 -60.5t-52 -62.5t-84 -52t-112.5 -20q-160 0 -256 94.5t-98 238.5q-2 157 91.5 259.5t257.5 102.5q113 0 189 -44t94 -101l-158 -86q-17 83 -53 127.5t-81 44.5
q-77 0 -121.5 -72t-43.5 -204q1 -121 64 -188t148 -67z" />
    <glyph glyph-name="ccaron" unicode="&#x10d;" horiz-adv-x="530" 
d="M361 565h-159l-94 161h80l94 -87l93 87h92zM464 174l42 -19q-25 -83 -84.5 -126t-145.5 -43q-119 0 -183 75.5t-64 187.5q0 116 68.5 195.5t192.5 79.5q95 0 150.5 -45t61.5 -106l-139 -61q-8 71 -30.5 112.5t-58.5 41.5q-39 0 -64.5 -49.5t-25.5 -131.5q0 -94 39 -145
t106 -51q49 0 85.5 26t49.5 59z" />
    <glyph glyph-name="Dcaron" unicode="&#x10e;" horiz-adv-x="746" 
d="M448 723h-159l-94 161h80l94 -87l93 87h92zM340 668q100 0 176.5 -26t121 -71t67 -99.5t22.5 -115.5q0 -160 -111 -258t-262 -98h-330v55q49 7 67.5 23t18.5 41v422q0 38 -17.5 53t-68.5 19v55h316zM354 55q90 0 143.5 71t53.5 208q0 116 -63 197.5t-165 81.5h-46v-513
q0 -24 16.5 -34.5t60.5 -10.5z" />
    <glyph glyph-name="dcaron" unicode="&#x10f;" horiz-adv-x="702" 
d="M603 766h142l-87 -201h-75zM538 150q0 -32 8.5 -45.5t29.5 -13.5h31v-55l-196 -50h-35v92q-20 -46 -53.5 -69t-74.5 -23q-108 0 -166 72.5t-58 179.5q0 130 71.5 208t184.5 78q57 0 96 -21v57q0 23 -10 36t-36 22l-15 5v45l188 42h35v-560zM301 73q25 0 46 18t29 45v168
q0 82 -20 118.5t-66 36.5q-43 0 -70.5 -48.5t-27.5 -135.5q0 -86 27.5 -144t81.5 -58z" />
    <glyph glyph-name="Dcroat" unicode="&#x110;" horiz-adv-x="746" 
d="M340 668q100 0 176.5 -26t121 -71t67 -99.5t22.5 -115.5q0 -160 -111 -258t-262 -98h-330v55q49 7 67.5 23t18.5 41v187h-91v55h91v180q0 38 -17.5 53t-68.5 19v55h316zM354 55q90 0 143.5 71t53.5 208q0 116 -63 197.5t-165 81.5h-46v-252h122v-55h-122v-206
q0 -24 16.5 -34.5t60.5 -10.5z" />
    <glyph glyph-name="dcroat" unicode="&#x111;" horiz-adv-x="631" 
d="M538 150q0 -32 8.5 -45.5t29.5 -13.5h31v-55l-196 -50h-35v70q-20 -32 -54 -51t-74 -19q-108 0 -166 72.5t-58 179.5q0 130 71.5 208t184.5 78q57 0 96 -21v65h-109v55h109v45l127 42h35v-87h109v-55h-109v-418zM301 73q27 0 41.5 4.5t33.5 19.5v207q0 82 -20 118.5
t-66 36.5q-43 0 -70.5 -48.5t-27.5 -135.5q0 -86 27.5 -144t81.5 -58z" />
    <glyph glyph-name="Emacron" unicode="&#x112;" horiz-adv-x="617" 
d="M488 826v-85h-321v85h321zM538 172h55l-10 -172h-559v55q49 7 67.5 23t18.5 41v422q0 38 -17.5 53t-68.5 19v55h550l12 -171h-55q-23 71 -50 93.5t-68 22.5h-135v-243h72q21 0 37.5 22.5t19.5 65.5h55v-231h-55q-3 44 -19.5 66t-37.5 22h-72v-215q0 -24 16.5 -34.5
t60.5 -10.5h67q38 0 65.5 25t50.5 92z" />
    <glyph glyph-name="emacron" unicode="&#x113;" horiz-adv-x="543" 
d="M117 583v85h321v-85h-321zM292 524q112 0 166.5 -69.5t55.5 -190.5h-329q7 -79 45.5 -122.5t99.5 -43.5q44 0 83.5 22.5t57.5 59.5l42 -19q-22 -75 -83.5 -125t-152.5 -50q-120 0 -184 75.5t-64 181.5q0 128 72 204.5t191 76.5zM275 466q-37 0 -60.5 -36.5t-28.5 -103.5
h169q-5 140 -80 140z" />
    <glyph glyph-name="Ebreve" unicode="&#x114;" horiz-adv-x="617" 
d="M328 710q-71 0 -110.5 47.5t-37.5 126.5h47q16 -67 101 -67t101 67h47q2 -79 -37.5 -126.5t-110.5 -47.5zM538 172h55l-10 -172h-559v55q49 7 67.5 23t18.5 41v422q0 38 -17.5 53t-68.5 19v55h550l12 -171h-55q-23 71 -50 93.5t-68 22.5h-135v-243h72q21 0 37.5 22.5
t19.5 65.5h55v-231h-55q-3 44 -19.5 66t-37.5 22h-72v-215q0 -24 16.5 -34.5t60.5 -10.5h67q38 0 65.5 25t50.5 92z" />
    <glyph glyph-name="ebreve" unicode="&#x115;" horiz-adv-x="543" 
d="M278 552q-71 0 -110.5 47.5t-37.5 126.5h47q16 -67 101 -67t101 67h47q2 -79 -37.5 -126.5t-110.5 -47.5zM292 524q112 0 166.5 -69.5t55.5 -190.5h-329q7 -79 45.5 -122.5t99.5 -43.5q44 0 83.5 22.5t57.5 59.5l42 -19q-22 -75 -83.5 -125t-152.5 -50q-120 0 -184 75.5
t-64 181.5q0 128 72 204.5t191 76.5zM275 466q-37 0 -60.5 -36.5t-28.5 -103.5h169q-5 140 -80 140z" />
    <glyph glyph-name="Edotaccent" unicode="&#x116;" horiz-adv-x="617" 
d="M329 731q-43 0 -71.5 27.5t-28.5 68.5q0 40 28.5 67t71.5 27t71.5 -27t28.5 -67q0 -41 -28.5 -68.5t-71.5 -27.5zM538 172h55l-10 -172h-559v55q49 7 67.5 23t18.5 41v422q0 38 -17.5 53t-68.5 19v55h550l12 -171h-55q-23 71 -50 93.5t-68 22.5h-135v-243h72
q21 0 37.5 22.5t19.5 65.5h55v-231h-55q-3 44 -19.5 66t-37.5 22h-72v-215q0 -24 16.5 -34.5t60.5 -10.5h67q38 0 65.5 25t50.5 92z" />
    <glyph glyph-name="edotaccent" unicode="&#x117;" horiz-adv-x="543" 
d="M279 573q-43 0 -71.5 27.5t-28.5 68.5q0 40 28.5 67t71.5 27t71.5 -27t28.5 -67q0 -41 -28.5 -68.5t-71.5 -27.5zM292 524q112 0 166.5 -69.5t55.5 -190.5h-329q7 -79 45.5 -122.5t99.5 -43.5q44 0 83.5 22.5t57.5 59.5l42 -19q-22 -75 -83.5 -125t-152.5 -50
q-120 0 -184 75.5t-64 181.5q0 128 72 204.5t191 76.5zM275 466q-37 0 -60.5 -36.5t-28.5 -103.5h169q-5 140 -80 140z" />
    <glyph glyph-name="Eogonek" unicode="&#x118;" horiz-adv-x="617" 
d="M583 0h-115q-58 -68 -58 -112q0 -36 31 -49t77 12l10 -20q-17 -18 -52.5 -30.5t-66.5 -12.5q-51 0 -83.5 19t-32.5 53q0 67 118 140h-387v55q49 7 67.5 23t18.5 41v422q0 38 -17.5 53t-68.5 19v55h550l12 -171h-55q-23 71 -50 93.5t-68 22.5h-135v-243h72q21 0 37.5 22.5
t19.5 65.5h55v-231h-55q-3 44 -19.5 66t-37.5 22h-72v-215q0 -24 16.5 -34.5t60.5 -10.5h67q38 0 65.5 25t50.5 92h55z" />
    <glyph glyph-name="eogonek" unicode="&#x119;" horiz-adv-x="543" 
d="M513 161q-23 -79 -85 -126q-89 -94 -89 -147q0 -36 31 -49t77 12l10 -20q-17 -18 -52.5 -30.5t-66.5 -12.5q-51 0 -83.5 19t-32.5 53q0 64 102 130q-20 -4 -47 -4q-120 0 -184 75.5t-64 181.5q0 128 72 204.5t191 76.5q112 0 166.5 -69.5t55.5 -190.5h-329
q7 -79 45.5 -122.5t99.5 -43.5q44 0 83.5 22.5t57.5 59.5zM275 466q-37 0 -60.5 -36.5t-28.5 -103.5h169q-5 140 -80 140z" />
    <glyph glyph-name="Ecaron" unicode="&#x11a;" horiz-adv-x="617" 
d="M401 723h-159l-94 161h80l94 -87l93 87h92zM538 172h55l-10 -172h-559v55q49 7 67.5 23t18.5 41v422q0 38 -17.5 53t-68.5 19v55h550l12 -171h-55q-23 71 -50 93.5t-68 22.5h-135v-243h72q21 0 37.5 22.5t19.5 65.5h55v-231h-55q-3 44 -19.5 66t-37.5 22h-72v-215
q0 -24 16.5 -34.5t60.5 -10.5h67q38 0 65.5 25t50.5 92z" />
    <glyph glyph-name="ecaron" unicode="&#x11b;" horiz-adv-x="543" 
d="M351 565h-159l-94 161h80l94 -87l93 87h92zM330 98q44 0 83.5 22.5t57.5 59.5l42 -19q-22 -75 -83.5 -125t-152.5 -50q-120 0 -184 75.5t-64 181.5q0 128 72 204.5t191 76.5q112 0 166.5 -69.5t55.5 -190.5h-329q7 -79 45.5 -122.5t99.5 -43.5zM275 466
q-37 0 -60.5 -36.5t-28.5 -103.5h169q-5 140 -80 140z" />
    <glyph glyph-name="Gcircumflex" unicode="&#x11c;" horiz-adv-x="769" 
d="M379 810l-94 -87h-80l94 161h159l106 -161h-92zM408 357h353v-55q-52 -4 -72 -20t-20 -53v-107q-43 -61 -123.5 -98.5t-168.5 -37.5q-159 0 -254.5 95t-97.5 238q-2 157 91 259.5t256 102.5q123 0 201.5 -37.5t99.5 -107.5l-158 -86q-18 90 -55 131t-98 41
q-76 0 -119 -71.5t-42 -204.5q1 -123 65 -203t155 -80q40 0 80 14v152q0 37 -19.5 53t-73.5 20v55z" />
    <glyph glyph-name="gcircumflex" unicode="&#x11d;" horiz-adv-x="608" 
d="M289 652l-94 -87h-80l94 161h159l106 -161h-92zM472 524h71v-512q0 -103 -68 -163.5t-202 -60.5q-92 0 -153 26t-80 60l154 76q14 -43 39.5 -72.5t61.5 -29.5q39 0 62.5 34.5t23.5 105.5v68q-20 -32 -54 -51t-74 -19q-108 0 -166 72.5t-58 179.5q0 130 71.5 208t184.5 78
q98 0 140 -59zM381 304q0 82 -20 118.5t-66 36.5q-43 0 -70.5 -48.5t-27.5 -135.5q0 -86 27.5 -144t81.5 -58q27 0 41.5 4.5t33.5 19.5v207z" />
    <glyph glyph-name="Gbreve" unicode="&#x11e;" horiz-adv-x="769" 
d="M385 710q-71 0 -110.5 47.5t-37.5 126.5h47q16 -67 101 -67t101 67h47q2 -79 -37.5 -126.5t-110.5 -47.5zM761 357v-55q-52 -4 -72 -20t-20 -53v-107q-43 -61 -123.5 -98.5t-168.5 -37.5q-159 0 -254.5 95t-97.5 238q-2 157 91 259.5t256 102.5q123 0 201.5 -37.5
t99.5 -107.5l-158 -86q-18 90 -55 131t-98 41q-76 0 -119 -71.5t-42 -204.5q1 -123 65 -203t155 -80q40 0 80 14v152q0 37 -19.5 53t-73.5 20v55h353z" />
    <glyph glyph-name="gbreve" unicode="&#x11f;" horiz-adv-x="608" 
d="M295 552q-71 0 -110.5 47.5t-37.5 126.5h47q16 -67 101 -67t101 67h47q2 -79 -37.5 -126.5t-110.5 -47.5zM472 524h71v-512q0 -103 -68 -163.5t-202 -60.5q-92 0 -153 26t-80 60l154 76q14 -43 39.5 -72.5t61.5 -29.5q39 0 62.5 34.5t23.5 105.5v68q-20 -32 -54 -51
t-74 -19q-108 0 -166 72.5t-58 179.5q0 130 71.5 208t184.5 78q98 0 140 -59zM381 304q0 82 -20 118.5t-66 36.5q-43 0 -70.5 -48.5t-27.5 -135.5q0 -86 27.5 -144t81.5 -58q27 0 41.5 4.5t33.5 19.5v207z" />
    <glyph glyph-name="Gdotaccent" unicode="&#x120;" horiz-adv-x="769" 
d="M386 731q-43 0 -71.5 27.5t-28.5 68.5q0 40 28.5 67t71.5 27t71.5 -27t28.5 -67q0 -41 -28.5 -68.5t-71.5 -27.5zM761 357v-55q-52 -4 -72 -20t-20 -53v-107q-43 -61 -123.5 -98.5t-168.5 -37.5q-159 0 -254.5 95t-97.5 238q-2 157 91 259.5t256 102.5q123 0 201.5 -37.5
t99.5 -107.5l-158 -86q-18 90 -55 131t-98 41q-76 0 -119 -71.5t-42 -204.5q1 -123 65 -203t155 -80q40 0 80 14v152q0 37 -19.5 53t-73.5 20v55h353z" />
    <glyph glyph-name="gdotaccent" unicode="&#x121;" horiz-adv-x="608" 
d="M296 573q-43 0 -71.5 27.5t-28.5 68.5q0 40 28.5 67t71.5 27t71.5 -27t28.5 -67q0 -41 -28.5 -68.5t-71.5 -27.5zM472 524h71v-512q0 -103 -68 -163.5t-202 -60.5q-92 0 -153 26t-80 60l154 76q14 -43 39.5 -72.5t61.5 -29.5q39 0 62.5 34.5t23.5 105.5v68
q-20 -32 -54 -51t-74 -19q-108 0 -166 72.5t-58 179.5q0 130 71.5 208t184.5 78q98 0 140 -59zM381 304q0 82 -20 118.5t-66 36.5q-43 0 -70.5 -48.5t-27.5 -135.5q0 -86 27.5 -144t81.5 -58q27 0 41.5 4.5t33.5 19.5v207z" />
    <glyph glyph-name="uni0122" unicode="&#x122;" horiz-adv-x="769" 
d="M761 357v-55q-52 -4 -72 -20t-20 -53v-107q-43 -61 -123.5 -98.5t-168.5 -37.5q-159 0 -254.5 95t-97.5 238q-2 157 91 259.5t256 102.5q123 0 201.5 -37.5t99.5 -107.5l-158 -86q-18 90 -55 131t-98 41q-76 0 -119 -71.5t-42 -204.5q1 -123 65 -203t155 -80q40 0 80 14
v152q0 37 -19.5 53t-73.5 20v55h353zM481 -35q19 -72 -31.5 -125.5t-129.5 -81.5l-27 20q26 31 30.5 87t-19.5 90z" />
    <glyph glyph-name="uni0123" unicode="&#x123;" horiz-adv-x="608" 
d="M385 570l-177 -10q-19 72 31.5 125.5t129.5 81.5l27 -20q-26 -31 -30.5 -87t19.5 -90zM472 524h71v-512q0 -103 -68 -163.5t-202 -60.5q-92 0 -153 26t-80 60l154 76q14 -43 39.5 -72.5t61.5 -29.5q39 0 62.5 34.5t23.5 105.5v68q-20 -32 -54 -51t-74 -19
q-108 0 -166 72.5t-58 179.5q0 130 71.5 208t184.5 78q98 0 140 -59zM381 304q0 82 -20 118.5t-66 36.5q-43 0 -70.5 -48.5t-27.5 -135.5q0 -86 27.5 -144t81.5 -58q27 0 41.5 4.5t33.5 19.5v207z" />
    <glyph glyph-name="Hcircumflex" unicode="&#x124;" horiz-adv-x="831" 
d="M410 810l-94 -87h-80l94 161h159l106 -161h-92zM807 613q-50 -4 -68.5 -19.5t-18.5 -52.5v-422q0 -25 19.5 -41t67.5 -23v-55h-343v55q49 7 68.5 23t19.5 41v195h-274v-195q0 -25 19 -41t68 -23v-55h-341v55q49 7 67.5 23t18.5 41v422q0 38 -17.5 53t-68.5 19v55h341v-55
q-51 -4 -69 -19.5t-18 -52.5v-172h274v172q0 37 -18.5 52.5t-69.5 19.5v55h343v-55z" />
    <glyph glyph-name="hcircumflex" unicode="&#x125;" horiz-adv-x="647" 
d="M160 810l-94 -87h-80l94 161h159l106 -161h-92zM566 117q0 -29 12 -41.5t49 -20.5v-55h-272v54q29 8 39 21t10 42v219q0 86 -68 86q-43 0 -89 -52v-253q0 -29 12 -41.5t49 -20.5v-55h-284v55q37 8 49 20.5t12 41.5v443q0 23 -10 36.5t-35 21.5l-16 5v45l188 42h35v-288
q66 102 159 102q80 0 120 -45.5t40 -127.5v-234z" />
    <glyph glyph-name="Hbar" unicode="&#x126;" horiz-adv-x="831" 
d="M841 466h-121v-347q0 -25 19.5 -41t67.5 -23v-55h-343v55q49 7 68.5 23t19.5 41v195h-274v-195q0 -25 19 -41t68 -23v-55h-341v55q49 7 67.5 23t18.5 41v347h-119v55h119v20q0 38 -17.5 53t-68.5 19v55h341v-55q-51 -4 -69 -19.5t-18 -52.5v-20h274v20q0 37 -18.5 52.5
t-69.5 19.5v55h343v-55q-50 -4 -68.5 -19.5t-18.5 -52.5v-20h121v-55zM552 369v97h-274v-97h274z" />
    <glyph glyph-name="hbar" unicode="&#x127;" horiz-adv-x="647" 
d="M566 117q0 -29 12 -41.5t49 -20.5v-55h-272v55q29 8 39 20.5t10 41.5v197q0 74 -15 100.5t-53 26.5q-25 0 -49.5 -12t-39.5 -29v-283q0 -29 12 -41.5t49 -20.5v-55h-284v55q37 8 49 20.5t12 41.5v451h-109v55h109v45l127 42h35v-87h109v-55h-109v-127q26 37 71 60t88 23
q160 0 160 -174v-233z" />
    <glyph glyph-name="Itilde" unicode="&#x128;" horiz-adv-x="388" 
d="M3 719q2 63 36 107.5t81 44.5q30 0 93 -25t86 -25q14 0 22.5 12t17.5 45l47 -9q-5 -67 -37.5 -111t-76.5 -44t-99.5 24t-83.5 24q-17 0 -25 -10.5t-15 -41.5zM364 668v-55q-51 -4 -68.5 -19t-17.5 -53v-422q0 -25 18.5 -41t67.5 -23v-55h-340v55q49 7 67.5 23t18.5 41
v422q0 38 -17.5 53t-68.5 19v55h340z" />
    <glyph glyph-name="itilde" unicode="&#x129;" horiz-adv-x="340" 
d="M61 604q-17 0 -25 -10.5t-15 -41.5l-46 9q2 63 36 107.5t81 44.5q30 0 93 -25t86 -25q14 0 22.5 12t17.5 45l47 -9q-5 -67 -37.5 -111t-76.5 -44t-99.5 24t-83.5 24zM247 117q0 -29 12 -41.5t49 -20.5v-55h-284v55q37 8 49 20.5t12 41.5v257q0 23 -10 36t-36 22l-15 5v45
l188 42h35v-407z" />
    <glyph glyph-name="Imacron" unicode="&#x12a;" horiz-adv-x="388" 
d="M33 741v85h321v-85h-321zM364 668v-55q-51 -4 -68.5 -19t-17.5 -53v-422q0 -25 18.5 -41t67.5 -23v-55h-340v55q49 7 67.5 23t18.5 41v422q0 38 -17.5 53t-68.5 19v55h340z" />
    <glyph glyph-name="imacron" unicode="&#x12b;" horiz-adv-x="340" 
d="M5 668h321v-85h-321v85zM247 117q0 -29 12 -41.5t49 -20.5v-55h-284v55q37 8 49 20.5t12 41.5v257q0 23 -10 36t-36 22l-15 5v45l188 42h35v-407z" />
    <glyph glyph-name="Ibreve" unicode="&#x12c;" horiz-adv-x="388" 
d="M194 710q-71 0 -110.5 47.5t-37.5 126.5h47q16 -67 101 -67t101 67h47q2 -79 -37.5 -126.5t-110.5 -47.5zM364 668v-55q-51 -4 -68.5 -19t-17.5 -53v-422q0 -25 18.5 -41t67.5 -23v-55h-340v55q49 7 67.5 23t18.5 41v422q0 38 -17.5 53t-68.5 19v55h340z" />
    <glyph glyph-name="ibreve" unicode="&#x12d;" horiz-adv-x="340" 
d="M166 552q-71 0 -110.5 47.5t-37.5 126.5h47q16 -67 101 -67t101 67h47q2 -79 -37.5 -126.5t-110.5 -47.5zM247 117q0 -29 12 -41.5t49 -20.5v-55h-284v55q37 8 49 20.5t12 41.5v257q0 23 -10 36t-36 22l-15 5v45l188 42h35v-407z" />
    <glyph glyph-name="Iogonek" unicode="&#x12e;" horiz-adv-x="388" 
d="M364 613q-51 -4 -68.5 -19t-17.5 -53v-422q0 -25 18.5 -41t67.5 -23v-55h-113q-58 -68 -58 -112q0 -36 31 -49t77 12l10 -20q-17 -18 -52.5 -30.5t-66.5 -12.5q-51 0 -83.5 19t-32.5 53q0 67 118 140h-170v55q49 7 67.5 23t18.5 41v422q0 38 -17.5 53t-68.5 19v55h340
v-55z" />
    <glyph glyph-name="iogonek" unicode="&#x12f;" horiz-adv-x="340" 
d="M167 573q-43 0 -71.5 27.5t-28.5 68.5q0 40 28.5 67t71.5 27t71.5 -27t28.5 -67q0 -41 -28.5 -68.5t-71.5 -27.5zM326 -149l10 -20q-17 -18 -52.5 -30.5t-66.5 -12.5q-50 0 -80.5 24t-30.5 64t39.5 72t97.5 52h-219v55q37 8 49 20.5t12 41.5v257q0 23 -10 36t-36 22
l-15 5v45l188 42h35v-407q0 -29 12 -41.5t49 -20.5v-55q-83 -40 -83 -102q0 -39 24.5 -54t76.5 7z" />
    <glyph glyph-name="Idotaccent" unicode="&#x130;" horiz-adv-x="388" 
d="M195 731q-43 0 -71.5 27.5t-28.5 68.5q0 40 28.5 67t71.5 27t71.5 -27t28.5 -67q0 -41 -28.5 -68.5t-71.5 -27.5zM364 668v-55q-51 -4 -68.5 -19t-17.5 -53v-422q0 -25 18.5 -41t67.5 -23v-55h-340v55q49 7 67.5 23t18.5 41v422q0 38 -17.5 53t-68.5 19v55h340z" />
    <glyph glyph-name="dotlessi" unicode="&#x131;" horiz-adv-x="340" 
d="M247 117q0 -29 12 -41.5t49 -20.5v-55h-284v55q37 8 49 20.5t12 41.5v257q0 23 -10 36t-36 22l-15 5v45l188 42h35v-407z" />
    <glyph glyph-name="IJ" unicode="&#x132;" horiz-adv-x="981" 
d="M364 668v-55q-51 -4 -68.5 -19t-17.5 -53v-422q0 -25 18.5 -41t67.5 -23v-55h-340v55q49 7 67.5 23t18.5 41v422q0 38 -17.5 53t-68.5 19v55h340zM957 668v-55q-51 -4 -68.5 -19t-17.5 -53v-351q0 -97 -65.5 -150.5t-184.5 -53.5q-101 0 -167.5 43t-75.5 110l173 44
q0 -66 23 -106t54 -40q75 0 75 129v375q0 38 -17.5 53t-68.5 19v55h340z" />
    <glyph glyph-name="ij" unicode="&#x133;" horiz-adv-x="642" 
d="M167 573q-43 0 -71.5 27.5t-28.5 68.5q0 40 28.5 67t71.5 27t71.5 -27t28.5 -67q0 -41 -28.5 -68.5t-71.5 -27.5zM485 573q-43 0 -71.5 27.5t-28.5 68.5q0 40 28.5 67t71.5 27t71.5 -27t28.5 -67q0 -41 -28.5 -68.5t-71.5 -27.5zM308 55v-55h-284v55q37 8 49 20.5
t12 41.5v257q0 23 -10 36t-36 22l-15 5v45l188 42h35v-407q0 -29 12 -41.5t49 -20.5zM349 482l188 42h35v-450q0 -47 -10 -85t-36.5 -76.5t-78 -69.5t-128.5 -53l-22 53q27 15 39 22.5t29.5 25t25 37t13.5 53t6 78.5v315q0 23 -10 36t-36 22l-15 5v45z" />
    <glyph glyph-name="Jcircumflex" unicode="&#x134;" horiz-adv-x="613" 
d="M406 810l-94 -87h-80l94 161h159l106 -161h-92zM249 613v55h340v-55q-51 -4 -68.5 -19t-17.5 -53v-351q0 -97 -65.5 -150.5t-184.5 -53.5q-101 0 -167.5 43t-75.5 110l173 44q0 -66 23 -106t54 -40q75 0 75 129v375q0 38 -17.5 53t-68.5 19z" />
    <glyph glyph-name="jcircumflex" unicode="&#x135;" horiz-adv-x="302" 
d="M138 652l-94 -87h-80l94 161h159l106 -161h-92zM9 482l188 42h35v-450q0 -47 -10 -85t-36.5 -76.5t-78 -69.5t-128.5 -53l-22 53q27 15 39 22.5t29.5 25t25 37t13.5 53t6 78.5v315q0 23 -10 36t-36 22l-15 5v45z" />
    <glyph glyph-name="uni0136" unicode="&#x136;" horiz-adv-x="795" 
d="M685 100q16 -25 35.5 -33.5t64.5 -11.5v-55h-238l-205 320l-60 -54v-147q0 -25 19.5 -41t70.5 -23v-55h-348v55q50 7 70 23t20 41v422q0 37 -19 52.5t-71 19.5v55h348v-55q-53 -4 -71.5 -19.5t-18.5 -52.5v-201l235 212q67 61 -45 61v55h255v-55q-43 -3 -62.5 -11.5
t-43.5 -29.5l-153 -138zM302 -45l177 10q19 -72 -31.5 -125.5t-129.5 -81.5l-27 20q26 31 30.5 87t-19.5 90z" />
    <glyph glyph-name="uni0137" unicode="&#x137;" horiz-adv-x="646" 
d="M552 109q11 -18 17 -25t23.5 -16.5t43.5 -12.5v-55h-215l-130 233l-47 -40v-76q0 -19 2.5 -28t15.5 -18.5t40 -15.5v-55h-278v55q35 8 46.5 21t11.5 41v443q0 14 -1.5 22.5t-11.5 18.5t-30 17l-15 5v45l185 42h35v-444l153 130q14 12 20.5 18t12 15.5t1.5 14t-18.5 8
t-41.5 3.5v55h226v-55q-30 0 -45.5 -6t-37.5 -25l-100 -86zM243 -45l177 10q19 -72 -31.5 -125.5t-129.5 -81.5l-27 20q26 31 30.5 87t-19.5 90z" />
    <glyph glyph-name="kgreenlandic" unicode="&#x138;" horiz-adv-x="674" 
d="M573 109q17 -26 35.5 -38t53.5 -16v-55h-219l-140 228l-56 -46v-65q0 -29 12 -41.5t49 -20.5v-55h-284v55q37 8 49 20.5t12 41.5v285q0 23 -10 36t-36 22l-15 5v45h223v-257l176 143q36 26 34.5 42.5t-61.5 16.5v55h235v-55q-32 0 -48.5 -6t-39.5 -25l-115 -94z" />
    <glyph glyph-name="Lacute" unicode="&#x139;" horiz-adv-x="608" 
d="M209 723h-99l64 161h182zM593 172l-10 -172h-559v55q49 7 67.5 23t18.5 41v422q0 38 -17.5 53t-68.5 19v55h340v-55q-51 -4 -68.5 -19t-17.5 -53v-441q0 -24 16 -34.5t60 -10.5h68q38 0 65.5 25t50.5 92h55z" />
    <glyph glyph-name="lacute" unicode="&#x13a;" horiz-adv-x="324" 
d="M181 723h-99l64 161h182zM247 710v-593q0 -29 12 -41.5t49 -20.5v-55h-284v55q37 8 49 20.5t12 41.5v443q0 23 -10 36t-36 22l-15 5v45l188 42h35z" />
    <glyph glyph-name="uni013B" unicode="&#x13b;" horiz-adv-x="608" 
d="M593 172l-10 -172h-559v55q49 7 67.5 23t18.5 41v422q0 38 -17.5 53t-68.5 19v55h340v-55q-51 -4 -68.5 -19t-17.5 -53v-441q0 -24 16 -34.5t60 -10.5h68q38 0 65.5 25t50.5 92h55zM397 -35q19 -72 -31.5 -125.5t-129.5 -81.5l-27 20q26 31 30.5 87t-19.5 90z" />
    <glyph glyph-name="uni013C" unicode="&#x13c;" horiz-adv-x="324" 
d="M247 710v-593q0 -29 12 -41.5t49 -20.5v-55h-284v55q37 8 49 20.5t12 41.5v443q0 23 -10 36t-36 22l-15 5v45l188 42h35zM262 -35q19 -72 -31.5 -125.5t-129.5 -81.5l-27 20q26 31 30.5 87t-19.5 90z" />
    <glyph glyph-name="Lcaron" unicode="&#x13d;" horiz-adv-x="608" 
d="M491 565h-75l20 201h142zM593 172l-10 -172h-559v55q49 7 67.5 23t18.5 41v422q0 38 -17.5 53t-68.5 19v55h340v-55q-51 -4 -68.5 -19t-17.5 -53v-441q0 -24 16 -34.5t60 -10.5h68q38 0 65.5 25t50.5 92h55z" />
    <glyph glyph-name="lcaron" unicode="&#x13e;" horiz-adv-x="403" 
d="M359 565h-75l20 201h142zM247 710v-593q0 -29 12 -41.5t49 -20.5v-55h-284v55q37 8 49 20.5t12 41.5v443q0 23 -10 36t-36 22l-15 5v45l188 42h35z" />
    <glyph glyph-name="Ldot" unicode="&#x13f;" horiz-adv-x="608" 
d="M593 172l-10 -172h-559v55q49 7 67.5 23t18.5 41v422q0 38 -17.5 53t-68.5 19v55h340v-55q-51 -4 -68.5 -19t-17.5 -53v-441q0 -24 16 -34.5t60 -10.5h68q38 0 65.5 25t50.5 92h55zM498 285q-35 0 -59.5 24t-24.5 60q0 35 24.5 59t59.5 24q37 0 60.5 -24t23.5 -59
q0 -36 -24.5 -60t-59.5 -24z" />
    <glyph glyph-name="ldot" unicode="&#x140;" horiz-adv-x="456" 
d="M247 710v-593q0 -29 12 -41.5t49 -20.5v-55h-284v55q37 8 49 20.5t12 41.5v443q0 23 -10 36t-36 22l-15 5v45l188 42h35zM394 285q-35 0 -59.5 24t-24.5 60q0 35 24.5 59t59.5 24q37 0 60.5 -24t23.5 -59q0 -36 -24.5 -60t-59.5 -24z" />
    <glyph glyph-name="Lslash" unicode="&#x141;" horiz-adv-x="608" 
d="M538 172h55l-10 -172h-559v55q49 7 67.5 23t18.5 41v134l-86 -42v62l86 42v226q0 38 -17.5 53t-68.5 19v55h340v-55q-51 -4 -68.5 -19t-17.5 -53v-144l161 79l-1 -63l-160 -78v-235q0 -24 16 -34.5t60 -10.5h68q38 0 65.5 25t50.5 92z" />
    <glyph glyph-name="lslash" unicode="&#x142;" horiz-adv-x="324" 
d="M308 399l-61 -30v-252q0 -29 12 -41.5t49 -20.5v-55h-284v55q37 8 49 20.5t12 41.5v173l-61 -30v62l61 30v208q0 23 -10 36t-36 22l-15 5v45l188 42h35v-279l61 30v-62z" />
    <glyph glyph-name="Nacute" unicode="&#x143;" horiz-adv-x="724" 
d="M377 723h-99l64 161h182zM700 668v-55q-50 -4 -68 -19.5t-18 -52.5v-541h-75l-359 459v-340q0 -25 19 -41t68 -23v-55h-243v55q49 7 67.5 23t18.5 41v422q0 38 -17.5 53t-68.5 19v55h223l297 -397v270q0 38 -17.5 53t-68.5 19v55h242z" />
    <glyph glyph-name="nacute" unicode="&#x144;" horiz-adv-x="651" 
d="M486 726l-147 -161h-99l64 161h182zM566 117q0 -29 12 -41.5t49 -20.5v-55h-272v54q29 8 39 21t10 42v219q0 86 -68 86q-43 0 -89 -52v-253q0 -29 12 -41.5t49 -20.5v-55h-284v55q37 8 49 20.5t12 41.5v257q0 23 -10 36t-36 22l-15 5v45l188 42h35v-102q66 102 159 102
q80 0 120 -45.5t40 -127.5v-234z" />
    <glyph glyph-name="uni0145" unicode="&#x145;" horiz-adv-x="724" 
d="M700 668v-55q-50 -4 -68 -19.5t-18 -52.5v-541h-75l-359 459v-340q0 -25 19 -41t68 -23v-55h-243v55q49 7 67.5 23t18.5 41v422q0 38 -17.5 53t-68.5 19v55h223l297 -397v270q0 38 -17.5 53t-68.5 19v55h242zM458 -35q19 -72 -31.5 -125.5t-129.5 -81.5l-27 20
q26 31 30.5 87t-19.5 90z" />
    <glyph glyph-name="uni0146" unicode="&#x146;" horiz-adv-x="651" 
d="M566 117q0 -29 12 -41.5t49 -20.5v-55h-272v54q29 8 39 21t10 42v219q0 86 -68 86q-43 0 -89 -52v-253q0 -29 12 -41.5t49 -20.5v-55h-284v55q37 8 49 20.5t12 41.5v257q0 23 -10 36t-36 22l-15 5v45l188 42h35v-102q66 102 159 102q80 0 120 -45.5t40 -127.5v-234z
M243 -45l177 10q19 -72 -31.5 -125.5t-129.5 -81.5l-27 20q26 31 30.5 87t-19.5 90z" />
    <glyph glyph-name="Ncaron" unicode="&#x147;" horiz-adv-x="724" 
d="M435 723h-159l-94 161h80l94 -87l93 87h92zM458 668h242v-55q-50 -4 -68 -19.5t-18 -52.5v-541h-75l-359 459v-340q0 -25 19 -41t68 -23v-55h-243v55q49 7 67.5 23t18.5 41v422q0 38 -17.5 53t-68.5 19v55h223l297 -397v270q0 38 -17.5 53t-68.5 19v55z" />
    <glyph glyph-name="ncaron" unicode="&#x148;" horiz-adv-x="651" 
d="M397 565h-159l-94 161h80l94 -87l93 87h92zM566 117q0 -29 12 -41.5t49 -20.5v-55h-272v54q29 8 39 21t10 42v219q0 86 -68 86q-43 0 -89 -52v-253q0 -29 12 -41.5t49 -20.5v-55h-284v55q37 8 49 20.5t12 41.5v257q0 23 -10 36t-36 22l-15 5v45l188 42h35v-102
q66 102 159 102q80 0 120 -45.5t40 -127.5v-234z" />
    <glyph glyph-name="napostrophe" unicode="&#x149;" horiz-adv-x="647" 
d="M213 736q0 -76 -48 -125t-126 -56v34q38 8 65 33.5t26 58.5q-39 -4 -65 17.5t-26 56.5q0 31 24.5 52.5t59.5 21.5q41 0 65.5 -25.5t24.5 -67.5zM566 117q0 -29 12 -41.5t49 -20.5v-55h-272v54q29 8 39 21t10 42v219q0 86 -68 86q-43 0 -89 -52v-253q0 -29 12 -41.5
t49 -20.5v-55h-284v55q37 8 49 20.5t12 41.5v257q0 23 -10 36t-36 22l-15 5v45l188 42h35v-102q66 102 159 102q80 0 120 -45.5t40 -127.5v-234z" />
    <glyph glyph-name="Eng" unicode="&#x14a;" horiz-adv-x="724" 
d="M458 668h242v-55q-50 -4 -68 -19.5t-18 -52.5v-560q0 -87 -51 -140.5t-129 -53.5q-93 0 -160.5 34.5t-87.5 90.5l159 31q8 -49 35 -77t61 -28q43 0 70.5 32.5t27.5 86.5q0 38 -29 80l-330 422v-340q0 -25 19 -41t68 -23v-55h-243v55q49 7 67.5 23t18.5 41v422
q0 38 -17.5 53t-68.5 19v55h223l297 -397v270q0 38 -17.5 53t-68.5 19v55z" />
    <glyph glyph-name="eng" unicode="&#x14b;" horiz-adv-x="636" 
d="M406 524q160 0 160 -174v-276q0 -47 -10 -85t-36.5 -76.5t-78 -69.5t-128.5 -53l-22 53q27 15 38.5 22.5t30 25t26 37t13.5 53t5 78.5v255q0 74 -15 100.5t-53 26.5q-25 0 -49.5 -12t-39.5 -29v-283q0 -29 12 -41.5t49 -20.5v-55h-284v55q37 8 49 20.5t12 41.5v257
q0 23 -10 36t-36 22l-15 5v45l188 42h35v-83q26 37 71 60t88 23z" />
    <glyph glyph-name="Omacron" unicode="&#x14c;" horiz-adv-x="780" 
d="M229 741v85h321v-85h-321zM393 682q168 0 265 -98t97 -235q0 -160 -105 -261.5t-262 -101.5q-169 0 -266 98t-97 236q0 160 105.5 261t262.5 101zM370 622q-79 0 -124.5 -72t-45.5 -188q0 -81 24 -151.5t73 -117.5t113 -47q79 0 124 72t45 187q0 81 -23 152t-72 118
t-114 47z" />
    <glyph glyph-name="omacron" unicode="&#x14d;" horiz-adv-x="596" 
d="M137 583v85h321v-85h-321zM295 -14q-123 0 -194.5 73t-71.5 185q0 122 77 201t195 79q122 0 194 -74t72 -186q0 -121 -77.5 -199.5t-194.5 -78.5zM315 45q42 0 64.5 45t22.5 122q0 109 -34.5 181t-85.5 72q-42 0 -64.5 -45t-22.5 -121q0 -110 34.5 -182t85.5 -72z" />
    <glyph glyph-name="Obreve" unicode="&#x14e;" horiz-adv-x="780" 
d="M390 710q-71 0 -110.5 47.5t-37.5 126.5h47q16 -67 101 -67t101 67h47q2 -79 -37.5 -126.5t-110.5 -47.5zM393 682q168 0 265 -98t97 -235q0 -160 -105 -261.5t-262 -101.5q-169 0 -266 98t-97 236q0 160 105.5 261t262.5 101zM370 622q-79 0 -124.5 -72t-45.5 -188
q0 -81 24 -151.5t73 -117.5t113 -47q79 0 124 72t45 187q0 81 -23 152t-72 118t-114 47z" />
    <glyph glyph-name="obreve" unicode="&#x14f;" horiz-adv-x="596" 
d="M298 552q-71 0 -110.5 47.5t-37.5 126.5h47q16 -67 101 -67t101 67h47q2 -79 -37.5 -126.5t-110.5 -47.5zM295 -14q-123 0 -194.5 73t-71.5 185q0 122 77 201t195 79q122 0 194 -74t72 -186q0 -121 -77.5 -199.5t-194.5 -78.5zM315 45q42 0 64.5 45t22.5 122
q0 109 -34.5 181t-85.5 72q-42 0 -64.5 -45t-22.5 -121q0 -110 34.5 -182t85.5 -72z" />
    <glyph glyph-name="Ohungarumlaut" unicode="&#x150;" horiz-adv-x="780" 
d="M321 723h-85l70 161h142zM506 723h-85l70 161h142zM393 682q168 0 265 -98t97 -235q0 -160 -105 -261.5t-262 -101.5q-169 0 -266 98t-97 236q0 160 105.5 261t262.5 101zM370 622q-79 0 -124.5 -72t-45.5 -188q0 -81 24 -151.5t73 -117.5t113 -47q79 0 124 72t45 187
q0 81 -23 152t-72 118t-114 47z" />
    <glyph glyph-name="ohungarumlaut" unicode="&#x151;" horiz-adv-x="596" 
d="M229 565h-85l70 161h142zM414 565h-85l70 161h142zM295 -14q-123 0 -194.5 73t-71.5 185q0 122 77 201t195 79q122 0 194 -74t72 -186q0 -121 -77.5 -199.5t-194.5 -78.5zM315 45q42 0 64.5 45t22.5 122q0 109 -34.5 181t-85.5 72q-42 0 -64.5 -45t-22.5 -121
q0 -110 34.5 -182t85.5 -72z" />
    <glyph glyph-name="OE" unicode="&#x152;" horiz-adv-x="1003" 
d="M979 172l-10 -172h-495q-51 -14 -103 -14q-109 0 -189.5 48t-118.5 122.5t-38 163.5q0 160 99.5 260.5t251.5 100.5q53 0 105 -13h479l12 -171h-55q-23 71 -50 93.5t-68 22.5h-135v-243h72q21 0 37.5 22.5t19.5 65.5h55v-231h-55q-3 44 -19.5 66t-37.5 22h-72v-215
q0 -24 16.5 -34.5t60.5 -10.5h67q38 0 65.5 25t50.5 92h55zM200 333q2 -119 52 -204t135 -84q66 1 109 70v4v415q-51 89 -137 88q-73 -1 -117 -82t-42 -207z" />
    <glyph glyph-name="oe" unicode="&#x153;" horiz-adv-x="928" 
d="M715 98q44 0 83.5 22.5t57.5 59.5l42 -19q-22 -75 -83.5 -125t-152.5 -50q-112 0 -180 71q-76 -71 -187 -71q-123 0 -194.5 73t-71.5 185q0 122 77 201t195 79q117 0 191 -71q69 71 185 71q112 0 166.5 -69.5t55.5 -190.5h-329q7 -79 45.5 -122.5t99.5 -43.5zM660 466
q-37 0 -60.5 -36.5t-28.5 -103.5h169q-5 140 -80 140zM315 45q42 0 64.5 45t22.5 122q0 109 -34.5 181t-85.5 72q-42 0 -64.5 -45t-22.5 -121q0 -110 34.5 -182t85.5 -72z" />
    <glyph glyph-name="Racute" unicode="&#x154;" horiz-adv-x="771" 
d="M517 884l-147 -161h-99l64 161h182zM649 100q22 -37 99 -45v-55h-236l-175 285h-55v-166q0 -25 19.5 -41t70.5 -23v-55h-348v55q50 7 70 23t20 41v422q0 37 -19 52.5t-71 19.5v55h322q135 0 208 -49.5t73 -142.5q0 -115 -113 -163zM282 340h41q62 0 95 35.5t33 100.5
q0 137 -128 137h-41v-273z" />
    <glyph glyph-name="racute" unicode="&#x155;" horiz-adv-x="474" 
d="M419 726l-147 -161h-99l64 161h182zM406 528q30 3 54 -4l-21 -171q-36 40 -96 37q-33 -3 -59 -21.5t-37 -47.5v-204q0 -29 17 -42t64 -20v-55h-304v55q37 8 49 20.5t12 41.5v257q0 23 -10 36t-36 22l-15 5v45l188 42h35v-149q43 144 159 153z" />
    <glyph glyph-name="uni0156" unicode="&#x156;" horiz-adv-x="771" 
d="M649 100q22 -37 99 -45v-55h-236l-175 285h-55v-166q0 -25 19.5 -41t70.5 -23v-55h-348v55q50 7 70 23t20 41v422q0 37 -19 52.5t-71 19.5v55h322q135 0 208 -49.5t73 -142.5q0 -115 -113 -163zM282 340h41q62 0 95 35.5t33 100.5q0 137 -128 137h-41v-273zM304 -45
l177 10q19 -72 -31.5 -125.5t-129.5 -81.5l-27 20q26 31 30.5 87t-19.5 90z" />
    <glyph glyph-name="uni0157" unicode="&#x157;" horiz-adv-x="474" 
d="M406 528q30 3 54 -4l-21 -171q-36 40 -96 37q-33 -3 -59 -21.5t-37 -47.5v-204q0 -29 17 -42t64 -20v-55h-304v55q37 8 49 20.5t12 41.5v257q0 23 -10 36t-36 22l-15 5v45l188 42h35v-149q43 144 159 153zM81 -45l177 10q19 -72 -31.5 -125.5t-129.5 -81.5l-27 20
q26 31 30.5 87t-19.5 90z" />
    <glyph glyph-name="Rcaron" unicode="&#x158;" horiz-adv-x="771" 
d="M428 723h-159l-94 161h80l94 -87l93 87h92zM649 100q22 -37 99 -45v-55h-236l-175 285h-55v-166q0 -25 19.5 -41t70.5 -23v-55h-348v55q50 7 70 23t20 41v422q0 37 -19 52.5t-71 19.5v55h322q135 0 208 -49.5t73 -142.5q0 -115 -113 -163zM282 340h41q62 0 95 35.5
t33 100.5q0 137 -128 137h-41v-273z" />
    <glyph glyph-name="rcaron" unicode="&#x159;" horiz-adv-x="474" 
d="M330 565h-159l-94 161h80l94 -87l93 87h92zM406 528q30 3 54 -4l-21 -171q-36 40 -96 37q-33 -3 -59 -21.5t-37 -47.5v-204q0 -29 17 -42t64 -20v-55h-304v55q37 8 49 20.5t12 41.5v257q0 23 -10 36t-36 22l-15 5v45l188 42h35v-149q43 144 159 153z" />
    <glyph glyph-name="Sacute" unicode="&#x15a;" horiz-adv-x="592" 
d="M313 723h-99l64 161h182zM157 238q28 -100 64 -146.5t90 -46.5q42 0 71.5 25t29.5 73q0 31 -20 55t-51.5 39t-70 29.5t-77.5 32.5t-70.5 41t-51.5 61.5t-20 88.5q0 85 66.5 138.5t182.5 53.5q99 0 167 -37t84 -79l-129 -112q-47 169 -135 169q-35 0 -61.5 -22.5
t-26.5 -63.5q0 -39 38 -67t92 -47.5t108.5 -44t92.5 -72t38 -116.5q0 -95 -71 -149.5t-190 -54.5q-168 0 -283 109z" />
    <glyph glyph-name="sacute" unicode="&#x15b;" horiz-adv-x="503" 
d="M280 565h-99l64 161h182zM266 524q75 0 127.5 -20.5t73.5 -42.5l-88 -111q-56 120 -132 120q-30 0 -53 -15.5t-23 -40.5t23 -42.5t57 -26t73.5 -23t73.5 -32t56 -54.5t21 -89q-2 -66 -60.5 -113.5t-154.5 -47.5q-76 0 -143.5 29t-93.5 57l101 100q76 -132 150 -132
q30 0 54 16.5t24 50.5q0 32 -31.5 50.5t-76 29t-89 25t-76 51.5t-31.5 96q0 76 58.5 120.5t159.5 44.5z" />
    <glyph glyph-name="Scircumflex" unicode="&#x15c;" horiz-adv-x="592" 
d="M292 810l-94 -87h-80l94 161h159l106 -161h-92zM199 537q0 -39 38 -67t92 -47.5t108.5 -44t92.5 -72t38 -116.5q0 -95 -71 -149.5t-190 -54.5q-168 0 -283 109l133 143q28 -100 64 -146.5t90 -46.5q42 0 71.5 25t29.5 73q0 31 -20 55t-51.5 39t-70 29.5t-77.5 32.5
t-70.5 41t-51.5 61.5t-20 88.5q0 85 66.5 138.5t182.5 53.5q99 0 167 -37t84 -79l-129 -112q-47 169 -135 169q-35 0 -61.5 -22.5t-26.5 -63.5z" />
    <glyph glyph-name="scircumflex" unicode="&#x15d;" horiz-adv-x="503" 
d="M259 652l-94 -87h-80l94 161h159l106 -161h-92zM171 414q0 -25 23 -42.5t57 -26t73.5 -23t73.5 -32t56 -54.5t21 -89q-2 -66 -60.5 -113.5t-154.5 -47.5q-76 0 -143.5 29t-93.5 57l101 100q76 -132 150 -132q30 0 54 16.5t24 50.5q0 32 -31.5 50.5t-76 29t-89 25
t-76 51.5t-31.5 96q0 76 58.5 120.5t159.5 44.5q75 0 127.5 -20.5t73.5 -42.5l-88 -111q-56 120 -132 120q-30 0 -53 -15.5t-23 -40.5z" />
    <glyph glyph-name="Scedilla" unicode="&#x15e;" horiz-adv-x="592" 
d="M568 190q0 -90 -64 -144t-174 -59l-20 -38q85 -20 85 -80q0 -54 -51.5 -75.5t-132.5 -11.5v15q93 -2 93 51q0 37 -73 51l50 88q-152 8 -257 108l133 143q28 -100 64 -146.5t90 -46.5q42 0 71.5 25t29.5 73q0 31 -20 55t-51.5 39t-70 29.5t-77.5 32.5t-70.5 41t-51.5 61.5
t-20 88.5q0 85 66.5 138.5t182.5 53.5q99 0 167 -37t84 -79l-129 -112q-47 169 -135 169q-35 0 -61.5 -22.5t-26.5 -63.5q0 -39 38 -67t92 -47.5t108.5 -44t92.5 -72t38 -116.5z" />
    <glyph glyph-name="scedilla" unicode="&#x15f;" horiz-adv-x="503" 
d="M171 414q0 -25 23 -42.5t57 -26t73.5 -23t73.5 -32t56 -54.5t21 -89q-2 -62 -53.5 -108t-138.5 -52l-20 -38q85 -20 85 -80q0 -54 -51.5 -75.5t-132.5 -11.5v15q93 -2 93 51q0 37 -73 51l50 88q-68 5 -128 32t-83 53l101 100q76 -132 150 -132q30 0 54 16.5t24 50.5
q0 32 -31.5 50.5t-76 29t-89 25t-76 51.5t-31.5 96q0 76 58.5 120.5t159.5 44.5q75 0 127.5 -20.5t73.5 -42.5l-88 -111q-56 120 -132 120q-30 0 -53 -15.5t-23 -40.5z" />
    <glyph glyph-name="Scaron" unicode="&#x160;" horiz-adv-x="592" 
d="M371 723h-159l-94 161h80l94 -87l93 87h92zM199 537q0 -39 38 -67t92 -47.5t108.5 -44t92.5 -72t38 -116.5q0 -95 -71 -149.5t-190 -54.5q-168 0 -283 109l133 143q28 -100 64 -146.5t90 -46.5q42 0 71.5 25t29.5 73q0 31 -20 55t-51.5 39t-70 29.5t-77.5 32.5t-70.5 41
t-51.5 61.5t-20 88.5q0 85 66.5 138.5t182.5 53.5q99 0 167 -37t84 -79l-129 -112q-47 169 -135 169q-35 0 -61.5 -22.5t-26.5 -63.5z" />
    <glyph glyph-name="scaron" unicode="&#x161;" horiz-adv-x="503" 
d="M338 565h-159l-94 161h80l94 -87l93 87h92zM171 414q0 -25 23 -42.5t57 -26t73.5 -23t73.5 -32t56 -54.5t21 -89q-2 -66 -60.5 -113.5t-154.5 -47.5q-76 0 -143.5 29t-93.5 57l101 100q76 -132 150 -132q30 0 54 16.5t24 50.5q0 32 -31.5 50.5t-76 29t-89 25t-76 51.5
t-31.5 96q0 76 58.5 120.5t159.5 44.5q75 0 127.5 -20.5t73.5 -42.5l-88 -111q-56 120 -132 120q-30 0 -53 -15.5t-23 -40.5z" />
    <glyph glyph-name="uni0162" unicode="&#x162;" horiz-adv-x="655" 
d="M629 668l12 -171h-58q-21 72 -47 94t-66 22h-58v-494q0 -25 18.5 -41t67.5 -23v-55h-139l-27 -51q85 -20 85 -80q0 -54 -51.5 -75.5t-132.5 -11.5v15q93 -2 93 51q0 37 -73 51l58 101h-153v55q49 7 67.5 23t18.5 41v494h-57q-41 0 -67.5 -22t-47.5 -94h-58l12 171h603z
" />
    <glyph glyph-name="uni0163" unicode="&#x163;" horiz-adv-x="424" 
d="M230 -51q85 -20 85 -80q0 -54 -51.5 -75.5t-132.5 -11.5v15q93 -2 93 51q0 37 -73 51l53 93q-53 12 -81.5 51t-28.5 100v312h-82v55h82v93l163 59v-152h145v-55h-145v-302q0 -40 21 -62.5t58 -22.5q29 0 67 19l14 -30q-86 -71 -161 -71h-6z" />
    <glyph glyph-name="Tcaron" unicode="&#x164;" horiz-adv-x="655" 
d="M401 723h-159l-94 161h80l94 -87l93 87h92zM629 668l12 -171h-58q-21 72 -47 94t-66 22h-58v-494q0 -25 18.5 -41t67.5 -23v-55h-340v55q49 7 67.5 23t18.5 41v494h-57q-41 0 -67.5 -22t-47.5 -94h-58l12 171h603z" />
    <glyph glyph-name="tcaron" unicode="&#x165;" horiz-adv-x="440" 
d="M470 766l-87 -201h-75l20 201h142zM336 68q29 0 67 19l14 -30q-86 -71 -161 -71q-77 0 -119.5 41t-42.5 116v312h-82v55h82v93l163 59v-152h145v-55h-145v-302q0 -40 21 -62.5t58 -22.5z" />
    <glyph glyph-name="Tbar" unicode="&#x166;" horiz-adv-x="655" 
d="M629 668l12 -171h-58q-21 72 -47 94t-66 22h-58v-252h105v-55h-105v-187q0 -25 18.5 -41t67.5 -23v-55h-340v55q49 7 67.5 23t18.5 41v187h-107v55h107v252h-57q-41 0 -67.5 -22t-47.5 -94h-58l12 171h603z" />
    <glyph glyph-name="tbar" unicode="&#x167;" horiz-adv-x="424" 
d="M403 87l14 -30q-86 -71 -161 -71q-77 0 -119.5 41t-42.5 116v131h-82v55h82v126h-82v55h82v93l163 59v-152h145v-55h-145v-126h135v-55h-135v-121q0 -40 21 -62.5t58 -22.5q29 0 67 19z" />
    <glyph glyph-name="Utilde" unicode="&#x168;" horiz-adv-x="759" 
d="M238 719q2 63 36 107.5t81 44.5q30 0 93 -25t86 -25q14 0 22.5 12t17.5 45l47 -9q-5 -67 -37.5 -111t-76.5 -44t-99.5 24t-83.5 24q-17 0 -25 -10.5t-15 -41.5zM739 668v-55q-50 -4 -68 -19.5t-18 -52.5v-300q0 -122 -66 -188.5t-187 -66.5q-149 0 -221.5 64.5
t-72.5 184.5v306q0 38 -17.5 53t-68.5 19v55h341v-55q-51 -4 -69 -19.5t-18 -52.5v-292q0 -201 148 -201q77 0 119 54t42 152v287q0 38 -17.5 53t-68.5 19v55h242z" />
    <glyph glyph-name="utilde" unicode="&#x169;" horiz-adv-x="655" 
d="M221 604q-17 0 -25 -10.5t-15 -41.5l-46 9q2 63 36 107.5t81 44.5q30 0 93 -25t86 -25q14 0 22.5 12t17.5 45l47 -9q-5 -67 -37.5 -111t-76.5 -44t-99.5 24t-83.5 24zM600 91h31v-55l-196 -50h-35v101q-66 -102 -159 -102q-80 0 -120 45.5t-40 127.5v216q0 23 -10 36
t-36 22l-15 5v45l188 42h35v-351q0 -86 68 -86q43 0 89 52v235q0 23 -10 36t-36 22l-15 5v45l188 42h35v-374q0 -32 8.5 -45.5t29.5 -13.5z" />
    <glyph glyph-name="Umacron" unicode="&#x16a;" horiz-adv-x="759" 
d="M268 741v85h321v-85h-321zM739 668v-55q-50 -4 -68 -19.5t-18 -52.5v-300q0 -122 -66 -188.5t-187 -66.5q-149 0 -221.5 64.5t-72.5 184.5v306q0 38 -17.5 53t-68.5 19v55h341v-55q-51 -4 -69 -19.5t-18 -52.5v-292q0 -201 148 -201q77 0 119 54t42 152v287
q0 38 -17.5 53t-68.5 19v55h242z" />
    <glyph glyph-name="umacron" unicode="&#x16b;" horiz-adv-x="655" 
d="M486 668v-85h-321v85h321zM600 91h31v-55l-196 -50h-35v101q-66 -102 -159 -102q-80 0 -120 45.5t-40 127.5v216q0 23 -10 36t-36 22l-15 5v45l188 42h35v-351q0 -86 68 -86q43 0 89 52v235q0 23 -10 36t-36 22l-15 5v45l188 42h35v-374q0 -32 8.5 -45.5t29.5 -13.5z" />
    <glyph glyph-name="Ubreve" unicode="&#x16c;" horiz-adv-x="759" 
d="M429 710q-71 0 -110.5 47.5t-37.5 126.5h47q16 -67 101 -67t101 67h47q2 -79 -37.5 -126.5t-110.5 -47.5zM739 668v-55q-50 -4 -68 -19.5t-18 -52.5v-300q0 -122 -66 -188.5t-187 -66.5q-149 0 -221.5 64.5t-72.5 184.5v306q0 38 -17.5 53t-68.5 19v55h341v-55
q-51 -4 -69 -19.5t-18 -52.5v-292q0 -201 148 -201q77 0 119 54t42 152v287q0 38 -17.5 53t-68.5 19v55h242z" />
    <glyph glyph-name="ubreve" unicode="&#x16d;" horiz-adv-x="655" 
d="M326 552q-71 0 -110.5 47.5t-37.5 126.5h47q16 -67 101 -67t101 67h47q2 -79 -37.5 -126.5t-110.5 -47.5zM600 91h31v-55l-196 -50h-35v101q-66 -102 -159 -102q-80 0 -120 45.5t-40 127.5v216q0 23 -10 36t-36 22l-15 5v45l188 42h35v-351q0 -86 68 -86q43 0 89 52v235
q0 23 -10 36t-36 22l-15 5v45l188 42h35v-374q0 -32 8.5 -45.5t29.5 -13.5z" />
    <glyph glyph-name="Uring" unicode="&#x16e;" horiz-adv-x="759" 
d="M429 711q-50 0 -83.5 30.5t-33.5 76.5t33.5 77t83.5 31t83.5 -31t33.5 -77t-33.5 -76.5t-83.5 -30.5zM429 751q28 0 46.5 19t18.5 49q0 28 -18.5 47t-46.5 19q-27 0 -45.5 -19t-18.5 -47q0 -30 18.5 -49t45.5 -19zM739 668v-55q-50 -4 -68 -19.5t-18 -52.5v-300
q0 -122 -66 -188.5t-187 -66.5q-149 0 -221.5 64.5t-72.5 184.5v306q0 38 -17.5 53t-68.5 19v55h341v-55q-51 -4 -69 -19.5t-18 -52.5v-292q0 -201 148 -201q77 0 119 54t42 152v287q0 38 -17.5 53t-68.5 19v55h242z" />
    <glyph glyph-name="uring" unicode="&#x16f;" horiz-adv-x="655" 
d="M326 553q-50 0 -83.5 30.5t-33.5 76.5t33.5 77t83.5 31t83.5 -31t33.5 -77t-33.5 -76.5t-83.5 -30.5zM326 727q-27 0 -45.5 -19t-18.5 -47q0 -30 18.5 -49t45.5 -19q28 0 46.5 19t18.5 49q0 28 -18.5 47t-46.5 19zM600 91h31v-55l-196 -50h-35v101q-66 -102 -159 -102
q-80 0 -120 45.5t-40 127.5v216q0 23 -10 36t-36 22l-15 5v45l188 42h35v-351q0 -86 68 -86q43 0 89 52v235q0 23 -10 36t-36 22l-15 5v45l188 42h35v-374q0 -32 8.5 -45.5t29.5 -13.5z" />
    <glyph glyph-name="Uhungarumlaut" unicode="&#x170;" horiz-adv-x="759" 
d="M360 723h-85l70 161h142zM545 723h-85l70 161h142zM739 668v-55q-50 -4 -68 -19.5t-18 -52.5v-300q0 -122 -66 -188.5t-187 -66.5q-149 0 -221.5 64.5t-72.5 184.5v306q0 38 -17.5 53t-68.5 19v55h341v-55q-51 -4 -69 -19.5t-18 -52.5v-292q0 -201 148 -201q77 0 119 54
t42 152v287q0 38 -17.5 53t-68.5 19v55h242z" />
    <glyph glyph-name="uhungarumlaut" unicode="&#x171;" horiz-adv-x="655" 
d="M384 726l-127 -161h-85l70 161h142zM442 565h-85l70 161h142zM600 91h31v-55l-196 -50h-35v101q-66 -102 -159 -102q-80 0 -120 45.5t-40 127.5v216q0 23 -10 36t-36 22l-15 5v45l188 42h35v-351q0 -86 68 -86q43 0 89 52v235q0 23 -10 36t-36 22l-15 5v45l188 42h35
v-374q0 -32 8.5 -45.5t29.5 -13.5z" />
    <glyph glyph-name="Uogonek" unicode="&#x172;" horiz-adv-x="759" 
d="M497 668h242v-55q-50 -4 -68 -19.5t-18 -52.5v-300q0 -103 -48 -167.5t-138 -81.5q-51 -63 -51 -104q0 -36 31 -49t77 12l10 -20q-17 -18 -52.5 -30.5t-66.5 -12.5q-51 0 -83.5 19t-32.5 53q0 61 96 126q-146 1 -217.5 65.5t-71.5 183.5v306q0 38 -17.5 53t-68.5 19v55
h341v-55q-51 -4 -69 -19.5t-18 -52.5v-292q0 -201 148 -201q77 0 119 54t42 152v287q0 38 -17.5 53t-68.5 19v55z" />
    <glyph glyph-name="uogonek" unicode="&#x173;" horiz-adv-x="655" 
d="M649 -149l10 -20q-17 -18 -52.5 -30.5t-66.5 -12.5q-51 0 -83.5 19t-32.5 53q0 77 159 164l-148 -38h-35v101q-66 -102 -159 -102q-80 0 -120 45.5t-40 127.5v216q0 23 -10 36t-36 22l-15 5v45l188 42h35v-351q0 -86 68 -86q43 0 89 52v235q0 23 -10 36t-36 22l-15 5v45
l188 42h35v-374q0 -32 8.5 -45.5t29.5 -13.5h31v-55q-90 -95 -90 -148q0 -36 31 -49t77 12z" />
    <glyph glyph-name="Wcircumflex" unicode="&#x174;" horiz-adv-x="1042" 
d="M546 810l-94 -87h-80l94 161h159l106 -161h-92zM812 668h220v-55q-39 -4 -48.5 -13t-23.5 -53l-172 -547h-124l-136 432l-139 -432h-125l-179 568q-9 28 -18.5 34.5t-56.5 10.5v55h320v-55q-53 -2 -65.5 -16.5t-2.5 -50.5l112 -382l117 384l-6 20q-5 17 -7 21.5t-10 11
t-19.5 8.5t-37.5 4v55h320v-55q-53 -2 -65.5 -16.5t-2.5 -50.5l112 -382l106 367q18 43 8 61t-77 21v55z" />
    <glyph glyph-name="wcircumflex" unicode="&#x175;" horiz-adv-x="895" 
d="M367 652l-94 -87h-80l94 161h159l106 -161h-92zM720 510h170v-55q-40 -9 -61 -56l-179 -413h-58l-143 321l-139 -321h-56l-184 413q-23 50 -65 57v54h285v-55q-33 -4 -41.5 -17t2.5 -39l88 -222l80 197l-11 25q-23 50 -64 57v54h285v-55q-32 -5 -41 -17.5t1 -38.5
l90 -221l90 221q11 26 -0.5 39t-48.5 17v55z" />
    <glyph glyph-name="Ycircumflex" unicode="&#x176;" horiz-adv-x="679" 
d="M377 810l-94 -87h-80l94 161h159l106 -161h-92zM470 668h199v-55q-27 -2 -37.5 -9.5t-26.5 -37.5l-179 -325v-122q0 -25 19 -41t68 -23v-55h-341v55q48 7 67 23t19 41v125l-185 324q-15 28 -25 35.5t-38 9.5v55h298v-55q-46 -2 -59.5 -14t1.5 -43l135 -244l137 244
q17 28 7 41t-59 16v55z" />
    <glyph glyph-name="ycircumflex" unicode="&#x177;" horiz-adv-x="618" 
d="M313 652l-94 -87h-80l94 161h159l106 -161h-92zM419 510h194v-55q-28 -5 -40 -12t-19 -22l-294 -619h-177v28l185 182l-201 410q-7 15 -19.5 21.5t-42.5 11.5v55h300v-55q-51 -4 -65 -14.5t-3 -34.5l124 -265l125 265q9 20 -4.5 31t-62.5 18v55z" />
    <glyph glyph-name="Ydieresis" unicode="&#x178;" horiz-adv-x="679" 
d="M267 730q-39 0 -64.5 24.5t-25.5 61.5q0 36 25.5 60.5t64.5 24.5t64.5 -24.5t25.5 -60.5q0 -37 -25.5 -61.5t-64.5 -24.5zM493 730q-39 0 -64.5 24.5t-25.5 61.5q0 36 25.5 60.5t64.5 24.5t64.5 -24.5t25.5 -60.5q0 -37 -25.5 -61.5t-64.5 -24.5zM669 668v-55
q-27 -2 -37.5 -9.5t-26.5 -37.5l-179 -325v-122q0 -25 19 -41t68 -23v-55h-341v55q48 7 67 23t19 41v125l-185 324q-15 28 -25 35.5t-38 9.5v55h298v-55q-46 -2 -59.5 -14t1.5 -43l135 -244l137 244q17 28 7 41t-59 16v55h199z" />
    <glyph glyph-name="Zacute" unicode="&#x179;" horiz-adv-x="634" 
d="M337 723h-99l64 161h182zM614 172l-10 -172h-579v55l395 558h-201q-38 0 -65 -25t-49 -91h-55l10 171h554v-55l-395 -558h228q38 0 66 25t49 92h52z" />
    <glyph glyph-name="zacute" unicode="&#x17a;" horiz-adv-x="544" 
d="M301 565h-99l64 161h182zM510 510v-55l-292 -400h133q29 0 52 27t42 102h55l-12 -184h-458v55l292 400h-114q-31 0 -54.5 -22t-45.5 -91h-55l12 168h445z" />
    <glyph glyph-name="Zdotaccent" unicode="&#x17b;" horiz-adv-x="634" 
d="M323 731q-43 0 -71.5 27.5t-28.5 68.5q0 40 28.5 67t71.5 27t71.5 -27t28.5 -67q0 -41 -28.5 -68.5t-71.5 -27.5zM614 172l-10 -172h-579v55l395 558h-201q-38 0 -65 -25t-49 -91h-55l10 171h554v-55l-395 -558h228q38 0 66 25t49 92h52z" />
    <glyph glyph-name="zdotaccent" unicode="&#x17c;" horiz-adv-x="544" 
d="M287 573q-43 0 -71.5 27.5t-28.5 68.5q0 40 28.5 67t71.5 27t71.5 -27t28.5 -67q0 -41 -28.5 -68.5t-71.5 -27.5zM510 510v-55l-292 -400h133q29 0 52 27t42 102h55l-12 -184h-458v55l292 400h-114q-31 0 -54.5 -22t-45.5 -91h-55l12 168h445z" />
    <glyph glyph-name="Zcaron" unicode="&#x17d;" horiz-adv-x="634" 
d="M395 723h-159l-94 161h80l94 -87l93 87h92zM614 668v-55l-395 -558h228q38 0 66 25t49 92h52l-10 -172h-579v55l395 558h-201q-38 0 -65 -25t-49 -91h-55l10 171h554z" />
    <glyph glyph-name="zcaron" unicode="&#x17e;" horiz-adv-x="544" 
d="M359 565h-159l-94 161h80l94 -87l93 87h92zM510 510v-55l-292 -400h133q29 0 52 27t42 102h55l-12 -184h-458v55l292 400h-114q-31 0 -54.5 -22t-45.5 -91h-55l12 168h445z" />
    <glyph glyph-name="longs" unicode="&#x17f;" horiz-adv-x="473" 
d="M348 788q67 0 123.5 -27t77.5 -74l-127 -83q-11 53 -36 90.5t-53 37.5q-72 0 -72 -144v-471q0 -29 17 -42t64 -20v-55h-304v55q37 8 49 20.5t12 41.5v338h-83v55h83v43q0 117 73 176t176 59z" />
    <glyph glyph-name="florin" unicode="&#x192;" horiz-adv-x="703" 
d="M472 417h167v-55h-167v-141q0 -117 -73 -176t-176 -59q-71 0 -126 32t-74 84l146 68q2 -58 21 -94t48 -36q72 0 72 128v194h-167v55h167v136q0 117 73 176t176 59q71 0 126 -32t74 -84l-146 -68q-2 58 -21 94t-48 36q-72 0 -72 -128v-189z" />
    <glyph glyph-name="Aringacute" unicode="&#x1fa;" horiz-adv-x="765" 
d="M383 711q-50 0 -83.5 30.5t-33.5 76.5q0 63 55 93l64 161h182l-140 -153q33 -12 53 -39t20 -62q0 -46 -33.5 -76.5t-83.5 -30.5zM383 885q-27 0 -45.5 -19t-18.5 -47q0 -30 18.5 -49t45.5 -19q28 0 46.5 19t18.5 49q0 28 -18.5 47t-46.5 19zM673 103q11 -27 23 -34.5
t59 -13.5v-55h-342v55q60 2 76.5 20t-0.5 52l-31 74h-260l-26 -62q-22 -42 -9 -61.5t87 -22.5v-55h-240v55q40 4 51.5 14.5t30.5 56.5l226 542h121zM221 256h214l-108 256z" />
    <glyph glyph-name="aringacute" unicode="&#x1fb;" horiz-adv-x="566" 
d="M267 553q-50 0 -83.5 30.5t-33.5 76.5q0 63 55 93l64 161h182l-140 -153q33 -12 53 -39t20 -62q0 -46 -33.5 -76.5t-83.5 -30.5zM267 727q-27 0 -45.5 -19t-18.5 -47q0 -30 18.5 -49t45.5 -19q28 0 46.5 19t18.5 49q0 28 -18.5 47t-46.5 19zM545 91h11v-55l-196 -50h-35
v89q-29 -48 -64 -68.5t-92 -20.5q-66 0 -105.5 40t-39.5 103q0 19 5.5 36t13 30t23.5 25.5t27 20.5t34 17.5t35 14t39.5 11.5t37 9.5t38.5 8.5l48 11v33q0 56 -22.5 89t-61.5 33q-31 0 -49 -20t-18 -50q0 -28 17 -56l-137 -44q-18 36 -18 69q0 67 65 112t167 45
q106 0 162.5 -51.5t56.5 -139.5v-173q0 -41 11.5 -55t46.5 -14zM251 73q53 0 74 59v126l-32 -8q-101 -26 -101 -107q0 -28 17 -49t42 -21z" />
    <glyph glyph-name="AEacute" unicode="&#x1fc;" horiz-adv-x="993" 
d="M744 884l-147 -161h-99l64 161h182zM914 172h55l-10 -172h-546v55q59 2 73 18.5t3 53.5l-22 74h-261l-34 -62q-11 -21 -14 -34.5t3.5 -25t28 -17.5t60.5 -7v-55h-240v55q46 4 82 71l227 411q42 76 -65 76h-19v55h695l12 -171h-55q-23 71 -50 93.5t-68 22.5h-262l79 -243
h120q21 0 37.5 22.5t19.5 65.5h55v-231h-55q-3 44 -19.5 66t-37.5 22h-102l56 -171q19 -57 40 -73t75 -16h23q38 0 65.5 25t50.5 92zM236 256h215l-74 256z" />
    <glyph glyph-name="aeacute" unicode="&#x1fd;" horiz-adv-x="839" 
d="M582 726l-147 -161h-99l64 161h182zM626 98q44 0 83.5 22.5t57.5 59.5l42 -19q-22 -75 -83.5 -125t-152.5 -50q-146 0 -212 114q-57 -114 -194 -114q-67 0 -105 36.5t-38 98.5q0 33 17 60.5t40.5 45t61 33t66 23.5t68.5 17l48 12v32q0 57 -20.5 90.5t-51.5 33.5
q-29 0 -47 -17t-18 -47q0 -14 4 -29.5t8 -24.5l5 -8l-126 -43q-41 34 -41 86q0 58 70.5 98.5t167.5 40.5q102 0 148 -52q66 52 164 52q112 0 166.5 -69.5t55.5 -190.5h-329q7 -79 45.5 -122.5t99.5 -43.5zM571 466q-37 0 -60.5 -36.5t-28.5 -103.5h169q-5 140 -80 140z
M250 73q53 0 94 62q-19 50 -19 108v2v14l-32 -10q-45 -13 -73 -44.5t-28 -69.5q0 -27 16 -44.5t42 -17.5z" />
    <glyph glyph-name="uni0218" unicode="&#x218;" horiz-adv-x="592" 
d="M157 238q28 -100 64 -146.5t90 -46.5q42 0 71.5 25t29.5 73q0 31 -20 55t-51.5 39t-70 29.5t-77.5 32.5t-70.5 41t-51.5 61.5t-20 88.5q0 85 66.5 138.5t182.5 53.5q99 0 167 -37t84 -79l-129 -112q-47 169 -135 169q-35 0 -61.5 -22.5t-26.5 -63.5q0 -39 38 -67
t92 -47.5t108.5 -44t92.5 -72t38 -116.5q0 -95 -71 -149.5t-190 -54.5q-168 0 -283 109zM392 -35q19 -72 -31.5 -125.5t-129.5 -81.5l-27 20q26 31 30.5 87t-19.5 90z" />
    <glyph glyph-name="uni0219" unicode="&#x219;" horiz-adv-x="503" 
d="M266 524q75 0 127.5 -20.5t73.5 -42.5l-88 -111q-56 120 -132 120q-30 0 -53 -15.5t-23 -40.5t23 -42.5t57 -26t73.5 -23t73.5 -32t56 -54.5t21 -89q-2 -66 -60.5 -113.5t-154.5 -47.5q-76 0 -143.5 29t-93.5 57l101 100q76 -132 150 -132q30 0 54 16.5t24 50.5
q0 32 -31.5 50.5t-76 29t-89 25t-76 51.5t-31.5 96q0 76 58.5 120.5t159.5 44.5zM345 -35q19 -72 -31.5 -125.5t-129.5 -81.5l-27 20q26 31 30.5 87t-19.5 90z" />
    <glyph glyph-name="uni021A" unicode="&#x21a;" horiz-adv-x="655" 
d="M629 668l12 -171h-58q-21 72 -47 94t-66 22h-58v-494q0 -25 18.5 -41t67.5 -23v-55h-340v55q49 7 67.5 23t18.5 41v494h-57q-41 0 -67.5 -22t-47.5 -94h-58l12 171h603zM414 -35q19 -72 -31.5 -125.5t-129.5 -81.5l-27 20q26 31 30.5 87t-19.5 90z" />
    <glyph glyph-name="uni021B" unicode="&#x21b;" horiz-adv-x="424" 
d="M256 -14q-77 0 -119.5 41t-42.5 116v312h-82v55h82v93l163 59v-152h145v-55h-145v-302q0 -40 21 -62.5t58 -22.5q29 0 67 19l14 -30q-86 -71 -161 -71zM135 -45l177 10q19 -72 -31.5 -125.5t-129.5 -81.5l-27 20q26 31 30.5 87t-19.5 90z" />
    <glyph glyph-name="uni0237" unicode="&#x237;" horiz-adv-x="302" 
d="M197 524h35v-450q0 -47 -10 -85t-36.5 -76.5t-78 -69.5t-128.5 -53l-22 53q27 15 39 22.5t29.5 25t25 37t13.5 53t6 78.5v315q0 23 -10 36t-36 22l-15 5v45z" />
    <glyph glyph-name="uni02BC" unicode="&#x2bc;" horiz-adv-x="222" 
d="M108 873q40 0 65 -28.5t25 -75.5q0 -84 -48 -138.5t-126 -62.5v38q38 9 65 37.5t26 64.5q-39 -4 -65 19.5t-26 62.5q0 35 24.5 59t59.5 24z" />
    <glyph glyph-name="circumflex" unicode="&#x2c6;" horiz-adv-x="399" 
d="M379 565h-92l-93 87l-94 -87h-80l94 161h159z" />
    <glyph glyph-name="caron" unicode="&#x2c7;" horiz-adv-x="399" 
d="M287 726h92l-106 -161h-159l-94 161h80l94 -87z" />
    <glyph glyph-name="breve" unicode="&#x2d8;" horiz-adv-x="336" 
d="M168 552q-71 0 -110.5 47.5t-37.5 126.5h47q16 -67 101 -67t101 67h47q2 -79 -37.5 -126.5t-110.5 -47.5z" />
    <glyph glyph-name="dotaccent" unicode="&#x2d9;" horiz-adv-x="252" 
d="M120 573q-43 0 -71.5 27.5t-28.5 68.5q0 40 28.5 67t71.5 27t71.5 -27t28.5 -67q0 -41 -28.5 -68.5t-71.5 -27.5z" />
    <glyph glyph-name="ring" unicode="&#x2da;" horiz-adv-x="274" 
d="M137 553q-50 0 -83.5 30.5t-33.5 76.5t33.5 77t83.5 31t83.5 -31t33.5 -77t-33.5 -76.5t-83.5 -30.5zM137 593q28 0 46.5 19t18.5 49q0 28 -18.5 47t-46.5 19q-27 0 -45.5 -19t-18.5 -47q0 -30 18.5 -49t45.5 -19z" />
    <glyph glyph-name="ogonek" unicode="&#x2db;" horiz-adv-x="275" 
d="M136 -212q-51 0 -83.5 19t-32.5 53q0 46 49.5 90.5t150.5 94.5l7 -9q-90 -95 -90 -148q0 -36 31 -49t77 12l10 -20q-17 -18 -52.5 -30.5t-66.5 -12.5z" />
    <glyph glyph-name="tilde" unicode="&#x2dc;" horiz-adv-x="423" 
d="M20 561q2 63 36 107.5t81 44.5q30 0 93 -25t86 -25q14 0 22.5 12t17.5 45l47 -9q-5 -67 -37.5 -111t-76.5 -44t-99.5 24t-83.5 24q-17 0 -25 -10.5t-15 -41.5z" />
    <glyph glyph-name="hungarumlaut" unicode="&#x2dd;" horiz-adv-x="437" 
d="M105 565h-85l70 161h142zM290 565h-85l70 161h142z" />
    <glyph glyph-name="gravecomb" unicode="&#x300;" 
d="M-149 565l-147 161h182l64 -161h-99z" />
    <glyph glyph-name="acutecomb" unicode="&#x301;" 
d="M-197 565h-99l64 161h182z" />
    <glyph glyph-name="uni0302" unicode="&#x302;" 
d="M-50 565h-92l-93 87l-94 -87h-80l94 161h159z" />
    <glyph glyph-name="tildecomb" unicode="&#x303;" 
d="M-433 561q2 63 36 107.5t81 44.5q30 0 93 -25t86 -25q14 0 22.5 12t17.5 45l47 -9q-5 -67 -37.5 -111t-76.5 -44t-99.5 24t-83.5 24q-17 0 -25 -10.5t-15 -41.5z" />
    <glyph glyph-name="uni0304" unicode="&#x304;" 
d="M-371 583v85h321v-85h-321z" />
    <glyph glyph-name="uni0306" unicode="&#x306;" 
d="M-198 552q-71 0 -110.5 47.5t-37.5 126.5h47q16 -67 101 -67t101 67h47q2 -79 -37.5 -126.5t-110.5 -47.5z" />
    <glyph glyph-name="uni0307" unicode="&#x307;" 
d="M-150 573q-43 0 -71.5 27.5t-28.5 68.5q0 40 28.5 67t71.5 27t71.5 -27t28.5 -67q0 -41 -28.5 -68.5t-71.5 -27.5z" />
    <glyph glyph-name="uni0308" unicode="&#x308;" 
d="M-366 572q-39 0 -64.5 24.5t-25.5 61.5q0 36 25.5 60.5t64.5 24.5t64.5 -24.5t25.5 -60.5q0 -37 -25.5 -61.5t-64.5 -24.5zM-140 572q-39 0 -64.5 24.5t-25.5 61.5q0 36 25.5 60.5t64.5 24.5t64.5 -24.5t25.5 -60.5q0 -37 -25.5 -61.5t-64.5 -24.5z" />
    <glyph glyph-name="uni030A" unicode="&#x30a;" 
d="M-167 553q-50 0 -83.5 30.5t-33.5 76.5t33.5 77t83.5 31t83.5 -31t33.5 -77t-33.5 -76.5t-83.5 -30.5zM-167 593q28 0 46.5 19t18.5 49q0 28 -18.5 47t-46.5 19q-27 0 -45.5 -19t-18.5 -47q0 -30 18.5 -49t45.5 -19z" />
    <glyph glyph-name="uni030B" unicode="&#x30b;" 
d="M-362 565h-85l70 161h142zM-177 565h-85l70 161h142z" />
    <glyph glyph-name="uni030C" unicode="&#x30c;" 
d="M-142 726h92l-106 -161h-159l-94 161h80l94 -87z" />
    <glyph glyph-name="uni0312" unicode="&#x312;" 
d="M-238 560q-19 72 31.5 125.5t129.5 81.5l27 -20q-26 -31 -30.5 -87t19.5 -90z" />
    <glyph glyph-name="uni0326" unicode="&#x326;" 
d="M-55 -35q19 -72 -31.5 -125.5t-129.5 -81.5l-27 20q26 31 30.5 87t-19.5 90z" />
    <glyph glyph-name="uni0327" unicode="&#x327;" 
d="M-234 -218v15q93 -2 93 51q0 37 -73 51l58 101h48l-27 -51q85 -20 85 -80q0 -54 -51.5 -75.5t-132.5 -11.5z" />
    <glyph glyph-name="uni0328" unicode="&#x328;" 
d="M-169 -212q-51 0 -83.5 19t-32.5 53q0 46 49.5 90.5t150.5 94.5l7 -9q-90 -95 -90 -148q0 -36 31 -49t77 12l10 -20q-17 -18 -52.5 -30.5t-66.5 -12.5z" />
    <glyph glyph-name="pi" unicode="&#x3c0;" horiz-adv-x="653" 
d="M560 455h-100v-317q0 -45 21 -70.5t57 -27.5l-5 -50q-55 1 -91.5 40.5t-36.5 100.5v324h-203v-455h-55v455h-100v55h513v-55z" />
    <glyph glyph-name="Wgrave" unicode="&#x1e80;" horiz-adv-x="1042" 
d="M627 723h-99l-147 161h182zM812 668h220v-55q-39 -4 -48.5 -13t-23.5 -53l-172 -547h-124l-136 432l-139 -432h-125l-179 568q-9 28 -18.5 34.5t-56.5 10.5v55h320v-55q-53 -2 -65.5 -16.5t-2.5 -50.5l112 -382l117 384l-6 20q-5 17 -7 21.5t-10 11t-19.5 8.5t-37.5 4v55
h320v-55q-53 -2 -65.5 -16.5t-2.5 -50.5l112 -382l106 367q18 43 8 61t-77 21v55z" />
    <glyph glyph-name="wgrave" unicode="&#x1e81;" horiz-adv-x="895" 
d="M448 565h-99l-147 161h182zM720 510h170v-55q-40 -9 -61 -56l-179 -413h-58l-143 321l-139 -321h-56l-184 413q-23 50 -65 57v54h285v-55q-33 -4 -41.5 -17t2.5 -39l88 -222l80 197l-11 25q-23 50 -64 57v54h285v-55q-32 -5 -41 -17.5t1 -38.5l90 -221l90 221
q11 26 -0.5 39t-48.5 17v55z" />
    <glyph glyph-name="Wacute" unicode="&#x1e82;" horiz-adv-x="1042" 
d="M714 884l-147 -161h-99l64 161h182zM812 668h220v-55q-39 -4 -48.5 -13t-23.5 -53l-172 -547h-124l-136 432l-139 -432h-125l-179 568q-9 28 -18.5 34.5t-56.5 10.5v55h320v-55q-53 -2 -65.5 -16.5t-2.5 -50.5l112 -382l117 384l-6 20q-5 17 -7 21.5t-10 11t-19.5 8.5
t-37.5 4v55h320v-55q-53 -2 -65.5 -16.5t-2.5 -50.5l112 -382l106 367q18 43 8 61t-77 21v55z" />
    <glyph glyph-name="wacute" unicode="&#x1e83;" horiz-adv-x="895" 
d="M535 726l-147 -161h-99l64 161h182zM720 510h170v-55q-40 -9 -61 -56l-179 -413h-58l-143 321l-139 -321h-56l-184 413q-23 50 -65 57v54h285v-55q-33 -4 -41.5 -17t2.5 -39l88 -222l80 197l-11 25q-23 50 -64 57v54h285v-55q-32 -5 -41 -17.5t1 -38.5l90 -221l90 221
q11 26 -0.5 39t-48.5 17v55z" />
    <glyph glyph-name="Wdieresis" unicode="&#x1e84;" horiz-adv-x="1042" 
d="M436 730q-39 0 -64.5 24.5t-25.5 61.5q0 36 25.5 60.5t64.5 24.5t64.5 -24.5t25.5 -60.5q0 -37 -25.5 -61.5t-64.5 -24.5zM662 730q-39 0 -64.5 24.5t-25.5 61.5q0 36 25.5 60.5t64.5 24.5t64.5 -24.5t25.5 -60.5q0 -37 -25.5 -61.5t-64.5 -24.5zM812 668h220v-55
q-39 -4 -48.5 -13t-23.5 -53l-172 -547h-124l-136 432l-139 -432h-125l-179 568q-9 28 -18.5 34.5t-56.5 10.5v55h320v-55q-53 -2 -65.5 -16.5t-2.5 -50.5l112 -382l117 384l-6 20q-5 17 -7 21.5t-10 11t-19.5 8.5t-37.5 4v55h320v-55q-53 -2 -65.5 -16.5t-2.5 -50.5
l112 -382l106 367q18 43 8 61t-77 21v55z" />
    <glyph glyph-name="wdieresis" unicode="&#x1e85;" horiz-adv-x="895" 
d="M257 572q-39 0 -64.5 24.5t-25.5 61.5q0 36 25.5 60.5t64.5 24.5t64.5 -24.5t25.5 -60.5q0 -37 -25.5 -61.5t-64.5 -24.5zM483 572q-39 0 -64.5 24.5t-25.5 61.5q0 36 25.5 60.5t64.5 24.5t64.5 -24.5t25.5 -60.5q0 -37 -25.5 -61.5t-64.5 -24.5zM720 510h170v-55
q-40 -9 -61 -56l-179 -413h-58l-143 321l-139 -321h-56l-184 413q-23 50 -65 57v54h285v-55q-33 -4 -41.5 -17t2.5 -39l88 -222l80 197l-11 25q-23 50 -64 57v54h285v-55q-32 -5 -41 -17.5t1 -38.5l90 -221l90 221q11 26 -0.5 39t-48.5 17v55z" />
    <glyph glyph-name="uni1E9E" unicode="&#x1e9e;" horiz-adv-x="725" 
d="M448 -14q-103 0 -160 66l31 40q28 -25 52 -35.5t61 -10.5q45 0 73.5 35t28.5 97q0 60 -51.5 105.5t-163.5 39.5l-11 52l207 238h-273v-613h-218v55q32 7 41.5 22t9.5 42v430q0 27 -9.5 42t-41.5 22v55h567l10 -54l-159 -185q105 0 174 -64.5t69 -152.5q0 -100 -67 -163
t-170 -63z" />
    <glyph glyph-name="Ygrave" unicode="&#x1ef2;" horiz-adv-x="679" 
d="M359 723l-147 161h182l64 -161h-99zM669 668v-55q-27 -2 -37.5 -9.5t-26.5 -37.5l-179 -325v-122q0 -25 19 -41t68 -23v-55h-341v55q48 7 67 23t19 41v125l-185 324q-15 28 -25 35.5t-38 9.5v55h298v-55q-46 -2 -59.5 -14t1.5 -43l135 -244l137 244q17 28 7 41t-59 16v55
h199z" />
    <glyph glyph-name="ygrave" unicode="&#x1ef3;" horiz-adv-x="618" 
d="M295 565l-147 161h182l64 -161h-99zM83 -170l185 182l-201 410q-7 15 -19.5 21.5t-42.5 11.5v55h300v-55q-51 -4 -65 -14.5t-3 -34.5l124 -265l125 265q9 20 -4.5 31t-62.5 18v55h194v-55q-28 -5 -40 -12t-19 -22l-294 -619h-177v28z" />
    <glyph glyph-name="endash" unicode="&#x2013;" horiz-adv-x="414" 
d="M382 317v-55h-350v55h350z" />
    <glyph glyph-name="emdash" unicode="&#x2014;" horiz-adv-x="748" 
d="M724 317v-55h-700v55h700z" />
    <glyph glyph-name="quoteleft" unicode="&#x2018;" horiz-adv-x="222" 
d="M114 476q-40 0 -65 28.5t-25 75.5q0 84 48 138.5t126 62.5v-38q-38 -9 -65 -37.5t-26 -64.5q39 4 65 -19.5t26 -62.5q0 -35 -24.5 -59t-59.5 -24z" />
    <glyph glyph-name="quoteright" unicode="&#x2019;" horiz-adv-x="222" 
d="M108 786q40 0 65 -28.5t25 -75.5q0 -84 -48 -138.5t-126 -62.5v38q38 9 65 37.5t26 64.5q-39 -4 -65 19.5t-26 62.5q0 35 24.5 59t59.5 24z" />
    <glyph glyph-name="quotesinglbase" unicode="&#x201a;" horiz-adv-x="222" 
d="M108 153q40 0 65 -28.5t25 -75.5q0 -84 -48 -138.5t-126 -62.5v38q38 9 65 37.5t26 64.5q-39 -4 -65 19.5t-26 62.5q0 35 24.5 59t59.5 24z" />
    <glyph glyph-name="quotedblleft" unicode="&#x201c;" horiz-adv-x="445" 
d="M114 476q-40 0 -65 28.5t-25 75.5q0 84 48 138.5t126 62.5v-38q-38 -9 -65 -37.5t-26 -64.5q39 4 65 -19.5t26 -62.5q0 -35 -24.5 -59t-59.5 -24zM337 476q-40 0 -65 28.5t-25 75.5q0 84 48 138.5t126 62.5v-38q-38 -9 -65 -37.5t-26 -64.5q39 4 65 -19.5t26 -62.5
q0 -35 -24.5 -59t-59.5 -24z" />
    <glyph glyph-name="quotedblright" unicode="&#x201d;" horiz-adv-x="445" 
d="M108 786q40 0 65 -28.5t25 -75.5q0 -84 -48 -138.5t-126 -62.5v38q38 9 65 37.5t26 64.5q-39 -4 -65 19.5t-26 62.5q0 35 24.5 59t59.5 24zM331 786q40 0 65 -28.5t25 -75.5q0 -84 -48 -138.5t-126 -62.5v38q38 9 65 37.5t26 64.5q-39 -4 -65 19.5t-26 62.5q0 35 24.5 59
t59.5 24z" />
    <glyph glyph-name="quotedblbase" unicode="&#x201e;" horiz-adv-x="445" 
d="M108 153q40 0 65 -28.5t25 -75.5q0 -84 -48 -138.5t-126 -62.5v38q38 9 65 37.5t26 64.5q-39 -4 -65 19.5t-26 62.5q0 35 24.5 59t59.5 24zM331 153q40 0 65 -28.5t25 -75.5q0 -84 -48 -138.5t-126 -62.5v38q38 9 65 37.5t26 64.5q-39 -4 -65 19.5t-26 62.5q0 35 24.5 59
t59.5 24z" />
    <glyph glyph-name="dagger" unicode="&#x2020;" horiz-adv-x="363" 
d="M151 221v289h-127v56h127v140h61v-140h127v-56h-127v-289h-61z" />
    <glyph glyph-name="daggerdbl" unicode="&#x2021;" horiz-adv-x="363" 
d="M212 190h127v-56h-127v-140h-61v140h-127v56h127v320h-127v56h127v140h61v-140h127v-56h-127v-320z" />
    <glyph glyph-name="bullet" unicode="&#x2022;" horiz-adv-x="450" 
d="M227 72q-85 0 -143.5 58.5t-58.5 141.5t59 141.5t143 58.5q82 0 140 -58.5t58 -141.5t-58 -141.5t-140 -58.5z" />
    <glyph glyph-name="ellipsis" unicode="&#x2026;" horiz-adv-x="628" 
d="M108 -14q-35 0 -59.5 24t-24.5 60q0 35 24.5 59t59.5 24q37 0 60.5 -24t23.5 -59q0 -36 -24.5 -60t-59.5 -24zM314 -14q-35 0 -59.5 24t-24.5 60q0 35 24.5 59t59.5 24q37 0 60.5 -24t23.5 -59q0 -36 -24.5 -60t-59.5 -24zM520 -14q-35 0 -59.5 24t-24.5 60q0 35 24.5 59
t59.5 24q37 0 60.5 -24t23.5 -59q0 -36 -24.5 -60t-59.5 -24z" />
    <glyph glyph-name="perthousand" unicode="&#x2030;" horiz-adv-x="1050" 
d="M183 357q-64 0 -106.5 46.5t-42.5 116.5q0 69 42.5 115.5t106.5 46.5t106 -46.5t42 -115.5q0 -70 -42 -116.5t-106 -46.5zM209 0h-53l368 668h53zM183 412q21 0 33 29.5t12 78.5q0 48 -12 77.5t-33 29.5t-33 -29.5t-12 -77.5q0 -49 12 -78.5t33 -29.5zM550 -14
q-64 0 -106.5 46.5t-42.5 116.5q0 69 42.5 115.5t106.5 46.5t106 -46.5t42 -115.5q0 -70 -42 -116.5t-106 -46.5zM868 -14q-64 0 -106.5 46.5t-42.5 116.5q0 69 42.5 115.5t106.5 46.5t106 -46.5t42 -115.5q0 -70 -42 -116.5t-106 -46.5zM550 41q21 0 33 29.5t12 78.5
q0 48 -12 77.5t-33 29.5t-33 -29.5t-12 -77.5q0 -49 12 -78.5t33 -29.5zM868 41q21 0 33 29.5t12 78.5q0 48 -12 77.5t-33 29.5t-33 -29.5t-12 -77.5q0 -49 12 -78.5t33 -29.5z" />
    <glyph glyph-name="guilsinglleft" unicode="&#x2039;" horiz-adv-x="304" 
d="M24 229v60l230 184l46 -40l-123 -174l123 -175l-46 -40z" />
    <glyph glyph-name="guilsinglright" unicode="&#x203a;" horiz-adv-x="304" 
d="M300 229l-230 -185l-46 40l123 175l-123 174l46 40l230 -184v-60z" />
    <glyph glyph-name="fraction" unicode="&#x2044;" horiz-adv-x="141" 
d="M-87 0h-53l368 668h53z" />
    <glyph glyph-name="uni2070" unicode="&#x2070;" horiz-adv-x="398" 
d="M200 776q91 0 138 -60t47 -149t-47 -148.5t-138 -59.5q-92 0 -139.5 59.5t-47.5 148.5t47.5 149t139.5 60zM190 736q-24 0 -38.5 -38t-14.5 -100q0 -99 20.5 -149.5t50.5 -50.5q24 0 38.5 38.5t14.5 100.5q0 98 -20.5 148.5t-50.5 50.5z" />
    <glyph glyph-name="uni2074" unicode="&#x2074;" horiz-adv-x="355" 
d="M277 775v-264h65v-38h-65v-27q0 -26 50 -36v-43h-220v43q57 12 57 36v27h-181v40l187 262h107zM164 696l-128 -185h128v185z" />
    <glyph glyph-name="uni2075" unicode="&#x2075;" horiz-adv-x="337" 
d="M297 768v-97h-214l-14 -106q18 28 50.5 44t64.5 16q65 0 102.5 -33t37.5 -89q0 -144 -175 -144q-37 0 -76.5 15.5t-59.5 48.5l74 49q9 -33 27.5 -52.5t37.5 -19.5q58 0 58 81q0 40 -18.5 64.5t-46.5 24.5q-41 0 -79 -38l-40 17l29 219h242z" />
    <glyph glyph-name="uni2076" unicode="&#x2076;" horiz-adv-x="352" 
d="M187 359q-45 0 -79 16t-51.5 38.5t-28 51.5t-13 48.5t-2.5 37.5q0 36 10 72.5t30.5 72t60.5 58t92 22.5q97 0 136 -69l-73 -48q-25 78 -67 78q-30 0 -50.5 -38t-23.5 -100q20 22 38 29t44 7q57 0 90.5 -37t33.5 -98q0 -63 -38 -102t-109 -39zM186 398q16 0 29 18.5
t13 55.5q0 45 -18 74.5t-50 29.5q-22 0 -33 -3q0 -175 59 -175z" />
    <glyph glyph-name="uni2077" unicode="&#x2077;" horiz-adv-x="341" 
d="M333 768v-40q-67 -100 -96.5 -160.5t-36 -97t-6.5 -103.5h-114q0 32 3.5 58.5t16 52t19.5 40.5t31 40.5t33 34.5t42 38.5t43 38.5h-143q-24 0 -40 -17.5t-31 -59.5h-41l10 175h310z" />
    <glyph glyph-name="uni2078" unicode="&#x2078;" horiz-adv-x="355" 
d="M178 775q68 0 108.5 -29t40.5 -72q0 -49 -91 -89q48 -21 77 -50t29 -60q0 -47 -41 -81.5t-123 -34.5q-73 0 -119 32.5t-46 79.5q0 31 23 52.5t72 44.5q-80 42 -80 98q0 45 39 77t111 32zM178 735q-17 0 -26.5 -15t-9.5 -40q0 -26 13 -42.5t49 -34.5q1 4 4 16.5t5.5 27
t2.5 27.5q0 61 -38 61zM142 553q-13 -42 -13 -82q0 -34 13 -53t36 -19q24 0 37.5 17.5t13.5 47.5q0 29 -16 45t-71 44z" />
    <glyph glyph-name="uni2079" unicode="&#x2079;" horiz-adv-x="352" 
d="M146 359q-97 0 -136 69l73 48q25 -78 67 -78q31 0 50 39t24 99q-20 -22 -38 -29t-44 -7q-57 0 -90.5 37t-33.5 98q0 63 38 102t109 39q45 0 79 -16t51.5 -38.5t28 -51.5t13 -48.5t2.5 -37.5q0 -36 -10 -72.5t-30.5 -72t-60.5 -58t-92 -22.5zM192 559q22 0 33 3v8
q0 167 -59 167q-16 0 -29 -18.5t-13 -55.5q0 -45 18 -74.5t50 -29.5z" />
    <glyph glyph-name="uni207A" unicode="&#x207a;" horiz-adv-x="317" 
d="M293 593v-38h-116v-115h-38v115h-115v38h115v116h38v-116h116z" />
    <glyph glyph-name="uni207B" unicode="&#x207b;" horiz-adv-x="317" 
d="M24 555v38h269v-38h-269z" />
    <glyph glyph-name="uni207C" unicode="&#x207c;" horiz-adv-x="317" 
d="M24 606v38h269v-38h-269zM24 508v38h269v-38h-269z" />
    <glyph glyph-name="uni207D" unicode="&#x207d;" horiz-adv-x="249" 
d="M228 824l16 -23q-51 -25 -80 -98.5t-29 -162.5t29 -162t80 -98l-16 -23q-95 29 -149.5 107.5t-54.5 176.5t54 175.5t150 107.5z" />
    <glyph glyph-name="uni207E" unicode="&#x207e;" horiz-adv-x="244" 
d="M22 824q95 -30 149 -107.5t54 -175.5t-54 -176.5t-149 -107.5l-17 23q52 25 81 98t29 162t-29.5 162.5t-80.5 98.5z" />
    <glyph glyph-name="Euro" unicode="&#x20ac;" horiz-adv-x="713" 
d="M445 91q75 0 129 35t74 75l42 -20q-10 -30 -29.5 -60.5t-52 -62.5t-84 -52t-112.5 -20q-139 0 -231 72.5t-116 190.5h-100v55h93v15q0 31 3 61h-96v55h107q30 112 117 179t218 67q113 0 189 -44t94 -101l-158 -86q-17 83 -53 127.5t-81 44.5q-63 0 -105 -48t-55 -139h195
v-55h-200v-34q0 -22 3 -42h197v-55h-186q24 -76 78.5 -117t119.5 -41z" />
    <glyph glyph-name="uni2116" unicode="&#x2116;" horiz-adv-x="1090" 
d="M890 358q-78 0 -123 44t-45 111q0 73 48.5 121t123.5 48q78 0 123 -44.5t45 -112.5q0 -72 -49 -119.5t-123 -47.5zM700 668v-55q-50 -4 -68 -19.5t-18 -52.5v-541h-75l-359 459v-340q0 -25 19 -41t68 -23v-55h-243v55q49 7 67.5 23t18.5 41v422q0 38 -17.5 53t-68.5 19
v55h223l297 -397v270q0 38 -17.5 53t-68.5 19v55h242zM898 397q44 0 44 112q0 63 -16.5 98.5t-39.5 35.5q-44 0 -44 -111q0 -63 17 -99t39 -36zM719 262v55h332v-55h-332z" />
    <glyph glyph-name="uni2117" unicode="&#x2117;" horiz-adv-x="744" 
d="M371 -14q-143 0 -245 102.5t-102 245.5t102 245.5t245 102.5q144 0 246.5 -102.5t102.5 -245.5t-102.5 -245.5t-246.5 -102.5zM372 41q121 -1 207 85t86 208t-86 208t-207 85q-121 1 -207 -85t-86 -208t86 -208t207 -85zM401 307h-88v-169h-53v405h141q58 0 94.5 -32.5
t36.5 -85.5t-36.5 -85.5t-94.5 -32.5zM313 492v-134h89q36 0 56 17.5t20 49.5t-20 49.5t-56 17.5h-89z" />
    <glyph glyph-name="trademark" unicode="&#x2122;" horiz-adv-x="453" 
d="M85 463v171h-61v34h162v-34h-61v-171h-40zM223 463v205h43l60 -145l61 145h42v-205h-39v121l-49 -121h-29l-51 121v-121h-38z" />
    <glyph glyph-name="uni2126" unicode="&#x2126;" horiz-adv-x="690" 
d="M666 359q0 -87 -49 -173.5t-118 -131.5h148v-54h-239v50q86 42 142.5 129.5t56.5 179.5q0 116 -75 192t-188 76t-187 -76t-74 -192q0 -92 56.5 -180.5t141.5 -128.5v-50h-239v54h145q-67 43 -115 130.5t-48 174.5q0 139 91.5 231.5t228.5 92.5q138 0 230 -92.5t92 -231.5
z" />
    <glyph glyph-name="estimated" unicode="&#x212e;" horiz-adv-x="742" 
d="M380 -14q-151 0 -253.5 100.5t-102.5 247.5q0 148 100 248t247 100q148 0 248 -101t99 -249h-569v-211q39 -43 98.5 -72.5t132.5 -29.5q158 0 249 133l28 -20q-47 -69 -119.5 -107.5t-157.5 -38.5zM594 371v178q-35 40 -94 70t-129 30t-129.5 -30t-92.5 -71v-177h445z
" />
    <glyph glyph-name="oneeighth" unicode="&#x215b;" horiz-adv-x="757" 
d="M190 341q0 -13 10.5 -20.5t37.5 -12.5v-41h-230v41q63 10 63 33v255h-63v33q100 11 141 47h41v-335zM174 0h-53l368 668h53zM580 408q68 0 108.5 -29t40.5 -72q0 -49 -91 -89q48 -21 77 -50t29 -60q0 -47 -41 -81.5t-123 -34.5q-73 0 -119 32.5t-46 79.5q0 31 23 52.5
t72 44.5q-80 42 -80 98q0 45 39 77t111 32zM580 368q-17 0 -26.5 -15t-9.5 -40q0 -26 13 -42.5t49 -34.5q1 4 4 16.5t5.5 27t2.5 27.5q0 61 -38 61zM544 186q-13 -42 -13 -82q0 -34 13 -53t36 -19q24 0 37.5 17.5t13.5 47.5q0 29 -16 45t-71 44z" />
    <glyph glyph-name="threeeighths" unicode="&#x215c;" horiz-adv-x="827" 
d="M156 676q60 0 95.5 -26.5t37.5 -69.5q1 -40 -21.5 -66t-60.5 -28q47 -3 79 -30t32 -76q0 -55 -47 -88t-126 -33q-40 0 -78 15.5t-59 48.5l78 51q5 -34 22 -55t39 -21q24 0 39 20t15 53q0 40 -20.5 62.5t-56.5 22.5h-18l-5 33l24 9q28 10 43.5 25.5t13.5 45.5
q-2 23 -17 37.5t-38 14.5q-46 0 -73 -49l-30 9q7 40 41 67.5t91 27.5zM244 0h-53l368 668h53zM650 408q68 0 108.5 -29t40.5 -72q0 -49 -91 -89q48 -21 77 -50t29 -60q0 -47 -41 -81.5t-123 -34.5q-73 0 -119 32.5t-46 79.5q0 31 23 52.5t72 44.5q-80 42 -80 98q0 45 39 77
t111 32zM650 368q-17 0 -26.5 -15t-9.5 -40q0 -26 13 -42.5t49 -34.5q1 4 4 16.5t5.5 27t2.5 27.5q0 61 -38 61zM614 186q-13 -42 -13 -82q0 -34 13 -53t36 -19q24 0 37.5 17.5t13.5 47.5q0 29 -16 45t-71 44z" />
    <glyph glyph-name="fiveeighths" unicode="&#x215d;" horiz-adv-x="833" 
d="M297 668v-97h-214l-14 -106q18 28 50.5 44t64.5 16q65 0 102.5 -33t37.5 -89q0 -144 -175 -144q-37 0 -76.5 15.5t-59.5 48.5l74 49q9 -33 27.5 -52.5t37.5 -19.5q58 0 58 81q0 40 -18.5 64.5t-46.5 24.5q-41 0 -79 -38l-40 17l29 219h242zM250 0h-53l368 668h53z
M656 408q68 0 108.5 -29t40.5 -72q0 -49 -91 -89q48 -21 77 -50t29 -60q0 -47 -41 -81.5t-123 -34.5q-73 0 -119 32.5t-46 79.5q0 31 23 52.5t72 44.5q-80 42 -80 98q0 45 39 77t111 32zM656 368q-17 0 -26.5 -15t-9.5 -40q0 -26 13 -42.5t49 -34.5q1 4 4 16.5t5.5 27
t2.5 27.5q0 61 -38 61zM620 186q-13 -42 -13 -82q0 -34 13 -53t36 -19q24 0 37.5 17.5t13.5 47.5q0 29 -16 45t-71 44z" />
    <glyph glyph-name="seveneighths" unicode="&#x215e;" horiz-adv-x="797" 
d="M333 668v-40q-67 -100 -96.5 -160.5t-36 -97t-6.5 -103.5h-114q0 32 3.5 58.5t16 52t19.5 40.5t31 40.5t33 34.5t42 38.5t43 38.5h-143q-24 0 -40 -17.5t-31 -59.5h-41l10 175h310zM214 0h-53l368 668h53zM620 408q68 0 108.5 -29t40.5 -72q0 -49 -91 -89q48 -21 77 -50
t29 -60q0 -47 -41 -81.5t-123 -34.5q-73 0 -119 32.5t-46 79.5q0 31 23 52.5t72 44.5q-80 42 -80 98q0 45 39 77t111 32zM620 368q-17 0 -26.5 -15t-9.5 -40q0 -26 13 -42.5t49 -34.5q1 4 4 16.5t5.5 27t2.5 27.5q0 61 -38 61zM584 186q-13 -42 -13 -82q0 -34 13 -53t36 -19
q24 0 37.5 17.5t13.5 47.5q0 29 -16 45t-71 44z" />
    <glyph glyph-name="arrowleft" unicode="&#x2190;" horiz-adv-x="688" 
d="M664 280v-54h-544l216 -207l-39 -39l-273 273l274 273l39 -40l-217 -206h544z" />
    <glyph glyph-name="arrowup" unicode="&#x2191;" horiz-adv-x="594" 
d="M570 341l-39 -39l-207 216v-544h-54v544l-206 -217l-40 39l273 274z" />
    <glyph glyph-name="arrowright" unicode="&#x2192;" horiz-adv-x="688" 
d="M390 526l274 -273l-273 -273l-39 39l216 207h-544v54h544l-217 206z" />
    <glyph glyph-name="arrowdown" unicode="&#x2193;" horiz-adv-x="594" 
d="M530 341l40 -39l-273 -274l-273 273l39 39l207 -216v544h54v-544z" />
    <glyph glyph-name="arrowboth" unicode="&#x2194;" horiz-adv-x="1034" 
d="M736 526l274 -273l-273 -273l-39 39l216 207h-794l216 -207l-39 -39l-273 273l274 273l39 -40l-217 -206h794l-217 206z" />
    <glyph glyph-name="arrowupdn" unicode="&#x2195;" horiz-adv-x="594" 
d="M324 -58l206 217l40 -39l-273 -274l-273 273l39 39l207 -216v794l-207 -216l-39 39l273 273l273 -274l-40 -39l-206 217v-794z" />
    <glyph glyph-name="uni2196" unicode="&#x2196;" horiz-adv-x="520" 
d="M496 25l-38 -38l-385 385l7 -300h-56v386h387l-1 -56l-298 7z" />
    <glyph glyph-name="uni2197" unicode="&#x2197;" horiz-adv-x="520" 
d="M109 458h387v-386h-56l7 300l-385 -385l-38 38l384 384l-298 -7z" />
    <glyph glyph-name="uni2198" unicode="&#x2198;" horiz-adv-x="519" 
d="M439 391l56 1v-387h-386v56l300 -7l-385 385l38 38l384 -384z" />
    <glyph glyph-name="uni2199" unicode="&#x2199;" horiz-adv-x="519" 
d="M495 439l-385 -385l300 7v-56h-386v387l56 -1l-7 -298l384 384z" />
    <glyph glyph-name="partialdiff" unicode="&#x2202;" horiz-adv-x="509" 
d="M198 682q132 -3 209.5 -104t77.5 -277q0 -147 -64 -231t-171 -84q-99 0 -162.5 64.5t-63.5 165.5t63.5 166.5t162.5 65.5q58 0 110.5 -35.5t69.5 -90.5q0 131 -65 216.5t-167 87.5v56zM250 43q72 0 118 49t46 125t-46 124.5t-118 48.5q-71 0 -117 -48.5t-46 -124.5
t46 -125t117 -49z" />
    <glyph glyph-name="uni2206" unicode="&#x2206;" horiz-adv-x="664" 
d="M353 668l287 -668h-616l287 668h42zM107 55h450l-224 533z" />
    <glyph glyph-name="product" unicode="&#x220f;" horiz-adv-x="511" 
d="M24 0v668h463v-668h-55v613h-353v-613h-55z" />
    <glyph glyph-name="summation" unicode="&#x2211;" horiz-adv-x="499" 
d="M24 0v51l251 283l-251 283v51h451v-55h-377l234 -259v-39l-233 -260h376v-55h-451z" />
    <glyph glyph-name="minus" unicode="&#x2212;" horiz-adv-x="490" 
d="M24 312v55h442v-55h-442z" />
    <glyph glyph-name="radical" unicode="&#x221a;" horiz-adv-x="529" 
d="M224 0l-104 319h-96v55h136l95 -294l194 588h56l-218 -668h-63z" />
    <glyph glyph-name="infinity" unicode="&#x221e;" horiz-adv-x="859" 
d="M636 512q89 0 144 -52t55 -137t-55 -137t-144 -52q-121 0 -207 132q-86 -132 -207 -132q-89 0 -143.5 52t-54.5 137t54.5 137t143.5 52q121 0 207 -132q86 132 207 132zM222 190q103 0 176 133q-73 133 -176 133q-65 0 -101.5 -36t-36.5 -97t36.5 -97t101.5 -36zM636 190
q65 0 102 36t37 97t-37 97t-102 36q-101 0 -174 -133q73 -133 174 -133z" />
    <glyph glyph-name="integral" unicode="&#x222b;" horiz-adv-x="281" 
d="M24 -198v55h26q29 0 46 23t17 61v657q0 62 32.5 100.5t85.5 38.5h26v-55h-26q-29 0 -46 -23t-17 -61v-657q0 -62 -32.5 -100.5t-85.5 -38.5h-26z" />
    <glyph glyph-name="approxequal" unicode="&#x2248;" horiz-adv-x="530" 
d="M24 444q66 67 135 67q41 0 108.5 -32t101.5 -32q66 0 137 83v-68q-65 -69 -137 -69q-41 0 -108.5 32.5t-100.5 32.5q-63 0 -134 -80zM24 248q68 69 135 69q41 0 108.5 -32.5t101.5 -32.5q65 0 137 82v-67q-66 -70 -137 -70q-41 0 -108 32.5t-101 32.5q-62 0 -134 -79z
" />
    <glyph glyph-name="notequal" unicode="&#x2260;" horiz-adv-x="490" 
d="M466 397h-168l-41 -108h209v-55h-230l-56 -148h-63l56 148h-149v55h170l41 108h-211v55h231l56 147h63l-56 -147h148v-55z" />
    <glyph glyph-name="lessequal" unicode="&#x2264;" horiz-adv-x="513" 
d="M124 387l365 -188l-22 -51l-415 211v56l415 211l22 -51zM466 0h-442v55h442v-55z" />
    <glyph glyph-name="greaterequal" unicode="&#x2265;" horiz-adv-x="513" 
d="M389 387l-365 188l22 51l415 -211v-56l-415 -211l-22 51zM47 0v55h442v-55h-442z" />
    <glyph glyph-name="uni2460" unicode="&#x2460;" horiz-adv-x="736" 
d="M363 -14q-143 0 -245 102.5t-102 245.5t102 245.5t245 102.5q144 0 246.5 -102.5t102.5 -245.5t-102.5 -245.5t-246.5 -102.5zM364 41q121 -1 207 85t86 208t-86 208t-207 85q-121 1 -207 -85t-86 -208t86 -208t207 -85zM428 223q0 -13 10.5 -20.5t37.5 -12.5v-41h-230
v41q63 10 63 33v255h-63v33q100 11 141 47h41v-335z" />
    <glyph glyph-name="uni2461" unicode="&#x2461;" horiz-adv-x="736" 
d="M363 -14q-143 0 -245 102.5t-102 245.5t102 245.5t245 102.5q144 0 246.5 -102.5t102.5 -245.5t-102.5 -245.5t-246.5 -102.5zM364 41q121 -1 207 85t86 208t-86 208t-207 85q-121 1 -207 -85t-86 -208t86 -208t207 -85zM359 558q68 0 105.5 -34.5t37.5 -90.5
q0 -44 -26.5 -74.5t-59 -43t-69 -30t-49.5 -36.5h122q24 0 36.5 11.5t21.5 42.5h43l-14 -154h-295v39l45 57q14 18 42.5 51.5t43 51.5t27 41.5t12.5 40.5q0 31 -16 50t-42 19q-52 0 -71 -58l-37 11q2 34 42 70t101 36z" />
    <glyph glyph-name="uni2462" unicode="&#x2462;" horiz-adv-x="736" 
d="M363 -14q-143 0 -245 102.5t-102 245.5t102 245.5t245 102.5q144 0 246.5 -102.5t102.5 -245.5t-102.5 -245.5t-246.5 -102.5zM364 41q121 -1 207 85t86 208t-86 208t-207 85q-121 1 -207 -85t-86 -208t86 -208t207 -85zM360 558q60 0 95.5 -26.5t37.5 -69.5
q1 -40 -21.5 -66t-60.5 -28q47 -3 79 -30t32 -76q0 -55 -47 -88t-126 -33q-40 0 -78 15.5t-59 48.5l78 51q5 -34 22 -55t39 -21q24 0 39 20t15 53q0 40 -20.5 62.5t-56.5 22.5h-18l-5 33l24 9q28 10 43.5 25.5t13.5 45.5q-2 23 -17 37.5t-38 14.5q-46 0 -73 -49l-30 9
q7 40 41 67.5t91 27.5z" />
    <glyph glyph-name="uni2463" unicode="&#x2463;" horiz-adv-x="728" 
d="M355 -14q-143 0 -245 102.5t-102 245.5t102 245.5t245 102.5q144 0 246.5 -102.5t102.5 -245.5t-102.5 -245.5t-246.5 -102.5zM356 41q121 -1 207 85t86 208t-86 208t-207 85q-121 1 -207 -85t-86 -208t86 -208t207 -85zM441 557v-264h65v-38h-65v-27q0 -26 50 -36v-43
h-220v43q57 12 57 36v27h-181v40l187 262h107zM328 478l-128 -185h128v185z" />
    <glyph glyph-name="uni2464" unicode="&#x2464;" horiz-adv-x="744" 
d="M371 -14q-143 0 -245 102.5t-102 245.5t102 245.5t245 102.5q144 0 246.5 -102.5t102.5 -245.5t-102.5 -245.5t-246.5 -102.5zM372 41q121 -1 207 85t86 208t-86 208t-207 85q-121 1 -207 -85t-86 -208t86 -208t207 -85zM495 550v-97h-214l-14 -106q18 28 50.5 44
t64.5 16q65 0 102.5 -33t37.5 -89q0 -144 -175 -144q-37 0 -76.5 15.5t-59.5 48.5l74 49q9 -33 27.5 -52.5t37.5 -19.5q58 0 58 81q0 40 -18.5 64.5t-46.5 24.5q-41 0 -79 -38l-40 17l29 219h242z" />
    <glyph glyph-name="uni2465" unicode="&#x2465;" horiz-adv-x="744" 
d="M371 -14q-143 0 -245 102.5t-102 245.5t102 245.5t245 102.5q144 0 246.5 -102.5t102.5 -245.5t-102.5 -245.5t-246.5 -102.5zM372 41q121 -1 207 85t86 208t-86 208t-207 85q-121 1 -207 -85t-86 -208t86 -208t207 -85zM378 141q-45 0 -79 16t-51.5 38.5t-28 51.5
t-13 48.5t-2.5 37.5q0 36 10 72.5t30.5 72t60.5 58t92 22.5q97 0 136 -69l-73 -48q-25 78 -67 78q-30 0 -50.5 -38t-23.5 -100q20 22 38 29t44 7q57 0 90.5 -37t33.5 -98q0 -63 -38 -102t-109 -39zM377 180q16 0 29 18.5t13 55.5q0 45 -18 74.5t-50 29.5q-22 0 -33 -3
q0 -175 59 -175z" />
    <glyph glyph-name="uni2466" unicode="&#x2466;" horiz-adv-x="744" 
d="M371 -14q-143 0 -245 102.5t-102 245.5t102 245.5t245 102.5q144 0 246.5 -102.5t102.5 -245.5t-102.5 -245.5t-246.5 -102.5zM372 41q121 -1 207 85t86 208t-86 208t-207 85q-121 1 -207 -85t-86 -208t86 -208t207 -85zM532 550v-40q-67 -100 -96.5 -160.5t-36 -97
t-6.5 -103.5h-114q0 32 3.5 58.5t16 52t19.5 40.5t31 40.5t33 34.5t42 38.5t43 38.5h-143q-24 0 -40 -17.5t-31 -59.5h-41l10 175h310z" />
    <glyph glyph-name="uni2467" unicode="&#x2467;" horiz-adv-x="744" 
d="M371 -14q-143 0 -245 102.5t-102 245.5t102 245.5t245 102.5q144 0 246.5 -102.5t102.5 -245.5t-102.5 -245.5t-246.5 -102.5zM372 41q121 -1 207 85t86 208t-86 208t-207 85q-121 1 -207 -85t-86 -208t86 -208t207 -85zM373 557q68 0 108.5 -29t40.5 -72q0 -49 -91 -89
q48 -21 77 -50t29 -60q0 -47 -41 -81.5t-123 -34.5q-73 0 -119 32.5t-46 79.5q0 31 23 52.5t72 44.5q-80 42 -80 98q0 45 39 77t111 32zM373 517q-17 0 -26.5 -15t-9.5 -40q0 -26 13 -42.5t49 -34.5q1 4 4 16.5t5.5 27t2.5 27.5q0 61 -38 61zM337 335q-13 -42 -13 -82
q0 -34 13 -53t36 -19q24 0 37.5 17.5t13.5 47.5q0 29 -16 45t-71 44z" />
    <glyph glyph-name="uni2468" unicode="&#x2468;" horiz-adv-x="744" 
d="M371 -14q-143 0 -245 102.5t-102 245.5t102 245.5t245 102.5q144 0 246.5 -102.5t102.5 -245.5t-102.5 -245.5t-246.5 -102.5zM372 41q121 -1 207 85t86 208t-86 208t-207 85q-121 1 -207 -85t-86 -208t86 -208t207 -85zM345 141q-97 0 -136 69l73 48q25 -78 67 -78
q31 0 50 39t24 99q-20 -22 -38 -29t-44 -7q-57 0 -90.5 37t-33.5 98q0 63 38 102t109 39q45 0 79 -16t51.5 -38.5t28 -51.5t13 -48.5t2.5 -37.5q0 -36 -10 -72.5t-30.5 -72t-60.5 -58t-92 -22.5zM391 341q22 0 33 3v8q0 167 -59 167q-16 0 -29 -18.5t-13 -55.5
q0 -45 18 -74.5t50 -29.5z" />
    <glyph glyph-name="lozenge" unicode="&#x25ca;" horiz-adv-x="484" 
d="M211 0l-187 334l187 334h62l187 -334l-187 -334h-62zM242 61l155 273l-155 273l-155 -273z" />
    <glyph glyph-name="circle" unicode="&#x25cb;" horiz-adv-x="744" 
d="M371 -14q-143 0 -245 102.5t-102 245.5t102 245.5t245 102.5q144 0 246.5 -102.5t102.5 -245.5t-102.5 -245.5t-246.5 -102.5zM372 41q121 -1 207 85t86 208t-86 208t-207 85q-121 1 -207 -85t-86 -208t86 -208t207 -85z" />
    <glyph glyph-name="uni25CF" unicode="&#x25cf;" horiz-adv-x="744" 
d="M371 -14q144 0 246.5 102.5t102.5 245.5t-102.5 245.5t-246.5 102.5q-143 0 -245 -102.5t-102 -245.5t102 -245.5t245 -102.5z" />
    <glyph glyph-name="uni2776" unicode="&#x2776;" horiz-adv-x="736" 
d="M363 -14q144 0 246.5 102.5t102.5 245.5t-102.5 245.5t-246.5 102.5q-143 0 -245 -102.5t-102 -245.5t102 -245.5t245 -102.5zM428 223q0 -13 10.5 -20.5t37.5 -12.5v-41h-230v41q63 10 63 33v255h-63v33q100 11 141 47h41v-335z" />
    <glyph glyph-name="uni2777" unicode="&#x2777;" horiz-adv-x="736" 
d="M363 -14q144 0 246.5 102.5t102.5 245.5t-102.5 245.5t-246.5 102.5q-143 0 -245 -102.5t-102 -245.5t102 -245.5t245 -102.5zM359 558q68 0 105.5 -34.5t37.5 -90.5q0 -44 -26.5 -74.5t-59 -43t-69 -30t-49.5 -36.5h122q24 0 36.5 11.5t21.5 42.5h43l-14 -154h-295v39
l45 57q14 18 42.5 51.5t43 51.5t27 41.5t12.5 40.5q0 31 -16 50t-42 19q-52 0 -71 -58l-37 11q2 34 42 70t101 36z" />
    <glyph glyph-name="uni2778" unicode="&#x2778;" horiz-adv-x="736" 
d="M363 -14q144 0 246.5 102.5t102.5 245.5t-102.5 245.5t-246.5 102.5q-143 0 -245 -102.5t-102 -245.5t102 -245.5t245 -102.5zM360 558q60 0 95.5 -26.5t37.5 -69.5q1 -40 -21.5 -66t-60.5 -28q47 -3 79 -30t32 -76q0 -55 -47 -88t-126 -33q-40 0 -78 15.5t-59 48.5
l78 51q5 -34 22 -55t39 -21q24 0 39 20t15 53q0 40 -20.5 62.5t-56.5 22.5h-18l-5 33l24 9q28 10 43.5 25.5t13.5 45.5q-2 23 -17 37.5t-38 14.5q-46 0 -73 -49l-30 9q7 40 41 67.5t91 27.5z" />
    <glyph glyph-name="uni2779" unicode="&#x2779;" horiz-adv-x="728" 
d="M355 -14q144 0 246.5 102.5t102.5 245.5t-102.5 245.5t-246.5 102.5q-143 0 -245 -102.5t-102 -245.5t102 -245.5t245 -102.5zM441 557v-264h65v-38h-65v-27q0 -26 50 -36v-43h-220v43q57 12 57 36v27h-181v40l187 262h107zM328 478l-128 -185h128v185z" />
    <glyph glyph-name="uni277A" unicode="&#x277a;" horiz-adv-x="744" 
d="M371 -14q144 0 246.5 102.5t102.5 245.5t-102.5 245.5t-246.5 102.5q-143 0 -245 -102.5t-102 -245.5t102 -245.5t245 -102.5zM495 550v-97h-214l-14 -106q18 28 50.5 44t64.5 16q65 0 102.5 -33t37.5 -89q0 -144 -175 -144q-37 0 -76.5 15.5t-59.5 48.5l74 49
q9 -33 27.5 -52.5t37.5 -19.5q58 0 58 81q0 40 -18.5 64.5t-46.5 24.5q-41 0 -79 -38l-40 17l29 219h242z" />
    <glyph glyph-name="uni277B" unicode="&#x277b;" horiz-adv-x="744" 
d="M371 -14q144 0 246.5 102.5t102.5 245.5t-102.5 245.5t-246.5 102.5q-143 0 -245 -102.5t-102 -245.5t102 -245.5t245 -102.5zM378 141q-45 0 -79 16t-51.5 38.5t-28 51.5t-13 48.5t-2.5 37.5q0 36 10 72.5t30.5 72t60.5 58t92 22.5q97 0 136 -69l-73 -48q-25 78 -67 78
q-30 0 -50.5 -38t-23.5 -100q20 22 38 29t44 7q57 0 90.5 -37t33.5 -98q0 -63 -38 -102t-109 -39zM377 180q16 0 29 18.5t13 55.5q0 45 -18 74.5t-50 29.5q-22 0 -33 -3q0 -175 59 -175z" />
    <glyph glyph-name="uni277C" unicode="&#x277c;" horiz-adv-x="744" 
d="M371 -14q144 0 246.5 102.5t102.5 245.5t-102.5 245.5t-246.5 102.5q-143 0 -245 -102.5t-102 -245.5t102 -245.5t245 -102.5zM532 550v-40q-67 -100 -96.5 -160.5t-36 -97t-6.5 -103.5h-114q0 32 3.5 58.5t16 52t19.5 40.5t31 40.5t33 34.5t42 38.5t43 38.5h-143
q-24 0 -40 -17.5t-31 -59.5h-41l10 175h310z" />
    <glyph glyph-name="uni277D" unicode="&#x277d;" horiz-adv-x="744" 
d="M371 -14q144 0 246.5 102.5t102.5 245.5t-102.5 245.5t-246.5 102.5q-143 0 -245 -102.5t-102 -245.5t102 -245.5t245 -102.5zM373 557q68 0 108.5 -29t40.5 -72q0 -49 -91 -89q48 -21 77 -50t29 -60q0 -47 -41 -81.5t-123 -34.5q-73 0 -119 32.5t-46 79.5q0 31 23 52.5
t72 44.5q-80 42 -80 98q0 45 39 77t111 32zM373 517q-17 0 -26.5 -15t-9.5 -40q0 -26 13 -42.5t49 -34.5q1 4 4 16.5t5.5 27t2.5 27.5q0 61 -38 61zM337 335q-13 -42 -13 -82q0 -34 13 -53t36 -19q24 0 37.5 17.5t13.5 47.5q0 29 -16 45t-71 44z" />
    <glyph glyph-name="uni277E" unicode="&#x277e;" horiz-adv-x="744" 
d="M371 -14q144 0 246.5 102.5t102.5 245.5t-102.5 245.5t-246.5 102.5q-143 0 -245 -102.5t-102 -245.5t102 -245.5t245 -102.5zM345 141q-97 0 -136 69l73 48q25 -78 67 -78q31 0 50 39t24 99q-20 -22 -38 -29t-44 -7q-57 0 -90.5 37t-33.5 98q0 63 38 102t109 39
q45 0 79 -16t51.5 -38.5t28 -51.5t13 -48.5t2.5 -37.5q0 -36 -10 -72.5t-30.5 -72t-60.5 -58t-92 -22.5zM391 341q22 0 33 3v8q0 167 -59 167q-16 0 -29 -18.5t-13 -55.5q0 -45 18 -74.5t50 -29.5z" />
    <glyph glyph-name="uniF8FF" unicode="&#xf8ff;" horiz-adv-x="744" 
d="M587 252q54 0 93.5 -39.5t39.5 -94.5q0 -54 -39 -93t-94 -39t-94.5 39t-39.5 93v83h-163v-83q0 -54 -39.5 -93t-94.5 -39t-93.5 38.5t-38.5 93.5t39 94.5t93 39.5h83v163h-83q-54 0 -93 39.5t-39 94.5t39 94t93 39q55 0 94.5 -39.5t39.5 -93.5v-83h163v83q0 54 39.5 93.5
t94.5 39.5t94 -39t39 -94t-39.5 -94.5t-93.5 -39.5h-83v-163h83zM156 466h83v83q0 34 -24 57.5t-59 23.5q-34 0 -57 -23.5t-23 -57.5q0 -35 23 -59t57 -24zM504 549v-83h83q34 0 57.5 24t23.5 59q0 34 -23.5 57.5t-57.5 23.5q-35 0 -59 -23.5t-24 -57.5zM290 252h163v163
h-163v-163zM239 118v83h-83q-34 0 -57 -24t-23 -59q0 -34 23 -57t57 -23q35 0 59 23t24 57zM587 38q34 0 57.5 23t23.5 57q0 35 -23.5 59t-57.5 24h-83v-83q0 -34 24 -57t59 -23z" />
    <glyph glyph-name="G.ss11" horiz-adv-x="718" 
d="M669 357v-235q-43 -61 -123.5 -98.5t-168.5 -37.5q-159 0 -254.5 95t-97.5 238q-2 157 91 259.5t256 102.5q123 0 201.5 -37.5t99.5 -107.5l-158 -86q-18 90 -55 131t-98 41q-76 0 -119 -71.5t-42 -204.5q1 -123 65 -203t155 -80q40 0 80 14v152q0 37 -19.5 53t-73.5 20
v55h261z" />
    <glyph glyph-name="Gbreve.ss11" horiz-adv-x="718" 
d="M365 710q-71 0 -110.5 47.5t-37.5 126.5h47q16 -67 101 -67t101 67h47q2 -79 -37.5 -126.5t-110.5 -47.5zM669 357v-235q-43 -61 -123.5 -98.5t-168.5 -37.5q-159 0 -254.5 95t-97.5 238q-2 157 91 259.5t256 102.5q123 0 201.5 -37.5t99.5 -107.5l-158 -86
q-18 90 -55 131t-98 41q-76 0 -119 -71.5t-42 -204.5q1 -123 65 -203t155 -80q40 0 80 14v152q0 37 -19.5 53t-73.5 20v55h261z" />
    <glyph glyph-name="Gcircumflex.ss11" horiz-adv-x="718" 
d="M359 810l-94 -87h-80l94 161h159l106 -161h-92zM408 302v55h261v-235q-43 -61 -123.5 -98.5t-168.5 -37.5q-159 0 -254.5 95t-97.5 238q-2 157 91 259.5t256 102.5q123 0 201.5 -37.5t99.5 -107.5l-158 -86q-18 90 -55 131t-98 41q-76 0 -119 -71.5t-42 -204.5
q1 -123 65 -203t155 -80q40 0 80 14v152q0 37 -19.5 53t-73.5 20z" />
    <glyph glyph-name="uni0122.ss11" horiz-adv-x="718" 
d="M669 357v-235q-43 -61 -123.5 -98.5t-168.5 -37.5q-159 0 -254.5 95t-97.5 238q-2 157 91 259.5t256 102.5q123 0 201.5 -37.5t99.5 -107.5l-158 -86q-18 90 -55 131t-98 41q-76 0 -119 -71.5t-42 -204.5q1 -123 65 -203t155 -80q40 0 80 14v152q0 37 -19.5 53t-73.5 20
v55h261zM461 -35q19 -72 -31.5 -125.5t-129.5 -81.5l-27 20q26 31 30.5 87t-19.5 90z" />
    <glyph glyph-name="Gdotaccent.ss11" horiz-adv-x="718" 
d="M366 731q-43 0 -71.5 27.5t-28.5 68.5q0 40 28.5 67t71.5 27t71.5 -27t28.5 -67q0 -41 -28.5 -68.5t-71.5 -27.5zM669 357v-235q-43 -61 -123.5 -98.5t-168.5 -37.5q-159 0 -254.5 95t-97.5 238q-2 157 91 259.5t256 102.5q123 0 201.5 -37.5t99.5 -107.5l-158 -86
q-18 90 -55 131t-98 41q-76 0 -119 -71.5t-42 -204.5q1 -123 65 -203t155 -80q40 0 80 14v152q0 37 -19.5 53t-73.5 20v55h261z" />
    <glyph glyph-name="M.titl" horiz-adv-x="1007" 
d="M846 668l60 -549q2 -26 20.5 -41.5t66.5 -22.5v-55h-340v55q49 7 68 22t16 42l-41 376l-230 -495h-73l-196 495l-42 -376q-3 -26 20.5 -41t81.5 -23v-55h-243v55q48 7 65.5 22.5t20.5 41.5l61 549h148l187 -472l220 472h130z" />
    <glyph glyph-name="i.loclTRK" horiz-adv-x="340" 
d="M167 573q-43 0 -71.5 27.5t-28.5 68.5q0 40 28.5 67t71.5 27t71.5 -27t28.5 -67q0 -41 -28.5 -68.5t-71.5 -27.5zM247 117q0 -29 12 -41.5t49 -20.5v-55h-284v55q37 8 49 20.5t12 41.5v257q0 23 -10 36t-36 22l-15 5v45l188 42h35v-407z" />
    <glyph glyph-name="germandbls.calt" horiz-adv-x="725" 
d="M448 -14q-103 0 -160 66l31 40q28 -25 52 -35.5t61 -10.5q45 0 73.5 35t28.5 97q0 60 -51.5 105.5t-163.5 39.5l-11 52l207 238h-273v-613h-218v55q32 7 41.5 22t9.5 42v430q0 27 -9.5 42t-41.5 22v55h567l10 -54l-159 -185q105 0 174 -64.5t69 -152.5q0 -100 -67 -163
t-170 -63z" />
    <glyph glyph-name="a.ss01" horiz-adv-x="631" 
d="M576 91h31v-55l-196 -50h-35v70q-20 -32 -54 -51t-74 -19q-108 0 -166 72.5t-58 179.5q0 130 71.5 208t184.5 78q98 0 139 -58l49 58h70v-374q0 -32 8.5 -45.5t29.5 -13.5zM301 73q27 0 41.5 4.5t33.5 19.5v207q0 82 -20 118.5t-66 36.5q-43 0 -70.5 -48.5t-27.5 -135.5
q0 -86 27.5 -144t81.5 -58z" />
    <glyph glyph-name="aacute.ss01" horiz-adv-x="631" 
d="M480 726l-147 -161h-99l64 161h182zM576 91h31v-55l-196 -50h-35v70q-20 -32 -54 -51t-74 -19q-108 0 -166 72.5t-58 179.5q0 130 71.5 208t184.5 78q98 0 139 -58l49 58h70v-374q0 -32 8.5 -45.5t29.5 -13.5zM301 73q27 0 41.5 4.5t33.5 19.5v207q0 82 -20 118.5
t-66 36.5q-43 0 -70.5 -48.5t-27.5 -135.5q0 -86 27.5 -144t81.5 -58z" />
    <glyph glyph-name="abreve.ss01" horiz-adv-x="631" 
d="M318 552q-71 0 -110.5 47.5t-37.5 126.5h47q16 -67 101 -67t101 67h47q2 -79 -37.5 -126.5t-110.5 -47.5zM576 91h31v-55l-196 -50h-35v70q-20 -32 -54 -51t-74 -19q-108 0 -166 72.5t-58 179.5q0 130 71.5 208t184.5 78q98 0 139 -58l49 58h70v-374q0 -32 8.5 -45.5
t29.5 -13.5zM301 73q27 0 41.5 4.5t33.5 19.5v207q0 82 -20 118.5t-66 36.5q-43 0 -70.5 -48.5t-27.5 -135.5q0 -86 27.5 -144t81.5 -58z" />
    <glyph glyph-name="acircumflex.ss01" horiz-adv-x="631" 
d="M312 652l-94 -87h-80l94 161h159l106 -161h-92zM576 91h31v-55l-196 -50h-35v70q-20 -32 -54 -51t-74 -19q-108 0 -166 72.5t-58 179.5q0 130 71.5 208t184.5 78q98 0 139 -58l49 58h70v-374q0 -32 8.5 -45.5t29.5 -13.5zM301 73q27 0 41.5 4.5t33.5 19.5v207
q0 82 -20 118.5t-66 36.5q-43 0 -70.5 -48.5t-27.5 -135.5q0 -86 27.5 -144t81.5 -58z" />
    <glyph glyph-name="adieresis.ss01" horiz-adv-x="631" 
d="M202 572q-39 0 -64.5 24.5t-25.5 61.5q0 36 25.5 60.5t64.5 24.5t64.5 -24.5t25.5 -60.5q0 -37 -25.5 -61.5t-64.5 -24.5zM428 572q-39 0 -64.5 24.5t-25.5 61.5q0 36 25.5 60.5t64.5 24.5t64.5 -24.5t25.5 -60.5q0 -37 -25.5 -61.5t-64.5 -24.5zM576 91h31v-55l-196 -50
h-35v70q-20 -32 -54 -51t-74 -19q-108 0 -166 72.5t-58 179.5q0 130 71.5 208t184.5 78q98 0 139 -58l49 58h70v-374q0 -32 8.5 -45.5t29.5 -13.5zM301 73q27 0 41.5 4.5t33.5 19.5v207q0 82 -20 118.5t-66 36.5q-43 0 -70.5 -48.5t-27.5 -135.5q0 -86 27.5 -144t81.5 -58z
" />
    <glyph glyph-name="agrave.ss01" horiz-adv-x="631" 
d="M393 565h-99l-147 161h182zM576 91h31v-55l-196 -50h-35v70q-20 -32 -54 -51t-74 -19q-108 0 -166 72.5t-58 179.5q0 130 71.5 208t184.5 78q98 0 139 -58l49 58h70v-374q0 -32 8.5 -45.5t29.5 -13.5zM301 73q27 0 41.5 4.5t33.5 19.5v207q0 82 -20 118.5t-66 36.5
q-43 0 -70.5 -48.5t-27.5 -135.5q0 -86 27.5 -144t81.5 -58z" />
    <glyph glyph-name="amacron.ss01" horiz-adv-x="631" 
d="M478 668v-85h-321v85h321zM576 91h31v-55l-196 -50h-35v70q-20 -32 -54 -51t-74 -19q-108 0 -166 72.5t-58 179.5q0 130 71.5 208t184.5 78q98 0 139 -58l49 58h70v-374q0 -32 8.5 -45.5t29.5 -13.5zM301 73q27 0 41.5 4.5t33.5 19.5v207q0 82 -20 118.5t-66 36.5
q-43 0 -70.5 -48.5t-27.5 -135.5q0 -86 27.5 -144t81.5 -58z" />
    <glyph glyph-name="aogonek.ss01" horiz-adv-x="631" 
d="M625 -149l10 -20q-17 -18 -52.5 -30.5t-66.5 -12.5q-51 0 -83.5 19t-32.5 53q0 77 159 164l-148 -38h-35v70q-20 -32 -54 -51t-74 -19q-108 0 -166 72.5t-58 179.5q0 130 71.5 208t184.5 78q98 0 139 -58l49 58h70v-374q0 -32 8.5 -45.5t29.5 -13.5h31v-55
q-90 -95 -90 -148q0 -36 31 -49t77 12zM301 73q27 0 41.5 4.5t33.5 19.5v207q0 82 -20 118.5t-66 36.5q-43 0 -70.5 -48.5t-27.5 -135.5q0 -86 27.5 -144t81.5 -58z" />
    <glyph glyph-name="aring.ss01" horiz-adv-x="631" 
d="M318 553q-50 0 -83.5 30.5t-33.5 76.5t33.5 77t83.5 31t83.5 -31t33.5 -77t-33.5 -76.5t-83.5 -30.5zM318 727q-27 0 -45.5 -19t-18.5 -47q0 -30 18.5 -49t45.5 -19q28 0 46.5 19t18.5 49q0 28 -18.5 47t-46.5 19zM576 91h31v-55l-196 -50h-35v70q-20 -32 -54 -51
t-74 -19q-108 0 -166 72.5t-58 179.5q0 130 71.5 208t184.5 78q98 0 139 -58l49 58h70v-374q0 -32 8.5 -45.5t29.5 -13.5zM301 73q27 0 41.5 4.5t33.5 19.5v207q0 82 -20 118.5t-66 36.5q-43 0 -70.5 -48.5t-27.5 -135.5q0 -86 27.5 -144t81.5 -58z" />
    <glyph glyph-name="aringacute.ss01" horiz-adv-x="631" 
d="M318 553q-50 0 -83.5 30.5t-33.5 76.5q0 63 55 93l64 161h182l-140 -153q33 -12 53 -39t20 -62q0 -46 -33.5 -76.5t-83.5 -30.5zM318 727q-27 0 -45.5 -19t-18.5 -47q0 -30 18.5 -49t45.5 -19q28 0 46.5 19t18.5 49q0 28 -18.5 47t-46.5 19zM576 91h31v-55l-196 -50h-35
v70q-20 -32 -54 -51t-74 -19q-108 0 -166 72.5t-58 179.5q0 130 71.5 208t184.5 78q98 0 139 -58l49 58h70v-374q0 -32 8.5 -45.5t29.5 -13.5zM301 73q27 0 41.5 4.5t33.5 19.5v207q0 82 -20 118.5t-66 36.5q-43 0 -70.5 -48.5t-27.5 -135.5q0 -86 27.5 -144t81.5 -58z" />
    <glyph glyph-name="atilde.ss01" horiz-adv-x="631" 
d="M213 604q-17 0 -25 -10.5t-15 -41.5l-46 9q2 63 36 107.5t81 44.5q30 0 93 -25t86 -25q14 0 22.5 12t17.5 45l47 -9q-5 -67 -37.5 -111t-76.5 -44t-99.5 24t-83.5 24zM576 91h31v-55l-196 -50h-35v70q-20 -32 -54 -51t-74 -19q-108 0 -166 72.5t-58 179.5q0 130 71.5 208
t184.5 78q98 0 139 -58l49 58h70v-374q0 -32 8.5 -45.5t29.5 -13.5zM301 73q27 0 41.5 4.5t33.5 19.5v207q0 82 -20 118.5t-66 36.5q-43 0 -70.5 -48.5t-27.5 -135.5q0 -86 27.5 -144t81.5 -58z" />
    <glyph glyph-name="ae.ss01" horiz-adv-x="921" 
d="M708 98q44 0 83.5 22.5t57.5 59.5l42 -19q-22 -75 -83.5 -125t-152.5 -50q-106 0 -172 63l-72 -63h-30v70q-20 -32 -54 -51t-74 -19q-108 0 -166 72.5t-58 179.5q0 130 71.5 208t184.5 78q98 0 139 -58l49 58h40v-47q64 47 157 47q112 0 166.5 -69.5t55.5 -190.5h-329
q7 -79 45.5 -122.5t99.5 -43.5zM653 466q-37 0 -60.5 -36.5t-28.5 -103.5h169q-5 140 -80 140zM306 73q27 0 41.5 4.5t33.5 19.5v207q0 82 -20 118.5t-66 36.5q-43 0 -70.5 -48.5t-27.5 -135.5q0 -86 27.5 -144t81.5 -58z" />
    <glyph glyph-name="aeacute.ss01" horiz-adv-x="921" 
d="M611 726l-147 -161h-99l64 161h182zM708 98q44 0 83.5 22.5t57.5 59.5l42 -19q-22 -75 -83.5 -125t-152.5 -50q-106 0 -172 63l-72 -63h-30v70q-20 -32 -54 -51t-74 -19q-108 0 -166 72.5t-58 179.5q0 130 71.5 208t184.5 78q98 0 139 -58l49 58h40v-47q64 47 157 47
q112 0 166.5 -69.5t55.5 -190.5h-329q7 -79 45.5 -122.5t99.5 -43.5zM653 466q-37 0 -60.5 -36.5t-28.5 -103.5h169q-5 140 -80 140zM306 73q27 0 41.5 4.5t33.5 19.5v207q0 82 -20 118.5t-66 36.5q-43 0 -70.5 -48.5t-27.5 -135.5q0 -86 27.5 -144t81.5 -58z" />
    <glyph glyph-name="a.ss02" horiz-adv-x="575" 
d="M520 91h31v-55l-196 -50h-35v89q-29 -48 -64 -68.5t-92 -20.5q-66 0 -105.5 40t-39.5 103q0 19 5.5 36t13 30t23.5 25.5t27 20.5t34 17.5t35 14t39.5 11.5t37 9.5t38.5 8.5l48 11v127h-287v70h429q8 0 14 -6t6 -14v-340q0 -32 8.5 -45.5t29.5 -13.5zM246 73q53 0 74 59
v126l-32 -8q-101 -26 -101 -107q0 -28 17 -49t42 -21z" />
    <glyph glyph-name="aacute.ss02" horiz-adv-x="575" 
d="M456 726l-147 -161h-99l64 161h182zM520 91h31v-55l-196 -50h-35v89q-29 -48 -64 -68.5t-92 -20.5q-66 0 -105.5 40t-39.5 103q0 19 5.5 36t13 30t23.5 25.5t27 20.5t34 17.5t35 14t39.5 11.5t37 9.5t38.5 8.5l48 11v127h-287v70h429q8 0 14 -6t6 -14v-340
q0 -32 8.5 -45.5t29.5 -13.5zM246 73q53 0 74 59v126l-32 -8q-101 -26 -101 -107q0 -28 17 -49t42 -21z" />
    <glyph glyph-name="abreve.ss02" horiz-adv-x="575" 
d="M294 552q-71 0 -110.5 47.5t-37.5 126.5h47q16 -67 101 -67t101 67h47q2 -79 -37.5 -126.5t-110.5 -47.5zM520 91h31v-55l-196 -50h-35v89q-29 -48 -64 -68.5t-92 -20.5q-66 0 -105.5 40t-39.5 103q0 19 5.5 36t13 30t23.5 25.5t27 20.5t34 17.5t35 14t39.5 11.5t37 9.5
t38.5 8.5l48 11v127h-287v70h429q8 0 14 -6t6 -14v-340q0 -32 8.5 -45.5t29.5 -13.5zM246 73q53 0 74 59v126l-32 -8q-101 -26 -101 -107q0 -28 17 -49t42 -21z" />
    <glyph glyph-name="acircumflex.ss02" horiz-adv-x="575" 
d="M288 652l-94 -87h-80l94 161h159l106 -161h-92zM520 91h31v-55l-196 -50h-35v89q-29 -48 -64 -68.5t-92 -20.5q-66 0 -105.5 40t-39.5 103q0 19 5.5 36t13 30t23.5 25.5t27 20.5t34 17.5t35 14t39.5 11.5t37 9.5t38.5 8.5l48 11v127h-287v70h429q8 0 14 -6t6 -14v-340
q0 -32 8.5 -45.5t29.5 -13.5zM246 73q53 0 74 59v126l-32 -8q-101 -26 -101 -107q0 -28 17 -49t42 -21z" />
    <glyph glyph-name="adieresis.ss02" horiz-adv-x="575" 
d="M178 572q-39 0 -64.5 24.5t-25.5 61.5q0 36 25.5 60.5t64.5 24.5t64.5 -24.5t25.5 -60.5q0 -37 -25.5 -61.5t-64.5 -24.5zM404 572q-39 0 -64.5 24.5t-25.5 61.5q0 36 25.5 60.5t64.5 24.5t64.5 -24.5t25.5 -60.5q0 -37 -25.5 -61.5t-64.5 -24.5zM520 91h31v-55l-196 -50
h-35v89q-29 -48 -64 -68.5t-92 -20.5q-66 0 -105.5 40t-39.5 103q0 19 5.5 36t13 30t23.5 25.5t27 20.5t34 17.5t35 14t39.5 11.5t37 9.5t38.5 8.5l48 11v127h-287v70h429q8 0 14 -6t6 -14v-340q0 -32 8.5 -45.5t29.5 -13.5zM246 73q53 0 74 59v126l-32 -8
q-101 -26 -101 -107q0 -28 17 -49t42 -21z" />
    <glyph glyph-name="agrave.ss02" horiz-adv-x="575" 
d="M369 565h-99l-147 161h182zM520 91h31v-55l-196 -50h-35v89q-29 -48 -64 -68.5t-92 -20.5q-66 0 -105.5 40t-39.5 103q0 19 5.5 36t13 30t23.5 25.5t27 20.5t34 17.5t35 14t39.5 11.5t37 9.5t38.5 8.5l48 11v127h-287v70h429q8 0 14 -6t6 -14v-340q0 -32 8.5 -45.5
t29.5 -13.5zM246 73q53 0 74 59v126l-32 -8q-101 -26 -101 -107q0 -28 17 -49t42 -21z" />
    <glyph glyph-name="amacron.ss02" horiz-adv-x="575" 
d="M454 668v-85h-321v85h321zM520 91h31v-55l-196 -50h-35v89q-29 -48 -64 -68.5t-92 -20.5q-66 0 -105.5 40t-39.5 103q0 19 5.5 36t13 30t23.5 25.5t27 20.5t34 17.5t35 14t39.5 11.5t37 9.5t38.5 8.5l48 11v127h-287v70h429q8 0 14 -6t6 -14v-340q0 -32 8.5 -45.5
t29.5 -13.5zM246 73q53 0 74 59v126l-32 -8q-101 -26 -101 -107q0 -28 17 -49t42 -21z" />
    <glyph glyph-name="aogonek.ss02" horiz-adv-x="575" 
d="M569 -149l10 -20q-17 -18 -52.5 -30.5t-66.5 -12.5q-51 0 -83.5 19t-32.5 53q0 77 159 164l-148 -38h-35v89q-29 -48 -64 -68.5t-92 -20.5q-66 0 -105.5 40t-39.5 103q0 19 5.5 36t13 30t23.5 25.5t27 20.5t34 17.5t35 14t39.5 11.5t37 9.5t38.5 8.5l48 11v127h-287v70
h429q8 0 14 -6t6 -14v-340q0 -32 8.5 -45.5t29.5 -13.5h31v-55q-90 -95 -90 -148q0 -36 31 -49t77 12zM246 73q53 0 74 59v126l-32 -8q-101 -26 -101 -107q0 -28 17 -49t42 -21z" />
    <glyph glyph-name="aring.ss02" horiz-adv-x="575" 
d="M294 553q-50 0 -83.5 30.5t-33.5 76.5t33.5 77t83.5 31t83.5 -31t33.5 -77t-33.5 -76.5t-83.5 -30.5zM294 727q-27 0 -45.5 -19t-18.5 -47q0 -30 18.5 -49t45.5 -19q28 0 46.5 19t18.5 49q0 28 -18.5 47t-46.5 19zM520 91h31v-55l-196 -50h-35v89q-29 -48 -64 -68.5
t-92 -20.5q-66 0 -105.5 40t-39.5 103q0 19 5.5 36t13 30t23.5 25.5t27 20.5t34 17.5t35 14t39.5 11.5t37 9.5t38.5 8.5l48 11v127h-287v70h429q8 0 14 -6t6 -14v-340q0 -32 8.5 -45.5t29.5 -13.5zM246 73q53 0 74 59v126l-32 -8q-101 -26 -101 -107q0 -28 17 -49t42 -21z
" />
    <glyph glyph-name="aringacute.ss02" horiz-adv-x="575" 
d="M294 553q-50 0 -83.5 30.5t-33.5 76.5q0 63 55 93l64 161h182l-140 -153q33 -12 53 -39t20 -62q0 -46 -33.5 -76.5t-83.5 -30.5zM294 727q-27 0 -45.5 -19t-18.5 -47q0 -30 18.5 -49t45.5 -19q28 0 46.5 19t18.5 49q0 28 -18.5 47t-46.5 19zM520 91h31v-55l-196 -50h-35
v89q-29 -48 -64 -68.5t-92 -20.5q-66 0 -105.5 40t-39.5 103q0 19 5.5 36t13 30t23.5 25.5t27 20.5t34 17.5t35 14t39.5 11.5t37 9.5t38.5 8.5l48 11v127h-287v70h429q8 0 14 -6t6 -14v-340q0 -32 8.5 -45.5t29.5 -13.5zM246 73q53 0 74 59v126l-32 -8q-101 -26 -101 -107
q0 -28 17 -49t42 -21z" />
    <glyph glyph-name="atilde.ss02" horiz-adv-x="575" 
d="M189 604q-17 0 -25 -10.5t-15 -41.5l-46 9q2 63 36 107.5t81 44.5q30 0 93 -25t86 -25q14 0 22.5 12t17.5 45l47 -9q-5 -67 -37.5 -111t-76.5 -44t-99.5 24t-83.5 24zM520 91h31v-55l-196 -50h-35v89q-29 -48 -64 -68.5t-92 -20.5q-66 0 -105.5 40t-39.5 103q0 19 5.5 36
t13 30t23.5 25.5t27 20.5t34 17.5t35 14t39.5 11.5t37 9.5t38.5 8.5l48 11v127h-287v70h429q8 0 14 -6t6 -14v-340q0 -32 8.5 -45.5t29.5 -13.5zM246 73q53 0 74 59v126l-32 -8q-101 -26 -101 -107q0 -28 17 -49t42 -21z" />
    <glyph glyph-name="ae.ss02" horiz-adv-x="848" 
d="M635 98q44 0 83.5 22.5t57.5 59.5l42 -19q-22 -75 -83.5 -125t-152.5 -50q-152 0 -216 122q-24 -56 -76 -89t-128 -33q-67 0 -105 36.5t-38 98.5q0 33 17.5 60.5t39.5 44t62.5 33t65 23.5t68.5 18l48 12v128h-256v70h348q8 0 14 -6t6 -14v-19q67 53 165 53
q112 0 166.5 -69.5t55.5 -190.5h-329q7 -79 45.5 -122.5t99.5 -43.5zM580 466q-37 0 -60.5 -36.5t-28.5 -103.5h169q-5 140 -80 140zM245 73q31 0 59 20t46 52q-16 45 -16 98q0 14 1 21l-47 -15q-101 -32 -101 -103q0 -33 17 -53t41 -20z" />
    <glyph glyph-name="aeacute.ss02" horiz-adv-x="848" 
d="M579 726l-147 -161h-99l64 161h182zM635 98q44 0 83.5 22.5t57.5 59.5l42 -19q-22 -75 -83.5 -125t-152.5 -50q-152 0 -216 122q-24 -56 -76 -89t-128 -33q-67 0 -105 36.5t-38 98.5q0 33 17.5 60.5t39.5 44t62.5 33t65 23.5t68.5 18l48 12v128h-256v70h348q8 0 14 -6
t6 -14v-19q67 53 165 53q112 0 166.5 -69.5t55.5 -190.5h-329q7 -79 45.5 -122.5t99.5 -43.5zM580 466q-37 0 -60.5 -36.5t-28.5 -103.5h169q-5 140 -80 140zM245 73q31 0 59 20t46 52q-16 45 -16 98q0 14 1 21l-47 -15q-101 -32 -101 -103q0 -33 17 -53t41 -20z" />
    <glyph glyph-name="g.ss03" horiz-adv-x="635" 
d="M388 112q93 0 158 -41.5t65 -110.5q0 -76 -94.5 -131t-228.5 -55q-120 0 -192 39.5t-72 101.5q0 61 110 99q-54 28 -54 78q0 31 21 61.5t58 51.5q-96 49 -96 143q0 75 67 125.5t176 50.5q53 0 100 -14h197v-70h-88q32 -40 32 -92q0 -75 -66 -125t-175 -50q-58 0 -107 16
q-16 -13 -16 -32q0 -18 15.5 -31.5t42.5 -13.5h147zM297 473q-29 0 -47.5 -31.5t-18.5 -80.5q0 -61 23.5 -100t60.5 -39q28 0 46.5 32t18.5 81q0 60 -23 99t-60 39zM306 -166q67 0 107.5 22t40.5 61q0 32 -27.5 54.5t-72.5 22.5h-113q-15 0 -39 2q-16 -25 -16 -66
q0 -45 32 -70.5t88 -25.5z" />
    <glyph glyph-name="gbreve.ss03" horiz-adv-x="635" 
d="M318 552q-71 0 -110.5 47.5t-37.5 126.5h47q16 -67 101 -67t101 67h47q2 -79 -37.5 -126.5t-110.5 -47.5zM388 112q93 0 158 -41.5t65 -110.5q0 -76 -94.5 -131t-228.5 -55q-120 0 -192 39.5t-72 101.5q0 61 110 99q-54 28 -54 78q0 31 21 61.5t58 51.5q-96 49 -96 143
q0 75 67 125.5t176 50.5q53 0 100 -14h197v-70h-88q32 -40 32 -92q0 -75 -66 -125t-175 -50q-58 0 -107 16q-16 -13 -16 -32q0 -18 15.5 -31.5t42.5 -13.5h147zM297 473q-29 0 -47.5 -31.5t-18.5 -80.5q0 -61 23.5 -100t60.5 -39q28 0 46.5 32t18.5 81q0 60 -23 99t-60 39z
M306 -166q67 0 107.5 22t40.5 61q0 32 -27.5 54.5t-72.5 22.5h-113q-15 0 -39 2q-16 -25 -16 -66q0 -45 32 -70.5t88 -25.5z" />
    <glyph glyph-name="gcircumflex.ss03" horiz-adv-x="635" 
d="M312 652l-94 -87h-80l94 161h159l106 -161h-92zM388 112q93 0 158 -41.5t65 -110.5q0 -76 -94.5 -131t-228.5 -55q-120 0 -192 39.5t-72 101.5q0 61 110 99q-54 28 -54 78q0 31 21 61.5t58 51.5q-96 49 -96 143q0 75 67 125.5t176 50.5q53 0 100 -14h197v-70h-88
q32 -40 32 -92q0 -75 -66 -125t-175 -50q-58 0 -107 16q-16 -13 -16 -32q0 -18 15.5 -31.5t42.5 -13.5h147zM297 473q-29 0 -47.5 -31.5t-18.5 -80.5q0 -61 23.5 -100t60.5 -39q28 0 46.5 32t18.5 81q0 60 -23 99t-60 39zM306 -166q67 0 107.5 22t40.5 61q0 32 -27.5 54.5
t-72.5 22.5h-113q-15 0 -39 2q-16 -25 -16 -66q0 -45 32 -70.5t88 -25.5z" />
    <glyph glyph-name="uni0123.ss03" horiz-adv-x="635" 
d="M408 570l-177 -10q-19 72 31.5 125.5t129.5 81.5l27 -20q-26 -31 -30.5 -87t19.5 -90zM388 112q93 0 158 -41.5t65 -110.5q0 -76 -94.5 -131t-228.5 -55q-120 0 -192 39.5t-72 101.5q0 61 110 99q-54 28 -54 78q0 31 21 61.5t58 51.5q-96 49 -96 143q0 75 67 125.5
t176 50.5q53 0 100 -14h197v-70h-88q32 -40 32 -92q0 -75 -66 -125t-175 -50q-58 0 -107 16q-16 -13 -16 -32q0 -18 15.5 -31.5t42.5 -13.5h147zM297 473q-29 0 -47.5 -31.5t-18.5 -80.5q0 -61 23.5 -100t60.5 -39q28 0 46.5 32t18.5 81q0 60 -23 99t-60 39zM306 -166
q67 0 107.5 22t40.5 61q0 32 -27.5 54.5t-72.5 22.5h-113q-15 0 -39 2q-16 -25 -16 -66q0 -45 32 -70.5t88 -25.5z" />
    <glyph glyph-name="gdotaccent.ss03" horiz-adv-x="635" 
d="M319 573q-43 0 -71.5 27.5t-28.5 68.5q0 40 28.5 67t71.5 27t71.5 -27t28.5 -67q0 -41 -28.5 -68.5t-71.5 -27.5zM388 112q93 0 158 -41.5t65 -110.5q0 -76 -94.5 -131t-228.5 -55q-120 0 -192 39.5t-72 101.5q0 61 110 99q-54 28 -54 78q0 31 21 61.5t58 51.5
q-96 49 -96 143q0 75 67 125.5t176 50.5q53 0 100 -14h197v-70h-88q32 -40 32 -92q0 -75 -66 -125t-175 -50q-58 0 -107 16q-16 -13 -16 -32q0 -18 15.5 -31.5t42.5 -13.5h147zM297 473q-29 0 -47.5 -31.5t-18.5 -80.5q0 -61 23.5 -100t60.5 -39q28 0 46.5 32t18.5 81
q0 60 -23 99t-60 39zM306 -166q67 0 107.5 22t40.5 61q0 32 -27.5 54.5t-72.5 22.5h-113q-15 0 -39 2q-16 -25 -16 -66q0 -45 32 -70.5t88 -25.5z" />
    <glyph glyph-name="g.ss04" horiz-adv-x="696" 
d="M631 510v-70h-87q32 -40 32 -92q0 -75 -66 -125t-175 -50q-68 0 -128 24v-97h200q92 0 150.5 -38t58.5 -104q0 -76 -90.5 -130t-224.5 -54q-120 0 -196 36.5t-76 82.5q0 76 108 110v238q-45 43 -45 107q0 75 67 125.5t176 50.5q53 0 100 -14h196zM344 222q28 0 46.5 32
t18.5 81q0 60 -23 99t-60 39q-29 0 -47.5 -31.5t-18.5 -80.5q0 -61 23.5 -100t60.5 -39zM455 -85q0 31 -31 51.5t-90 20.5h-119q-25 -27 -25 -62q0 -42 43 -66.5t100 -24.5q56 0 89 22.5t33 58.5z" />
    <glyph glyph-name="gbreve.ss04" horiz-adv-x="696" 
d="M326 552q-71 0 -110.5 47.5t-37.5 126.5h47q16 -67 101 -67t101 67h47q2 -79 -37.5 -126.5t-110.5 -47.5zM631 510v-70h-87q32 -40 32 -92q0 -75 -66 -125t-175 -50q-68 0 -128 24v-97h200q92 0 150.5 -38t58.5 -104q0 -76 -90.5 -130t-224.5 -54q-120 0 -196 36.5
t-76 82.5q0 76 108 110v238q-45 43 -45 107q0 75 67 125.5t176 50.5q53 0 100 -14h196zM344 222q28 0 46.5 32t18.5 81q0 60 -23 99t-60 39q-29 0 -47.5 -31.5t-18.5 -80.5q0 -61 23.5 -100t60.5 -39zM455 -85q0 31 -31 51.5t-90 20.5h-119q-25 -27 -25 -62q0 -42 43 -66.5
t100 -24.5q56 0 89 22.5t33 58.5z" />
    <glyph glyph-name="gcircumflex.ss04" horiz-adv-x="696" 
d="M320 652l-94 -87h-80l94 161h159l106 -161h-92zM631 510v-70h-87q32 -40 32 -92q0 -75 -66 -125t-175 -50q-68 0 -128 24v-97h200q92 0 150.5 -38t58.5 -104q0 -76 -90.5 -130t-224.5 -54q-120 0 -196 36.5t-76 82.5q0 76 108 110v238q-45 43 -45 107q0 75 67 125.5
t176 50.5q53 0 100 -14h196zM344 222q28 0 46.5 32t18.5 81q0 60 -23 99t-60 39q-29 0 -47.5 -31.5t-18.5 -80.5q0 -61 23.5 -100t60.5 -39zM455 -85q0 31 -31 51.5t-90 20.5h-119q-25 -27 -25 -62q0 -42 43 -66.5t100 -24.5q56 0 89 22.5t33 58.5z" />
    <glyph glyph-name="uni0123.ss04" horiz-adv-x="696" 
d="M416 570l-177 -10q-19 72 31.5 125.5t129.5 81.5l27 -20q-26 -31 -30.5 -87t19.5 -90zM631 510v-70h-87q32 -40 32 -92q0 -75 -66 -125t-175 -50q-68 0 -128 24v-97h200q92 0 150.5 -38t58.5 -104q0 -76 -90.5 -130t-224.5 -54q-120 0 -196 36.5t-76 82.5q0 76 108 110
v238q-45 43 -45 107q0 75 67 125.5t176 50.5q53 0 100 -14h196zM344 222q28 0 46.5 32t18.5 81q0 60 -23 99t-60 39q-29 0 -47.5 -31.5t-18.5 -80.5q0 -61 23.5 -100t60.5 -39zM455 -85q0 31 -31 51.5t-90 20.5h-119q-25 -27 -25 -62q0 -42 43 -66.5t100 -24.5q56 0 89 22.5
t33 58.5z" />
    <glyph glyph-name="gdotaccent.ss04" horiz-adv-x="696" 
d="M327 573q-43 0 -71.5 27.5t-28.5 68.5q0 40 28.5 67t71.5 27t71.5 -27t28.5 -67q0 -41 -28.5 -68.5t-71.5 -27.5zM631 510v-70h-87q32 -40 32 -92q0 -75 -66 -125t-175 -50q-68 0 -128 24v-97h200q92 0 150.5 -38t58.5 -104q0 -76 -90.5 -130t-224.5 -54
q-120 0 -196 36.5t-76 82.5q0 76 108 110v238q-45 43 -45 107q0 75 67 125.5t176 50.5q53 0 100 -14h196zM344 222q28 0 46.5 32t18.5 81q0 60 -23 99t-60 39q-29 0 -47.5 -31.5t-18.5 -80.5q0 -61 23.5 -100t60.5 -39zM455 -85q0 31 -31 51.5t-90 20.5h-119
q-25 -27 -25 -62q0 -42 43 -66.5t100 -24.5q56 0 89 22.5t33 58.5z" />
    <glyph glyph-name="g.ss05" horiz-adv-x="608" 
d="M473 524h70v-702q0 -8 -6 -14t-14 -6h-441v70h299v184q-20 -32 -54 -51t-74 -19q-108 0 -166 72.5t-58 179.5q0 130 71.5 208t184.5 78q98 0 139 -58zM306 73q27 0 41.5 4.5t33.5 19.5v207q0 82 -20 118.5t-66 36.5q-43 0 -70.5 -48.5t-27.5 -135.5q0 -86 27.5 -144
t81.5 -58z" />
    <glyph glyph-name="gbreve.ss05" horiz-adv-x="608" 
d="M323 552q-71 0 -110.5 47.5t-37.5 126.5h47q16 -67 101 -67t101 67h47q2 -79 -37.5 -126.5t-110.5 -47.5zM473 524h70v-702q0 -8 -6 -14t-14 -6h-441v70h299v184q-20 -32 -54 -51t-74 -19q-108 0 -166 72.5t-58 179.5q0 130 71.5 208t184.5 78q98 0 139 -58zM306 73
q27 0 41.5 4.5t33.5 19.5v207q0 82 -20 118.5t-66 36.5q-43 0 -70.5 -48.5t-27.5 -135.5q0 -86 27.5 -144t81.5 -58z" />
    <glyph glyph-name="gcircumflex.ss05" horiz-adv-x="608" 
d="M317 652l-94 -87h-80l94 161h159l106 -161h-92zM473 524h70v-702q0 -8 -6 -14t-14 -6h-441v70h299v184q-20 -32 -54 -51t-74 -19q-108 0 -166 72.5t-58 179.5q0 130 71.5 208t184.5 78q98 0 139 -58zM306 73q27 0 41.5 4.5t33.5 19.5v207q0 82 -20 118.5t-66 36.5
q-43 0 -70.5 -48.5t-27.5 -135.5q0 -86 27.5 -144t81.5 -58z" />
    <glyph glyph-name="uni0123.ss05" horiz-adv-x="608" 
d="M413 570l-177 -10q-19 72 31.5 125.5t129.5 81.5l27 -20q-26 -31 -30.5 -87t19.5 -90zM473 524h70v-702q0 -8 -6 -14t-14 -6h-441v70h299v184q-20 -32 -54 -51t-74 -19q-108 0 -166 72.5t-58 179.5q0 130 71.5 208t184.5 78q98 0 139 -58zM306 73q27 0 41.5 4.5
t33.5 19.5v207q0 82 -20 118.5t-66 36.5q-43 0 -70.5 -48.5t-27.5 -135.5q0 -86 27.5 -144t81.5 -58z" />
    <glyph glyph-name="gdotaccent.ss05" horiz-adv-x="608" 
d="M324 573q-43 0 -71.5 27.5t-28.5 68.5q0 40 28.5 67t71.5 27t71.5 -27t28.5 -67q0 -41 -28.5 -68.5t-71.5 -27.5zM473 524h70v-702q0 -8 -6 -14t-14 -6h-441v70h299v184q-20 -32 -54 -51t-74 -19q-108 0 -166 72.5t-58 179.5q0 130 71.5 208t184.5 78q98 0 139 -58z
M306 73q27 0 41.5 4.5t33.5 19.5v207q0 82 -20 118.5t-66 36.5q-43 0 -70.5 -48.5t-27.5 -135.5q0 -86 27.5 -144t81.5 -58z" />
    <glyph glyph-name="r.ss06" horiz-adv-x="445" 
d="M248 117q0 -26 16.5 -38.5t64.5 -23.5v-55h-305v55q36 8 49 21t13 41v373q0 8 6 14t14 6h319v-70h-177v-323z" />
    <glyph glyph-name="racute.ss06" horiz-adv-x="445" 
d="M275 565h-99l64 161h182zM248 117q0 -26 16.5 -38.5t64.5 -23.5v-55h-305v55q36 8 49 21t13 41v373q0 8 6 14t14 6h319v-70h-177v-323z" />
    <glyph glyph-name="rcaron.ss06" horiz-adv-x="445" 
d="M333 565h-159l-94 161h80l94 -87l93 87h92zM86 490q0 8 6 14t14 6h319v-70h-177v-323q0 -26 16.5 -38.5t64.5 -23.5v-55h-305v55q36 8 49 21t13 41v373z" />
    <glyph glyph-name="uni0157.ss06" horiz-adv-x="445" 
d="M248 117q0 -26 16.5 -38.5t64.5 -23.5v-55h-305v55q36 8 49 21t13 41v373q0 8 6 14t14 6h319v-70h-177v-323zM266 -35q19 -72 -31.5 -125.5t-129.5 -81.5l-27 20q26 31 30.5 87t-19.5 90z" />
    <glyph glyph-name="t.ss07" horiz-adv-x="422" 
d="M292 510h110v-70h-110v-440h-162v440h-110v70h110v93l134 59h28v-152z" />
    <glyph glyph-name="tbar.ss07" horiz-adv-x="422" 
d="M402 440h-110v-158h108v-55h-108v-227h-162v227h-110v55h110v158h-110v70h110v93l134 59h28v-152h110v-70z" />
    <glyph glyph-name="tcaron.ss07" horiz-adv-x="486" 
d="M374 766h142l-87 -201h-75zM292 662v-152h110v-70h-110v-440h-162v440h-110v70h110v93l134 59h28z" />
    <glyph glyph-name="uni0163.ss07" horiz-adv-x="422" 
d="M292 510h110v-70h-110v-440h-59l-27 -51q85 -20 85 -80q0 -54 -51.5 -75.5t-132.5 -11.5v15q93 -2 93 51q0 37 -73 51l58 101h-55v440h-110v70h110v93l134 59h28v-152z" />
    <glyph glyph-name="uni021B.ss07" horiz-adv-x="422" 
d="M292 510h110v-70h-110v-440h-162v440h-110v70h110v93l134 59h28v-152zM130 -45l177 10q19 -72 -31.5 -125.5t-129.5 -81.5l-27 20q26 31 30.5 87t-19.5 90z" />
    <glyph glyph-name="y.ss08" horiz-adv-x="618" 
d="M613 510v-55q-28 -5 -40 -12t-19 -22l-224 -490q-65 -143 -168 -143q-51 0 -117 29l40 123q46 -25 98 -25q41 0 57 10t30 40l3 7l-206 450q-7 15 -19.5 21.5t-42.5 11.5v55h296v-55q-51 -5 -65 -14.5t-3 -34.5l119 -262l120 262q10 21 -4 31.5t-64 17.5v55h209z" />
    <glyph glyph-name="yacute.ss08" horiz-adv-x="618" 
d="M334 565h-99l64 161h182zM613 510v-55q-28 -5 -40 -12t-19 -22l-224 -490q-65 -143 -168 -143q-51 0 -117 29l40 123q46 -25 98 -25q41 0 57 10t30 40l3 7l-206 450q-7 15 -19.5 21.5t-42.5 11.5v55h296v-55q-51 -5 -65 -14.5t-3 -34.5l119 -262l120 262q10 21 -4 31.5
t-64 17.5v55h209z" />
    <glyph glyph-name="ycircumflex.ss08" horiz-adv-x="618" 
d="M313 652l-94 -87h-80l94 161h159l106 -161h-92zM404 510h209v-55q-28 -5 -40 -12t-19 -22l-224 -490q-65 -143 -168 -143q-51 0 -117 29l40 123q46 -25 98 -25q41 0 57 10t30 40l3 7l-206 450q-7 15 -19.5 21.5t-42.5 11.5v55h296v-55q-51 -5 -65 -14.5t-3 -34.5
l119 -262l120 262q10 21 -4 31.5t-64 17.5v55z" />
    <glyph glyph-name="ydieresis.ss08" horiz-adv-x="618" 
d="M203 572q-39 0 -64.5 24.5t-25.5 61.5q0 36 25.5 60.5t64.5 24.5t64.5 -24.5t25.5 -60.5q0 -37 -25.5 -61.5t-64.5 -24.5zM429 572q-39 0 -64.5 24.5t-25.5 61.5q0 36 25.5 60.5t64.5 24.5t64.5 -24.5t25.5 -60.5q0 -37 -25.5 -61.5t-64.5 -24.5zM613 510v-55
q-28 -5 -40 -12t-19 -22l-224 -490q-65 -143 -168 -143q-51 0 -117 29l40 123q46 -25 98 -25q41 0 57 10t30 40l3 7l-206 450q-7 15 -19.5 21.5t-42.5 11.5v55h296v-55q-51 -5 -65 -14.5t-3 -34.5l119 -262l120 262q10 21 -4 31.5t-64 17.5v55h209z" />
    <glyph glyph-name="ygrave.ss08" horiz-adv-x="618" 
d="M295 565l-147 161h182l64 -161h-99zM613 510v-55q-28 -5 -40 -12t-19 -22l-224 -490q-65 -143 -168 -143q-51 0 -117 29l40 123q46 -25 98 -25q41 0 57 10t30 40l3 7l-206 450q-7 15 -19.5 21.5t-42.5 11.5v55h296v-55q-51 -5 -65 -14.5t-3 -34.5l119 -262l120 262
q10 21 -4 31.5t-64 17.5v55h209z" />
    <glyph glyph-name="y.ss09" horiz-adv-x="627" 
d="M527 524h35v-526q0 -103 -67 -163.5t-202 -60.5q-92 0 -152 25.5t-82 60.5l154 76q35 -102 102 -102q39 0 62 34t23 106v113q-66 -102 -159 -102q-80 0 -120 45.5t-40 127.5v216q0 23 -10 36t-36 22l-15 5v45l188 42h35v-351q0 -86 68 -86q43 0 89 52v235q0 23 -10 36
t-36 22l-15 5v45z" />
    <glyph glyph-name="yacute.ss09" horiz-adv-x="627" 
d="M455 726l-147 -161h-99l64 161h182zM527 524h35v-526q0 -103 -67 -163.5t-202 -60.5q-92 0 -152 25.5t-82 60.5l154 76q35 -102 102 -102q39 0 62 34t23 106v113q-66 -102 -159 -102q-80 0 -120 45.5t-40 127.5v216q0 23 -10 36t-36 22l-15 5v45l188 42h35v-351
q0 -86 68 -86q43 0 89 52v235q0 23 -10 36t-36 22l-15 5v45z" />
    <glyph glyph-name="ycircumflex.ss09" horiz-adv-x="627" 
d="M287 652l-94 -87h-80l94 161h159l106 -161h-92zM527 524h35v-526q0 -103 -67 -163.5t-202 -60.5q-92 0 -152 25.5t-82 60.5l154 76q35 -102 102 -102q39 0 62 34t23 106v113q-66 -102 -159 -102q-80 0 -120 45.5t-40 127.5v216q0 23 -10 36t-36 22l-15 5v45l188 42h35
v-351q0 -86 68 -86q43 0 89 52v235q0 23 -10 36t-36 22l-15 5v45z" />
    <glyph glyph-name="ydieresis.ss09" horiz-adv-x="627" 
d="M177 572q-39 0 -64.5 24.5t-25.5 61.5q0 36 25.5 60.5t64.5 24.5t64.5 -24.5t25.5 -60.5q0 -37 -25.5 -61.5t-64.5 -24.5zM403 572q-39 0 -64.5 24.5t-25.5 61.5q0 36 25.5 60.5t64.5 24.5t64.5 -24.5t25.5 -60.5q0 -37 -25.5 -61.5t-64.5 -24.5zM527 524h35v-526
q0 -103 -67 -163.5t-202 -60.5q-92 0 -152 25.5t-82 60.5l154 76q35 -102 102 -102q39 0 62 34t23 106v113q-66 -102 -159 -102q-80 0 -120 45.5t-40 127.5v216q0 23 -10 36t-36 22l-15 5v45l188 42h35v-351q0 -86 68 -86q43 0 89 52v235q0 23 -10 36t-36 22l-15 5v45z" />
    <glyph glyph-name="ygrave.ss09" horiz-adv-x="627" 
d="M368 565h-99l-147 161h182zM527 524h35v-526q0 -103 -67 -163.5t-202 -60.5q-92 0 -152 25.5t-82 60.5l154 76q35 -102 102 -102q39 0 62 34t23 106v113q-66 -102 -159 -102q-80 0 -120 45.5t-40 127.5v216q0 23 -10 36t-36 22l-15 5v45l188 42h35v-351q0 -86 68 -86
q43 0 89 52v235q0 23 -10 36t-36 22l-15 5v45z" />
    <glyph glyph-name="y.ss10" horiz-adv-x="627" 
d="M527 524h35v-702q0 -8 -6 -14t-14 -6h-441v70h299v215q-66 -102 -159 -102q-80 0 -120 45.5t-40 127.5v216q0 23 -10 36t-36 22l-15 5v45l188 42h35v-351q0 -86 68 -86q43 0 89 52v235q0 23 -10 36t-36 22l-15 5v45z" />
    <glyph glyph-name="yacute.ss10" horiz-adv-x="627" 
d="M455 726l-147 -161h-99l64 161h182zM527 524h35v-702q0 -8 -6 -14t-14 -6h-441v70h299v215q-66 -102 -159 -102q-80 0 -120 45.5t-40 127.5v216q0 23 -10 36t-36 22l-15 5v45l188 42h35v-351q0 -86 68 -86q43 0 89 52v235q0 23 -10 36t-36 22l-15 5v45z" />
    <glyph glyph-name="ycircumflex.ss10" horiz-adv-x="627" 
d="M287 652l-94 -87h-80l94 161h159l106 -161h-92zM527 524h35v-702q0 -8 -6 -14t-14 -6h-441v70h299v215q-66 -102 -159 -102q-80 0 -120 45.5t-40 127.5v216q0 23 -10 36t-36 22l-15 5v45l188 42h35v-351q0 -86 68 -86q43 0 89 52v235q0 23 -10 36t-36 22l-15 5v45z" />
    <glyph glyph-name="ydieresis.ss10" horiz-adv-x="627" 
d="M177 572q-39 0 -64.5 24.5t-25.5 61.5q0 36 25.5 60.5t64.5 24.5t64.5 -24.5t25.5 -60.5q0 -37 -25.5 -61.5t-64.5 -24.5zM403 572q-39 0 -64.5 24.5t-25.5 61.5q0 36 25.5 60.5t64.5 24.5t64.5 -24.5t25.5 -60.5q0 -37 -25.5 -61.5t-64.5 -24.5zM527 524h35v-702
q0 -8 -6 -14t-14 -6h-441v70h299v215q-66 -102 -159 -102q-80 0 -120 45.5t-40 127.5v216q0 23 -10 36t-36 22l-15 5v45l188 42h35v-351q0 -86 68 -86q43 0 89 52v235q0 23 -10 36t-36 22l-15 5v45z" />
    <glyph glyph-name="ygrave.ss10" horiz-adv-x="627" 
d="M368 565h-99l-147 161h182zM527 524h35v-702q0 -8 -6 -14t-14 -6h-441v70h299v215q-66 -102 -159 -102q-80 0 -120 45.5t-40 127.5v216q0 23 -10 36t-36 22l-15 5v45l188 42h35v-351q0 -86 68 -86q43 0 89 52v235q0 23 -10 36t-36 22l-15 5v45z" />
    <glyph glyph-name="F_T" horiz-adv-x="1172" 
d="M1146 668l12 -171h-58q-21 72 -47 94t-66 22h-58v-494q0 -25 18.5 -41t67.5 -23v-55h-340v55q49 7 67.5 23t18.5 41v494h-57q-41 0 -67.5 -22t-47.5 -94h-58l8 116h-261v-243h72q21 0 37.5 22.5t19.5 65.5h55v-231h-55q-3 44 -19.5 66t-37.5 22h-72v-192q0 -33 23 -47.5
t100 -20.5v-55h-377v55q49 7 67.5 23t18.5 41v422q0 38 -17.5 53t-68.5 19v55h1122z" />
    <glyph glyph-name="T_T" horiz-adv-x="1085" 
d="M1059 668l12 -171h-58q-21 72 -47 94t-66 22h-58v-494q0 -25 18.5 -41t67.5 -23v-55h-340v55q49 7 67.5 23t18.5 41v494h-262v-494q0 -25 18.5 -41t67.5 -23v-55h-340v55q49 7 67.5 23t18.5 41v494h-57q-41 0 -67.5 -22t-47.5 -94h-58l12 171h1033z" />
    <glyph glyph-name="T_h" horiz-adv-x="1168" 
d="M1087 117q0 -29 12 -41.5t49 -20.5v-55h-272v55q29 8 39 20.5t10 41.5v197q0 74 -15 100.5t-53 26.5q-25 0 -49.5 -12t-39.5 -29v-283q0 -29 12 -41.5t49 -20.5v-55h-284v55q37 8 49 20.5t12 41.5v496h-194v-494q0 -25 18.5 -41t67.5 -23v-55h-340v55q49 7 67.5 23
t18.5 41v494h-57q-41 0 -67.5 -22t-47.5 -94h-58l12 171h529l178 42h35v-269q26 37 71 60t88 23q160 0 160 -174v-233z" />
    <glyph glyph-name="T_i" horiz-adv-x="873" 
d="M412 119q0 -25 18.5 -41t67.5 -23v-55h-340v55q49 7 67.5 23t18.5 41v494h-57q-41 0 -67.5 -22t-47.5 -94h-58l12 171h623l19 -99l-66 -17q-23 35 -49 48t-63 13h-78v-494zM780 117q0 -29 12 -41.5t49 -20.5v-55h-284v55q37 8 49 20.5t12 41.5v257q0 23 -10 36t-36 22
l-15 5v45l188 42h35v-407z" />
    <glyph glyph-name="f_j" horiz-adv-x="687" 
d="M514 510l63 14h35v-450q0 -47 -10 -85t-36.5 -76.5t-78 -69.5t-128.5 -53l-22 53q27 15 39 22.5t29.5 25t25 37t13.5 53t6 78.5v396h-189v-338q0 -29 17 -42t64 -20v-55h-304v55q37 8 49 20.5t12 41.5v338h-83v55h83v43q0 107 76.5 171t208.5 64q91 0 157.5 -36.5
t88.5 -91.5l-162 -74q-7 65 -35 105.5t-66 40.5q-50 0 -78 -41.5t-28 -102.5v-78h253z" />
    <glyph glyph-name="ordfeminine.ss01" horiz-adv-x="383" 
d="M357 491h23v-41l-132 -32h-25v37q-23 -37 -70 -37q-69 0 -104 44t-35 108q0 78 43 125t113 47q62 0 85 -33l33 33h51v-217q0 -34 18 -34zM190 477h8.5h6t4.5 0.5t6 2t8 4.5v119q0 55 -9 74t-31 19q-21 0 -35 -27t-14 -77q0 -51 14 -83t42 -32z" />
    <glyph glyph-name="A.sinf" horiz-adv-x="446" 
d="M401 -81q1 -2 2.5 -5.5t1.5 -4.5t1.5 -4t2.5 -3.5t3 -2t4.5 -2t5.5 -2t7.5 -2t10 -1t12.5 -1.5v-41h-223v41q34 1 44 10.5t0 27.5l-17 40h-147l-13 -30q-13 -24 -5.5 -35.5t52.5 -12.5v-41h-149v41q7 1 12 2t9 1.5t6.5 3t4.5 3.5t4 5.5t3.5 7t4.5 10.5t5 13l130 311h91z
M124 6h117l-59 139z" />
    <glyph glyph-name="B.sinf" horiz-adv-x="410" 
d="M209 251q78 0 120 -25.5t42 -74.5q0 -32 -27.5 -58t-62.5 -28q116 -7 116 -101q0 -49 -43.5 -81.5t-123.5 -32.5h-217v41q49 8 49 36v241q0 22 -9 30.5t-40 11.5v41h196zM193 213h-12v-136h19q20 0 34 20.5t14 53.5q0 27 -14 44.5t-41 17.5zM212 39h-31v-126
q0 -26 23 -26h15q22 0 38 20.5t16 56.5q0 32 -17.5 53.5t-43.5 21.5z" />
    <glyph glyph-name="C.sinf" horiz-adv-x="384" 
d="M241 -87q75 0 102 55l30 -17q-9 -42 -45 -75.5t-108 -33.5q-95 0 -150 57t-57 143q-2 94 50.5 155t149.5 61q67 0 112.5 -27.5t55.5 -60.5l-110 -60q-19 108 -63 108q-34 0 -53.5 -41t-18.5 -119q1 -70 32.5 -107.5t72.5 -37.5z" />
    <glyph glyph-name="D.sinf" horiz-adv-x="463" 
d="M211 251q119 0 179 -55t60 -133q0 -95 -68.5 -154t-162.5 -59h-205v41q51 8 51 36v241q0 21 -10 30t-41 12v41h197zM219 -113q49 0 78 41t29 122q0 68 -35 115.5t-90 47.5h-17v-302q0 -24 35 -24z" />
    <glyph glyph-name="E.sinf" horiz-adv-x="368" 
d="M319 -43h41l-6 -107h-341v41q51 8 51 36v241q0 21 -10 30t-41 12v41h336l8 -107h-41q-10 31 -24 47.5t-23 19t-23 2.5h-63v-139h30q4 0 10 5t12.5 17.5t7.5 29.5h41v-141h-41q-1 17 -7.5 29.5t-12.5 17.5t-10 5h-30v-126q0 -12 7.5 -18t32.5 -6h28q44 0 68 70z" />
    <glyph glyph-name="F.sinf" horiz-adv-x="363" 
d="M353 251l7 -107h-41q-10 31 -24 47.5t-23 19t-23 2.5h-66v-139h33q8 0 18.5 13.5t11.5 38.5h41v-141h-41q-1 25 -11.5 38.5t-18.5 13.5h-33v-107q0 -18 13 -26t62 -13v-41h-245v41q51 8 51 36v241q0 21 -10 30t-41 12v41h340z" />
    <glyph glyph-name="G.sinf" horiz-adv-x="445" 
d="M442 69v-41q-30 -3 -40.5 -12.5t-10.5 -30.5v-84q-62 -59 -170 -59q-95 0 -150.5 57t-57.5 143q-2 94 51 155t150 61q154 0 179 -88l-110 -60q-11 61 -27 84.5t-47 23.5q-34 0 -53.5 -41t-18.5 -119q1 -72 32.5 -114.5t71.5 -42.5q21 0 31 2v82q0 21 -10 30.5t-41 12.5
v41h221z" />
    <glyph glyph-name="H.sinf" horiz-adv-x="514" 
d="M501 210q-31 -3 -41.5 -12t-10.5 -30v-241q0 -27 52 -36v-41h-224v41q53 9 53 36v109h-147v-109q0 -28 52 -36v-41h-222v41q51 8 51 36v241q0 21 -10 30t-41 12v41h222v-41q-31 -3 -41.5 -12t-10.5 -30v-95h147v95q0 21 -11 30t-42 12v41h224v-41z" />
    <glyph glyph-name="I.sinf" horiz-adv-x="247" 
d="M234 251v-41q-31 -3 -41 -12t-10 -30v-241q0 -28 51 -36v-41h-221v41q51 8 51 36v241q0 21 -10 30t-41 12v41h221z" />
    <glyph glyph-name="J.sinf" horiz-adv-x="387" 
d="M374 251v-41q-31 -3 -41 -12t-10 -30v-203q0 -58 -42.5 -90.5t-119.5 -32.5q-65 0 -109 27.5t-49 68.5l122 31q-1 -42 12 -67t28 -25q38 0 38 72v219q0 21 -10 30t-40 12v41h221z" />
    <glyph glyph-name="K.sinf" horiz-adv-x="468" 
d="M413 -82q10 -16 21.5 -20.5t39.5 -6.5v-41h-154l-106 175l-31 -28v-70q0 -28 51 -36v-41h-221v41q51 8 51 36v241q0 21 -10 30t-41 12v41h221v-41q-31 -3 -41 -12t-10 -30v-103l120 108q42 37 -25 37v41h175v-41q-39 -3 -61 -23l-90 -82z" />
    <glyph glyph-name="L.sinf" horiz-adv-x="372" 
d="M368 -43l-6 -107h-349v41q51 8 51 36v241q0 21 -10 30t-41 12v41h221v-41q-31 -3 -41 -12t-10 -30v-257q0 -8 2 -12.5t11 -8t26 -3.5h39q43 0 66 70h41z" />
    <glyph glyph-name="M.sinf" horiz-adv-x="586" 
d="M574 251v-41q-31 -3 -41 -12t-10 -30v-241q0 -28 50 -36v-41h-221v41q52 9 52 35v205l-124 -280h-48l-120 272v-196q0 -27 52 -36v-41h-153v41q52 8 52 36v241q0 21 -10 30t-40 12v41h169l107 -261l116 261h169z" />
    <glyph glyph-name="N.sinf" horiz-adv-x="438" 
d="M425 251v-41q-32 -2 -42.5 -11.5t-10.5 -30.5v-318h-51l-208 258v-181q0 -28 49 -36v-41h-152v41q54 8 54 36v241q0 21 -10 30t-41 12v41h151l159 -209v126q0 22 -9 30.5t-40 11.5v41h151z" />
    <glyph glyph-name="O.sinf" horiz-adv-x="458" 
d="M231 258q101 0 157.5 -58.5t56.5 -140.5q0 -96 -61 -156.5t-156 -60.5q-102 0 -158.5 59t-56.5 141q0 96 61 156t157 60zM221 218q-38 -1 -61.5 -47.5t-22.5 -120.5q1 -70 28.5 -119.5t71.5 -48.5q38 1 61.5 48.5t22.5 120.5q-2 70 -28.5 119t-71.5 48z" />
    <glyph glyph-name="P.sinf" horiz-adv-x="385" 
d="M211 19h-28v-89q0 -18 14.5 -26t66.5 -13v-41h-251v41q51 8 51 36v241q0 21 -10 30t-41 12v41h198q84 0 127.5 -30.5t43.5 -86.5q0 -55 -43.5 -85t-127.5 -30zM198 213h-15v-155h15q60 0 60 76q0 79 -60 79z" />
    <glyph glyph-name="Q.sinf" horiz-adv-x="461" 
d="M445 59q0 -96 -61 -156.5t-156 -60.5q-29 0 -49 4q73 -43 167 -35q20 2 26 10l-17 -100q-13 -6 -16 -7q-73 -7 -125.5 28.5t-108.5 130.5q-45 27 -68.5 72t-23.5 97q0 96 61 156t157 60q101 0 157.5 -58.5t56.5 -140.5zM137 50q1 -70 28.5 -119.5t71.5 -48.5
q38 1 61.5 48.5t22.5 120.5q-2 70 -28.5 119t-71.5 48q-38 -1 -61.5 -47.5t-22.5 -120.5z" />
    <glyph glyph-name="R.sinf" horiz-adv-x="478" 
d="M398 -82q11 -21 61 -27v-41h-163l-89 169h-24v-92q0 -28 51 -36v-41h-221v41q51 8 51 36v241q0 21 -10 30t-41 12v41h201q83 0 126.5 -30.5t43.5 -86.5q0 -62 -54 -91zM183 58h18q28 0 44 19.5t16 56.5q0 79 -60 79h-18v-155z" />
    <glyph glyph-name="S.sinf" horiz-adv-x="377" 
d="M110 8q16 -67 36 -96.5t52 -29.5q19 0 35 12.5t16 39.5q0 15 -5 26.5t-16.5 19t-20.5 12t-26.5 10t-24.5 8.5q-65 27 -89 52q-33 33 -33 78q0 53 42.5 86t114.5 33q66 0 109.5 -25t48.5 -50l-89 -74q-27 109 -77 109q-16 0 -29.5 -12t-13.5 -35q0 -13 4.5 -22.5t16.5 -17
t19 -11t25.5 -10t23.5 -8.5q66 -25 98 -56t32 -82q0 -58 -43.5 -90.5t-120.5 -32.5q-102 0 -177 67z" />
    <glyph glyph-name="T.sinf" horiz-adv-x="390" 
d="M379 251l8 -107h-43q-9 31 -22 47.5t-22 19t-22 2.5h-23v-286q0 -28 51 -36v-41h-221v41q51 8 51 36v286h-22q-14 0 -23 -2.5t-22.5 -19t-22.5 -47.5h-43l8 107h368z" />
    <glyph glyph-name="U.sinf" horiz-adv-x="465" 
d="M452 251v-41q-30 -3 -40.5 -12t-10.5 -30v-173q0 -73 -40 -113t-114 -40q-183 0 -183 150v176q0 21 -10 30t-41 12v41h222v-41q-31 -3 -41.5 -12t-10.5 -30v-168q0 -58 17.5 -87t59.5 -29q44 0 68 31t24 88v165q0 21 -9.5 30t-40.5 12v41h150z" />
    <glyph glyph-name="V.sinf" horiz-adv-x="450" 
d="M456 251v-41q-8 -1 -13.5 -1.5t-10 -3t-6.5 -3.5t-5 -6t-4 -7t-5 -11.5t-6 -14.5l-131 -310h-92l-139 329q-1 2 -2.5 6t-2 5t-2 3.5t-2.5 3.5t-4 2.5t-5.5 2l-7.5 1.5t-10.5 2t-13.5 2v41h222v-41q-34 -1 -43 -10.5t-1 -28.5l93 -215l88 206q14 24 6.5 35.5t-52.5 12.5
v41h149z" />
    <glyph glyph-name="W.sinf" horiz-adv-x="641" 
d="M498 251h149v-41q-27 -2 -32.5 -7.5t-16.5 -35.5l-112 -314h-91l-71 199l-70 -199h-91l-119 331q-6 17 -12 20q-7 3 -38 6v41h221v-41q-35 -1 -43.5 -8t-2.5 -27l74 -213l55 164l-21 58q-5 16 -11 19.5t-39 6.5v41h220v-41q-35 -1 -43 -8t-2 -27l73 -213l67 201
q13 25 7 35.5t-51 11.5v41z" />
    <glyph glyph-name="X.sinf" horiz-adv-x="409" 
d="M372 -84q9 -13 18 -17.5t30 -7.5v-41h-223v41q30 3 33 10t-13 28l-49 73l-49 -63q-20 -27 -15.5 -36.5t34.5 -11.5v-41h-149v41q22 1 32.5 6.5t22.5 21.5l95 124l-95 141q-9 13 -18 18t-30 8v41h223v-41q-29 -3 -32.5 -9.5t11.5 -27.5l39 -58l38 48q21 28 17.5 36.5
t-33.5 10.5v41h147v-41q-24 -1 -34 -6t-23 -22l-84 -109z" />
    <glyph glyph-name="Y.sinf" horiz-adv-x="387" 
d="M397 251v-41q-13 -1 -17.5 -2.5t-9.5 -7.5t-12 -20l-102 -193v-60q0 -27 51 -36v-41h-222v41q51 9 51 36v64l-107 191q-10 18 -15.5 22t-23.5 6v41h190v-41q-23 -3 -31.5 -8.5t-0.5 -19.5l78 -144l79 144q8 13 2.5 19.5t-29.5 8.5v41h119z" />
    <glyph glyph-name="Z.sinf" horiz-adv-x="351" 
d="M357 -43l-6 -107h-361v41l232 322h-109q-44 0 -67 -69h-41l6 107h346v-41l-231 -323h125q45 0 68 70h38z" />
    <glyph glyph-name="a.sinf" horiz-adv-x="356" 
d="M330 -87h23v-41l-132 -32h-25v46q-29 -44 -93 -44q-42 0 -66 22t-24 61q0 22 12 39.5t26.5 28t40.5 19.5t39 12.5t37 8.5l28 6v21q0 31 -10.5 49.5t-24.5 18.5t-23.5 -9.5t-9.5 -24.5q0 -20 10 -40l-88 -29q-29 22 -29 57q0 34 46.5 59t107.5 25q137 0 137 -125v-93
q0 -35 18 -35zM161 -100q21 0 35 16v84l-16 -3q-15 -3 -31 -17.5t-16 -37.5q0 -18 8.5 -30t19.5 -12z" />
    <glyph glyph-name="b.sinf" horiz-adv-x="380" 
d="M233 166q69 0 104 -44t35 -108q0 -78 -43 -125t-113 -47q-65 0 -85 35l-33 -35h-51v338q0 24 -24 34l-10 4v33l125 25h25v-148q22 38 70 38zM203 -112q21 0 35 27t14 77q0 51 -14 83t-42 32h-7.5h-6t-4 -0.5t-4.5 -1t-4.5 -2t-6.5 -4.5v-118q0 -55 9 -74t31 -19z" />
    <glyph glyph-name="c.sinf" horiz-adv-x="328" 
d="M177 166q62 0 97.5 -28.5t38.5 -67.5l-98 -41q-10 98 -48 98q-17 0 -29.5 -28t-12.5 -76q0 -55 22 -83t60 -28q29 0 50 16.5t25 33.5l31 -14q-15 -52 -52 -79t-90 -27q-77 0 -117 46t-40 113q0 70 42 117.5t121 47.5z" />
    <glyph glyph-name="d.sinf" horiz-adv-x="387" 
d="M351 -85h23v-41l-132 -32h-25v36q-23 -36 -70 -36q-69 0 -104 44t-35 108q0 78 43 125t113 47q28 0 53 -9v23q0 24 -24 34l-10 4v33l125 25h25v-327q0 -34 18 -34zM184 -99q22 0 33 7v120q0 54 -9 73t-31 19q-21 0 -35 -27t-14 -77q0 -51 14 -83t42 -32z" />
    <glyph glyph-name="e.sinf" horiz-adv-x="330" 
d="M177 166q139 0 141 -161h-194q5 -42 26 -64t54 -22q25 0 49.5 12.5t33.5 35.5l31 -14q-14 -48 -52.5 -79.5t-97.5 -31.5q-77 0 -116 45.5t-39 109.5q0 77 44.5 123t119.5 46zM167 127q-16 0 -27.5 -20t-14.5 -58h81q-2 78 -39 78z" />
    <glyph glyph-name="f.sinf" horiz-adv-x="311" 
d="M216 295q-42 0 -42 -76v-61h78v-38h-78v-192q0 -17 8.5 -25t35.5 -12v-41h-195v41q23 6 29 13t6 25v191h-50v38h50v24q0 74 49.5 112t117.5 38q49 0 87 -21.5t52 -56.5l-108 -45q0 38 -11.5 62t-28.5 24z" />
    <glyph glyph-name="g.sinf" horiz-adv-x="364" 
d="M286 166h54v-305q0 -60 -44.5 -97.5t-129.5 -37.5q-59 0 -98.5 16t-49.5 37l108 51q7 -26 21 -44.5t32 -18.5t30.5 19t12.5 61v31q-23 -36 -70 -36q-69 0 -104 44t-35 108q0 78 43 125t113 47q65 0 86 -35zM222 27q0 55 -9 74t-31 19q-21 0 -35 -27t-14 -77q0 -51 14 -83
t42 -32q22 0 33 7v119z" />
    <glyph glyph-name="h.sinf" horiz-adv-x="407" 
d="M169 -71q0 -18 6 -25t29 -13v-41h-185v41q23 6 28.5 13t5.5 25v250q0 25 -24 35l-10 4v33l125 25h25v-347zM361 -71q0 -18 6 -25t28 -13v-41h-174v41q16 6 20 12.5t4 25.5v104q0 49 -5 64t-24 15q-28 0 -46 -21v29q16 23 43 34.5t50 11.5q53 0 75.5 -25.5t22.5 -80.5
v-131z" />
    <glyph glyph-name="i.sinf" horiz-adv-x="223" 
d="M112 190q-32 0 -53 18.5t-21 47.5q0 27 21 45.5t53 18.5q33 0 53.5 -18.5t20.5 -45.5q0 -29 -20.5 -47.5t-53.5 -18.5zM169 -71q0 -18 6 -25t29 -13v-41h-185v41q23 6 28.5 13t5.5 25v141q0 24 -24 34l-10 4v33l125 25h25v-237z" />
    <glyph glyph-name="j.sinf" horiz-adv-x="199" 
d="M101 190q-32 0 -53 18.5t-21 47.5q0 27 21 45.5t53 18.5t53 -18.5t21 -45.5q0 -29 -21 -47.5t-53 -18.5zM13 141l125 25h25v-273q0 -61 -36 -103t-138 -69l-16 41q2 1 12 5.5t12 5.5t10 6t10 7.5t8.5 8.5t8 11t5 13.5t5 17.5t2.5 21t1 26v186q0 24 -24 34l-10 4v33z" />
    <glyph glyph-name="k.sinf" horiz-adv-x="425" 
d="M364 -75q12 -17 22.5 -24t32.5 -10v-41h-146l-80 119l-30 -25v-15q0 -18 6 -25t28 -13v-41h-184v41q23 6 28.5 13t5.5 25v251q0 24 -24 34l-10 4v33l125 25h25v-260l83 66q23 19 19 27t-37 8v41h167v-41q-20 0 -29 -3.5t-23 -14.5l-62 -53z" />
    <glyph glyph-name="l.sinf" horiz-adv-x="200" 
d="M158 276v-347q0 -18 6 -25t28 -13v-41h-184v41q23 6 28.5 13t5.5 25v251q0 24 -24 34l-10 4v33l125 25h25z" />
    <glyph glyph-name="m.sinf" horiz-adv-x="576" 
d="M163 -71q0 -19 5 -27t21 -11v-41h-176v41q23 6 28.5 13t5.5 25v141q0 24 -24 34l-10 4v33l125 25h25v-237zM535 -71q0 -18 5.5 -25t28.5 -13v-41h-167v40q11 3 14 11.5t3 27.5v135q0 48 -27 48q-26 0 -42 -19l-1 3v-2v-165q0 -19 5 -27t21 -11v-41h-159v40q11 3 14 11.5
t3 27.5v135q0 48 -27 48q-28 0 -42 -21v29q12 22 40 34t51 12q74 0 90 -49q15 25 43.5 37t52.5 12q52 0 73 -25.5t21 -80.5v-131z" />
    <glyph glyph-name="n.sinf" horiz-adv-x="399" 
d="M354 -71q0 -18 6 -25t28 -13v-41h-175v40q17 6 21 13t4 26v104q0 49 -5.5 64t-24.5 15q-28 0 -45 -21v-162q0 -18 6 -25t28 -13v-41h-184v41q23 6 28.5 13t5.5 25v141q0 24 -24 34l-10 4v33l125 25h25v-46q15 23 42 34.5t50 11.5q53 0 76 -26t23 -80v-131z" />
    <glyph glyph-name="o.sinf" horiz-adv-x="366" 
d="M181 -158q-78 0 -123 44t-45 111q0 73 48.5 121t123.5 48q78 0 123 -44.5t45 -112.5q0 -72 -49 -119.5t-123 -47.5zM189 -119q44 0 44 112q0 63 -16.5 98.5t-39.5 35.5q-44 0 -44 -111q0 -63 17 -99t39 -36z" />
    <glyph glyph-name="p.sinf" horiz-adv-x="383" 
d="M233 166q69 0 104 -44t35 -108q0 -78 -43 -125t-113 -47q-30 0 -53 10v-39q0 -18 9.5 -26t40.5 -12v-41h-200v41q23 6 28.5 13t5.5 25v257q0 24 -24 34l-10 4v33l125 25h25v-38q22 38 70 38zM203 -112q21 0 35 27t14 77q0 51 -14 83t-42 32h-7.5h-6t-4 -0.5t-4.5 -1
t-4.5 -2t-6.5 -4.5v-119q0 -54 9 -73t31 -19z" />
    <glyph glyph-name="q.sinf" horiz-adv-x="383" 
d="M336 -190q0 -18 6 -25t28 -13v-41h-200v41q30 4 40 12.5t10 25.5v68q-23 -36 -70 -36q-69 0 -104 44t-35 108q0 78 43 125t113 47q63 0 86 -34l32 34h51v-356zM187 -99q22 0 33 7v119q0 55 -9 74t-31 19q-21 0 -35 -27t-14 -77q0 -51 14 -83t42 -32z" />
    <glyph glyph-name="r.sinf" horiz-adv-x="293" 
d="M258 170q18 2 31 -3l-15 -122q-24 32 -65 27t-51 -32v-112q0 -18 9.5 -25.5t35.5 -11.5v-41h-195v41q21 5 27.5 12t6.5 25v142q0 24 -24 34l-10 4v33l125 25h25v-89q24 84 100 93z" />
    <glyph glyph-name="s.sinf" horiz-adv-x="318" 
d="M172 166q45 0 78.5 -11t46.5 -23l-56 -78q-40 75 -83 75q-14 0 -27 -7.5t-13 -20.5q0 -4 1 -7.5t2 -6t4 -5t5 -4.5t6.5 -4t7 -3t8.5 -2.5t9 -2.5t10.5 -2.5t10.5 -2.5q22 -5 37.5 -11t38 -18.5t34.5 -34t11 -49.5q-2 -46 -38.5 -76t-98.5 -30q-48 0 -90.5 17t-60.5 31
l66 71q55 -82 95 -82q41 0 41 34q0 18 -16.5 26.5t-68.5 18.5q-101 19 -101 104q0 49 38 76.5t103 27.5z" />
    <glyph glyph-name="t.sinf" horiz-adv-x="263" 
d="M251 -92l10 -21q-51 -45 -105 -45q-50 0 -78 25.5t-28 70.5v182h-49v38h49v54l96 40h21v-94h78v-38h-78v-173q0 -22 12.5 -35.5t33.5 -13.5q15 0 38 10z" />
    <glyph glyph-name="u.sinf" horiz-adv-x="407" 
d="M370 -85h23v-41l-132 -32h-25v47q-15 -23 -42.5 -35t-50.5 -12q-53 0 -75.5 25.5t-22.5 80.5v122q0 23 -25 34l-10 4v33l126 25h25v-183q0 -51 5.5 -69t23.5 -18q11 0 25 6.5t21 15.5v152q0 24 -24 34l-10 4v33l125 25h25v-217q0 -34 18 -34z" />
    <glyph glyph-name="v.sinf" horiz-adv-x="382" 
d="M383 158v-41q-28 -5 -34 -18l-111 -246h-88l-114 246q-4 10 -11 13.5t-26 5.5v40h195v-41q-31 -2 -39 -7t-2 -18l68 -154l67 154q5 11 -3 16t-37 9v41h135z" />
    <glyph glyph-name="w.sinf" horiz-adv-x="577" 
d="M446 158h132v-41q-30 -5 -36 -18l-105 -246h-85l-62 142l-61 -142h-85l-107 246q-7 15 -38 19v40h195v-41q-31 -2 -39 -7t-2 -18l62 -153l48 119l-18 41q-7 15 -37 19v40h193v-41q-30 -2 -37.5 -6.5t-1.5 -18.5l61 -153l62 153q4 11 -3.5 16t-35.5 9v41z" />
    <glyph glyph-name="x.sinf" horiz-adv-x="380" 
d="M334 -87q17 -21 47 -22v-41h-200v41q21 4 26 8t-2 12l-40 46l-37 -41q-5 -6 -6.5 -9t1 -6t10 -5.5t21.5 -4.5v-41h-150v41q25 4 44 23l83 81l-84 97q-20 23 -48 25v41h202v-41q-8 -1 -14.5 -2.5t-10 -3.5t-4.5 -4.5t-0.5 -5.5t3.5 -6l38 -43l36 39q5 5 6.5 8.5t-1 6.5
t-10 5.5t-21.5 5.5v41h150v-41q-25 -5 -44 -22l-82 -82z" />
    <glyph glyph-name="y.sinf" horiz-adv-x="387" 
d="M384 158v-40q-29 -5 -35 -19l-172 -365h-73l67 94l-130 271q-8 15 -38 19v40h193v-40q-30 -2 -38.5 -7.5t-2.5 -19.5l68 -150l71 150q5 11 -3.5 17t-37.5 10v40h131z" />
    <glyph glyph-name="z.sinf" horiz-adv-x="332" 
d="M319 158v-40l-173 -230h71q36 0 55 77h41l-8 -115h-291v39l172 231h-57q-11 0 -19 -3t-20 -19t-21 -45h-41l9 105h282z" />
    <glyph glyph-name="a.sinf.ss01" horiz-adv-x="383" 
d="M357 -85h23v-41l-132 -32h-25v37q-23 -37 -70 -37q-69 0 -104 44t-35 108q0 78 43 125t113 47q62 0 85 -33l33 33h51v-217q0 -34 18 -34zM190 -99h8.5h6t4.5 0.5t6 2t8 4.5v119q0 55 -9 74t-31 19q-21 0 -35 -27t-14 -77q0 -51 14 -83t42 -32z" />
    <glyph glyph-name="a.sinf.ss02" horiz-adv-x="380" 
d="M337 -85h23v-41l-132 -32h-25v44q-29 -44 -93 -44q-42 0 -66 22t-24 61q0 18 6.5 33t23 26.5t27 18.5t36.5 14t31.5 8.5t30.5 7.5l28 6v69h-154v50h270v-209q0 -34 18 -34zM168 -100q21 0 35 16v85l-16 -4q-16 -4 -31.5 -18.5t-15.5 -36.5q0 -18 8.5 -30t19.5 -12z" />
    <glyph glyph-name="g.sinf.ss03" horiz-adv-x="409" 
d="M245 -77q60 1 102 -25t42 -68q0 -46 -59.5 -81t-142.5 -35q-75 0 -121 25t-46 62q0 32 68 54q-33 16 -33 47q0 43 51 70q-63 28 -63 87q0 45 43 76t112 31q31 0 61 -8h127v-50h-51q16 -22 16 -49q0 -45 -42 -75.5t-111 -30.5q-29 0 -63 8q-7 -4 -7 -13q0 -11 9.5 -18.5
t27.5 -7.5zM192 131q-13 0 -21 -17.5t-8 -45.5q0 -35 11.5 -58t28.5 -23q12 0 20 17.5t8 45.5q0 36 -10.5 58.5t-28.5 22.5zM198 -245q37 0 57.5 12t20.5 33q0 18 -16 30.5t-40 11.5l-53 -1q-20 0 -28 1q-4 -8 -4 -34q0 -53 63 -53z" />
    <glyph glyph-name="g.sinf.ss04" horiz-adv-x="428" 
d="M408 158v-50h-50q15 -21 15 -49q0 -45 -42 -75.5t-111 -30.5q-43 0 -79 14v-57h129q55 0 89.5 -24t34.5 -63q0 -45 -57 -78t-140 -33q-76 0 -126.5 22t-50.5 47q0 47 71 66v150q-25 27 -25 62q0 45 42.5 76t111.5 31q32 0 61 -8h127zM226 -13q12 0 20 17.5t8 45.5
q0 36 -11 58.5t-29 22.5q-12 0 -20 -17.5t-8 -45.5q0 -36 11 -58.5t29 -22.5zM278 -206q0 16 -16.5 28t-47.5 12h-67q-13 -13 -13 -33q0 -22 26 -35t59 -13q59 0 59 41z" />
    <glyph glyph-name="g.sinf.ss05" horiz-adv-x="365" 
d="M294 166h51v-428q0 -7 -7 -7h-286v50h177v97q-23 -36 -70 -36q-69 0 -104 44t-35 108q0 78 43 125t113 47q63 0 86 -34zM196 -99q22 0 33 7v119q0 55 -9 74t-31 19q-21 0 -35 -27t-14 -77q0 -51 14 -83t42 -32z" />
    <glyph glyph-name="r.sinf.ss06" horiz-adv-x="296" 
d="M171 -72q0 -14 8.5 -22t35.5 -15v-41h-195v41q22 6 28.5 13.5t6.5 24.5v229h221v-50h-105v-180z" />
    <glyph glyph-name="t.sinf.ss07" horiz-adv-x="286" 
d="M201 234v-76h65v-50h-65v-258h-116v258h-65v50h65v76h116z" />
    <glyph glyph-name="y.sinf.ss08" horiz-adv-x="382" 
d="M250 158h133v-41q-29 -5 -35 -19l-135 -286q-41 -89 -107 -89q-34 0 -77 20l28 85q31 -17 65 -17q35 0 43 13l-128 274q-7 15 -38 19v41h195v-41q-31 -2 -39.5 -7.5t-1.5 -18.5l68 -147l70 147q5 10 -3.5 16t-37.5 10v41zM167 -171q1 1 1 2t1 2z" />
    <glyph glyph-name="y.sinf.ss09" horiz-adv-x="382" 
d="M337 166h25v-319q0 -61 -43 -98t-128 -37q-58 0 -97 16t-52 37l108 51q20 -63 54 -63q42 0 42 80v57q-15 -23 -42.5 -35.5t-50.5 -12.5q-53 0 -75.5 25.5t-22.5 80.5v122q0 23 -25 34l-10 4v33l126 25h25v-183q0 -51 5.5 -69t23.5 -18q32 0 46 19v155q0 24 -24 34l-10 4
v33z" />
    <glyph glyph-name="y.sinf.ss10" horiz-adv-x="382" 
d="M337 166h25v-428q0 -7 -7 -7h-286v50h177v109q-15 -23 -42.5 -35.5t-50.5 -12.5q-53 0 -75.5 25.5t-22.5 80.5v122q0 23 -25 34l-10 4v33l126 25h25v-183q0 -51 5.5 -69t23.5 -18q32 0 46 19v155q0 24 -24 34l-10 4v33z" />
    <glyph glyph-name="G.sinf.ss11" horiz-adv-x="420" 
d="M398 69v-168q-62 -59 -170 -59q-95 0 -150.5 57t-57.5 143q-2 94 51 155t150 61q154 0 179 -88l-110 -60q-11 61 -27 84.5t-47 23.5q-34 0 -53.5 -41t-18.5 -119q1 -72 32.5 -114.5t71.5 -42.5q21 0 31 2v82q0 21 -10 30.5t-41 12.5v41h170z" />
    </font>
</defs>
</svg>
